SplineFontDB: 3.2
FontName: AtkinsonHyperPro-Italic
FullName: Atkinson Hyperlegible Pro Italic
FamilyName: Atkinson Hyperlegible Pro
Weight: Regular
Copyright: Copyright 2020 Braille Institute of America, Inc.
UComments: "Update by Jacob Perez+AAoA-https://jacobxperez.github.io/atkinson-hyperlegible-pro/"
Version: 1.3.2
ItalicAngle: -12
UnderlinePosition: -106
UnderlineWidth: 57
Ascent: 800
Descent: 200
InvalidEm: 0
sfntRevision: 0x00010000
LayerCount: 2
Layer: 0 0 "Back" 1
Layer: 1 0 "Fore" 0
XUID: [1021 466 782043844 3810]
StyleMap: 0x0001
FSType: 0
OS2Version: 4
OS2_WeightWidthSlopeOnly: 0
OS2_UseTypoMetrics: 1
CreationTime: 1618935638
ModificationTime: 1697742711
PfmFamily: 81
TTFWeight: 400
TTFWidth: 5
LineGap: 0
VLineGap: 0
Panose: 0 0 0 0 0 0 0 0 0 0
OS2TypoAscent: 950
OS2TypoAOffset: 0
OS2TypoDescent: -290
OS2TypoDOffset: 0
OS2TypoLinegap: 0
OS2WinAscent: 950
OS2WinAOffset: 0
OS2WinDescent: 290
OS2WinDOffset: 0
HheadAscent: 950
HheadAOffset: 0
HheadDescent: -290
HheadDOffset: 0
OS2SubXSize: 650
OS2SubYSize: 699
OS2SubXOff: 0
OS2SubYOff: 140
OS2SupXSize: 650
OS2SupYSize: 699
OS2SupXOff: 0
OS2SupYOff: 479
OS2StrikeYSize: 49
OS2StrikeYPos: 258
OS2CapHeight: 668
OS2XHeight: 496
OS2Vendor: 'NONE'
OS2CodePages: 20000003.00000000
OS2UnicodeRanges: 800000ef.0000204b.00000000.00000000
Lookup: 4 0 1 "'liga' Standard Ligatures lookup 0" { "'liga' Standard Ligatures lookup 0-1"  } ['liga' ('DFLT' <'dflt' > 'grek' <'dflt' > 'latn' <'MOL ' 'dflt' > ) ]
Lookup: 1 0 0 "'zero' Slashed Zero lookup 0" { "'zero' Slashed Zero lookup 0-1"  } ['zero' ('DFLT' <'dflt' > 'grek' <'dflt' > 'latn' <'MOL ' 'dflt' > ) ]
Lookup: 1 0 0 "'aalt' Access All Alternates lookup 0" { "'aalt' Access All Alternates lookup 0 subtable"  } ['aalt' ('DFLT' <'dflt' > 'grek' <'dflt' > 'latn' <'dflt' > ) ]
Lookup: 3 0 0 "'aalt' Access All Alternates lookup 1" { "'aalt' Access All Alternates lookup 1 subtable"  } ['aalt' ('DFLT' <'dflt' > 'grek' <'dflt' > 'latn' <'dflt' > ) ]

StartChar: .notdef
Encoding: 256 -1 0
Width: 523
GlyphClass: 1
Flags: W
HStem: 0 21<77 447> 680 20<76 447>
VStem: 48 21<49 650> 455 20<47 652>
DStem2: 76 680 69 650 0.513698 -0.857971<22.1432 360.147 396.696 737.787> 69 49 77 21 0.513896 0.857853<0 339.381 374.897 715.649>
LayerCount: 2
Fore
SplineSet
77 21 m 1
 447 21 l 1
 262 329 l 1
 77 21 l 1
69 49 m 1
 249 350 l 1
 69 650 l 1
 69 49 l 1
455 47 m 1
 455 652 l 1
 274 350 l 1
 455 47 l 1
261 371 m 1
 447 680 l 1
 76 680 l 1
 261 371 l 1
48 0 m 1
 48 700 l 1
 475 700 l 1
 475 0 l 1
 48 0 l 1
EndSplineSet
EndChar

StartChar: zero
Encoding: 48 48 5
Width: 654
GlyphClass: 1
Flags: W
HStem: -12 75<225.523 386.222> 605 75<289.115 447.861>
VStem: 66 92<137.295 412.234> 514 92<249.111 528.268>
DStem2: 270 574 211 503 0.437417 -0.899259<38.0398 446.798>
LayerCount: 2
Fore
SplineSet
158 248.147563366 m 0
 158 158.40982462 187.525970691 63 302.826937448 63 c 0
 343.145941407 63 378.666666667 74.6666666667 408 98 c 1
 211 503 l 1
 165.922562253 422.862332895 158 294.631816749 158 248.147563366 c 0
514 404.32741915 m 0
 514 510.690443971 483.556469234 605 369.189002963 605 c 0
 331.332118546 605 298 594.666666667 270 574 c 1
 465 172 l 1
 470.519227778 183.383407293 514 277.213884842 514 404.32741915 c 0
606 425.180041196 m 0
 606 361.80785049 594.404258707 -12 296.830097549 -12 c 0
 203.821987066 -12 66 24.5173811854 66 244.266800925 c 0
 66 310.63441507 78.5711626089 680 399.942447711 680 c 0
 420.795977086 680 606 678.444745647 606 425.180041196 c 0
EndSplineSet
Substitution2: "'zero' Slashed Zero lookup 0-1" zero.alt1
Substitution2: "'aalt' Access All Alternates lookup 0 subtable" zero.alt1
Substitution2: "'tnum' Tabular Numbers lookup 14 subtable" zero.tf
EndChar

StartChar: one
Encoding: 49 49 6
Width: 403
GlyphClass: 1
Flags: W
HStem: 0 21G<158 247.251> 503 68<101 244.27> 648 20G<308.554 385>
VStem: 158 85<0 85> 327 58<636.133 668>
DStem2: 158 0 243 0 0.207912 0.978148<17.6725 514.255>
LayerCount: 2
Fore
SplineSet
101 571 m 1
 209.087012677 571 290.107132161 591.579059477 327 668 c 1
 385 668 l 1
 243 0 l 1
 158 0 l 1
 265 503 l 1
 87 503 l 1
 101 571 l 1
EndSplineSet
Substitution2: "'tnum' Tabular Numbers lookup 14 subtable" one.tf
Substitution2: "'sups' Superscript lookup 9 subtable" uni00B9
AlternateSubs2: "'aalt' Access All Alternates lookup 1 subtable" uni00B9 one.tf
EndChar

StartChar: two
Encoding: 50 50 7
Width: 565
GlyphClass: 1
Flags: W
HStem: 0 77<131 463> 498 21G<109 191.942> 610 70<253.607 409.93>
VStem: 455 93<421.422 567.148>
LayerCount: 2
Fore
SplineSet
548 508.670266768 m 0
 548 376.627962821 439.286881765 248.27048987 131 77 c 1
 479 77 l 1
 463 0 l 1
 -18 0 l 1
 -2 76 l 1
 261.773909624 224.372824164 455 360.463320887 455 498.163665831 c 0
 455 569.548963079 403.070605964 610 335.251344289 610 c 0
 281.286400724 610 209.884160287 584.387793284 174 498 c 1
 96 522 l 1
 143.333333333 627.333333333 224.818174693 680 336.301272821 680 c 0
 391.73378687 680 548 666.97892246 548 508.670266768 c 0
EndSplineSet
Substitution2: "'tnum' Tabular Numbers lookup 14 subtable" two.tf
Substitution2: "'sups' Superscript lookup 9 subtable" uni00B2
AlternateSubs2: "'aalt' Access All Alternates lookup 1 subtable" uni00B2 two.tf
EndChar

StartChar: three
Encoding: 51 51 8
Width: 580
GlyphClass: 1
Flags: W
HStem: -12 70<175.819 348.212> 315 75<230 351.743> 498 21G<106.6 183.321> 610 70<236.302 400.495>
VStem: 32 86<118.686 159.872> 416 89<121.994 262.313> 446 92<437.741 565.927>
LayerCount: 2
Fore
SplineSet
505 202.293118149 m 0xfc
 505 92.935237411 426.687184232 -12 265.491353627 -12 c 0
 202.904531864 -12 59.456887098 3.81901860327 32 158 c 1
 118 181 l 1
 124.062407672 139.320947257 150.063210165 58 257.31300322 58 c 0
 330.028733023 58 416 95.3823188573 416 192.784304699 c 0xfc
 416 304.847895008 302.198819034 315 214 315 c 1
 230 390 l 1
 363.927301806 390 446 411.757320466 446 500.784995529 c 0
 446 574.513479548 389.711554421 610 317.488124529 610 c 0
 255.581032752 610 197.642393374 583.927180123 169 498 c 1
 91 523 l 1
 102.423914782 561.079715941 151.735635297 680 319.226160348 680 c 0
 369.279910398 680 538 669.379408838 538 519.872950401 c 0xfa
 538 474.344652729 522.353769866 386.784589955 403 347 c 1
 428.499510191 338.646712179 505 310.378204425 505 202.293118149 c 0xfc
EndSplineSet
Substitution2: "'tnum' Tabular Numbers lookup 14 subtable" three.tf
Substitution2: "'sups' Superscript lookup 9 subtable" uni00B3
AlternateSubs2: "'aalt' Access All Alternates lookup 1 subtable" uni00B3 three.tf
EndChar

StartChar: four
Encoding: 52 52 9
Width: 636
GlyphClass: 1
Flags: W
HStem: 0 21G<320 411.242> 165 79<127 356 459 566> 648 20G<441.811 549>
VStem: 320 87<0 87>
DStem2: 34 244 127 244 0.710419 0.703779<66.0689 503.773> 320 0 407 0 0.207912 0.978148<18.0883 168.879 267.568 564.471>
LayerCount: 2
Fore
SplineSet
127 244 m 1
 372 244 l 1
 438 552 l 1
 127 244 l 1
320 0 m 1
 356 165 l 1
 17 165 l 1
 34 244 l 1
 462 668 l 1
 549 668 l 1
 459 244 l 1
 583 244 l 1
 566 165 l 1
 442 165 l 1
 407 0 l 1
 320 0 l 1
EndSplineSet
Substitution2: "'tnum' Tabular Numbers lookup 14 subtable" four.tf
Substitution2: "'sups' Superscript lookup 9 subtable" uni2074
AlternateSubs2: "'aalt' Access All Alternates lookup 1 subtable" four.tf uni2074
EndChar

StartChar: five
Encoding: 53 53 10
Width: 575
GlyphClass: 1
Flags: W
HStem: -12 72.406<169.771 331.746> 377 73<205.736 359.593> 587 81<229 543>
VStem: 25 83<127.183 155.94> 410 91<142.145 324.042>
DStem2: 63 329 166 400 0.316228 0.948683<1.89737 41.5405 99.928 297.254>
LayerCount: 2
Fore
SplineSet
501 244.053043626 m 0
 501 116.536178429 420.758478402 -12 252.937273693 -12 c 0
 196.413168291 -12 61.2551586616 2.58139617808 25 154 c 1
 108 177 l 1
 134.645990981 78.7429082589 197.614100777 61.8535206102 243.209640052 60.4060431729 c 0
 345.119177369 57.1708197661 410 129.49712927 410 234.846466169 c 0
 410 290.773789441 391.714754179 377 279.495077493 377 c 0
 248.059618025 377 179.240539358 370.233861257 141 305 c 1
 63 329 l 1
 176 668 l 1
 561 668 l 1
 543 587 l 1
 229 587 l 1
 166 400 l 1
 202 433.333333333 246.218051989 450 297.122928044 450 c 0
 390.929763977 450 501 393.402277406 501 244.053043626 c 0
EndSplineSet
Substitution2: "'tnum' Tabular Numbers lookup 14 subtable" five.tf
Substitution2: "'aalt' Access All Alternates lookup 0 subtable" five.tf
EndChar

StartChar: six
Encoding: 54 54 11
Width: 605
GlyphClass: 1
Flags: W
HStem: -12 70<212.904 363.083> 370 75<237.471 391.207> 610 70<288.981 435.282>
VStem: 62 89<123.597 348.362> 444 90<140.669 314.107>
LayerCount: 2
Fore
SplineSet
151 206.691596368 m 0
 151 121.799312136 201.988595706 58 286.806541153 58 c 0
 379.349622918 58 444 133.950111419 444 226.579590596 c 0
 444 260.102306345 435.532581855 370 311.860264631 370 c 0
 213.795528739 370 151 300.901390489 151 206.691596368 c 0
534 239.078558136 m 0
 534 114.864833177 453.472828 -12 281.093827188 -12 c 0
 167.733943332 -12 62 42.8644865556 62 242.553179464 c 0
 62 418.448556427 144.038239329 680 369.827613358 680 c 0
 407.018599344 680 517.478646911 672.903805562 553 573 c 1
 465 548 l 1
 458.816993647 564.300653112 438.244229901 610 365.724445061 610 c 0
 261.909381665 610 191.017018346 516.347855492 164 361 c 1
 181.421470254 386.783775976 232.198591918 445 333.278182717 445 c 0
 452.449651405 445 534 364.078920751 534 239.078558136 c 0
EndSplineSet
Substitution2: "'tnum' Tabular Numbers lookup 14 subtable" six.tf
Substitution2: "'aalt' Access All Alternates lookup 0 subtable" six.tf
EndChar

StartChar: seven
Encoding: 55 55 12
Width: 537
GlyphClass: 1
Flags: W
HStem: 0 21G<31 153.003> 587 81<96 445>
VStem: 31 108<0 108>
DStem2: 31 0 139 0 0.576355 0.817199<62.2464 718.307>
LayerCount: 2
Fore
SplineSet
31 0 m 1
 445 587 l 1
 78 587 l 1
 96 668 l 1
 567 668 l 1
 550 587 l 1
 139 0 l 1
 31 0 l 1
EndSplineSet
Substitution2: "'tnum' Tabular Numbers lookup 14 subtable" seven.tf
Substitution2: "'aalt' Access All Alternates lookup 0 subtable" seven.tf
EndChar

StartChar: eight
Encoding: 56 56 13
Width: 617
GlyphClass: 1
Flags: W
HStem: -12 75<180.004 370.536> 317 74<246.86 372.121> 605 75<263.959 391.653>
VStem: 38 91<112.556 248.164> 137 74<425.467 552.491> 427 74<443.095 570.525> 444 90<127.89 267.392>
LayerCount: 2
Fore
SplineSet
129 179.306619617 m 0xfa
 129 145.024036148 141.94844107 63 273.240917578 63 c 0
 323.915325706 63 364.477512621 75.2190889116 395.752756406 99.9100708468 c 0
 427.810845955 125.219088912 444 158.807504281 444 197.822620104 c 0
 444 231.035872205 432.26775406 317 303.114369803 317 c 0
 194.894276332 317 129 256.643855556 129 179.306619617 c 0xfa
211 488.162346577 m 0
 211 432.931926707 251.707025373 391 307.704766118 391 c 0
 371.610004091 391 427 445.61057129 427 509.074755139 c 0xfc
 427 564.423052172 384.870872957 605 329.594156411 605 c 0
 266.975004786 605 211 552.927400367 211 488.162346577 c 0
534 209.174912473 m 0xfa
 534 75.1771072197 418.243703262 -12 272.32521491 -12 c 0
 223.099737868 -12 38 -2.07885773886 38 163.375998081 c 0
 38 199.364725741 46.7574921079 315.200359975 181 365 c 1
 151.666666667 395.666666667 137 433.621195395 137 477.479240656 c 0
 137 588.485640744 230.956951332 680 337.534033186 680 c 0
 430.850413635 680 501 609.841973551 501 516.217359731 c 0xfc
 501 457.300806277 473.22080206 402.520680536 429 365 c 1
 476.656821577 346.135841459 534 303.486760224 534 209.174912473 c 0xfa
EndSplineSet
Substitution2: "'tnum' Tabular Numbers lookup 14 subtable" eight.tf
Substitution2: "'aalt' Access All Alternates lookup 0 subtable" eight.tf
EndChar

StartChar: nine
Encoding: 57 57 14
Width: 601
GlyphClass: 1
Flags: W
HStem: 0 21G<151 271.667> 209 79<237.823 332.777> 596 84<269.924 432.705>
VStem: 92 87<346.823 508.45> 487 87<408.053 540.236>
DStem2: 151 0 267 0 0.657239 0.753682<76.2398 274.105>
LayerCount: 2
Fore
SplineSet
179 426.100779792 m 0
 179 344.323782949 233.898156806 288 312.358155037 288 c 0
 413.461038347 288 487 381.523835784 487 465.983986953 c 0
 487 527.318039827 448.219168981 596 354.702243444 596 c 0
 259.84932868 596 179 525.341631994 179 426.100779792 c 0
356.924768877 680 m 0
 493.551543691 680 574 577.273917812 574 408.053294642 c 0
 574 408.053294642 574 361.158730158 305.339593287 45.5893635437 c 0
 288.456752121 25.758724714 276.333333333 11.3333333333 267 0 c 1
 151 0 l 1
 335 211 l 1
 325.924634297 209.865579287 314.547095535 209 301.675084487 209 c 0
 166.136222919 209 92 304.971374516 92 418.166659269 c 0
 92 560.837972566 209.773369706 680 356.924768877 680 c 0
EndSplineSet
Substitution2: "'tnum' Tabular Numbers lookup 14 subtable" nine.tf
Substitution2: "'aalt' Access All Alternates lookup 0 subtable" nine.tf
EndChar

StartChar: A
Encoding: 65 65 15
Width: 627
GlyphClass: 2
Flags: W
HStem: 0 21G<-52 67.3699 459.123 565> 146 80<184 430> 648 20G<328.263 459.263>
VStem: 462 103<0 103>
DStem2: -52 0 56 0 0.506117 0.862465<54.6606 222.588>
AnchorPoint: "Anchor-2" 565 0 basechar 0
AnchorPoint: "Anchor-1" 387 668 basechar 0
AnchorPoint: "Anchor-0" 261 0 basechar 0
LayerCount: 2
Fore
SplineSet
184 226 m 1
 430 226 l 1
 381 573 l 1
 184 226 l 1
-52 0 m 1
 340 668 l 1
 456 668 l 1
 565 0 l 1
 462 0 l 1
 441 146 l 1
 139 146 l 1
 56 0 l 1
 -52 0 l 1
EndSplineSet
Substitution2: "Single Substitution lookup 12 subtable" ordfeminine
Substitution2: "'aalt' Access All Alternates lookup 0 subtable" ordfeminine
EndChar

StartChar: B
Encoding: 66 66 16
Width: 625
GlyphClass: 1
Flags: W
HStem: 0 79<127 394.957> 308 74<192 427.934> 588 80<235 471.628>
VStem: 468 104<148.844 271.387> 504 100<437.218 556.74>
DStem2: 14 0 110.208 0 0.207912 0.978148<100.768 334.951 410.661 621.099>
AnchorPoint: "Anchor-1" 342 668 basechar 0
LayerCount: 2
Fore
SplineSet
468 215.036217975 m 0xf0
 468 263.944574072 430.671652092 308 348 308 c 2
 176 308 l 1
 127 79 l 1
 308 79 l 2
 417.091356806 79 468 157.920000014 468 215.036217975 c 0xf0
504 500.545211995 m 0xe8
 504 546.091816495 470.620635883 588 400 588 c 2
 235 588 l 1
 192 382 l 1
 364 382 l 2
 463.696236102 382 504 450.496860246 504 500.545211995 c 0xe8
572 224.38599969 m 0xf0
 572 121.531129092 488.116965558 0 300 0 c 2
 14 0 l 1
 156 668 l 1
 407 668 l 2
 472.006470036 668 546.004994968 652.277508267 583.937023315 589.960604554 c 0
 597.315427987 567.981796878 604 543.833416997 604 520.389790605 c 0xe8
 604 500.250027212 599.066754243 402.638135899 490 352 c 1
 510.374770177 344.048870175 572 312.545084248 572 224.38599969 c 0xf0
EndSplineSet
EndChar

StartChar: C
Encoding: 67 67 17
Width: 661
GlyphClass: 2
Flags: W
HStem: -12 79<243.154 426.887> 498 21G<560.554 625.333> 600 80<318.211 502.667>
VStem: 53 96<166.916 398.172>
AnchorPoint: "Anchor-1" 420 668 basechar 0
AnchorPoint: "Anchor-0" 295 0 basechar 0
LayerCount: 2
Fore
SplineSet
595 140 m 1
 564.954716221 91.4161368681 486.911796957 -12 322.468984063 -12 c 0
 245.971424392 -12 53 10.379670014 53 258.846812682 c 0
 53 469.429966853 191.612476834 680 432.666373864 680 c 0
 459.535885317 680 608.438847224 677.383698491 655 528 c 1
 566 498 l 1
 555.10776644 532.038229876 519.737513435 600 413.716720314 600 c 0
 241.605336888 600 149 420.897447496 149 275.677032636 c 0
 149 168.920816861 199.045728025 67 333.6865531 67 c 0
 409.103958562 67 467.985394401 98.9780916012 516 171 c 1
 595 140 l 1
EndSplineSet
EndChar

StartChar: D
Encoding: 68 68 18
Width: 674
GlyphClass: 2
Flags: W
HStem: 0 79<127 353.363> 588 80<235 449.807>
DStem2: 14 -5.32907e-15 110.208 -5.32907e-15 0.207912 0.978148<100.768 621.099>
AnchorPoint: "Anchor-1" 378 668 basechar 0
AnchorPoint: "Anchor-0" 285 0 basechar 0
LayerCount: 2
Fore
SplineSet
127 79 m 1
 213 79 l 2
 489.003048829 79 525.902854146 263.165696459 534.815175521 316.182582583 c 0
 567.173794459 508.67487986 502.192396586 588 320 588 c 2
 235 588 l 1
 127 79 l 1
14 0 m 1
 156 668 l 1
 340 668 l 2
 441.425810579 668 686.299305615 651.795833689 633.601357344 335.608144066 c 0
 605.585914382 167.515486294 521.031871366 80.0122582179 403.631013584 34.8580821478 c 0
 343.101890681 11.5776502618 275 0 199 0 c 2
 14 0 l 1
EndSplineSet
EndChar

StartChar: E
Encoding: 69 69 19
Width: 565
GlyphClass: 2
Flags: W
HStem: 0 81<127 469> 304 80<192 439> 587 81<235 594>
DStem2: 14 0 109.783 0 0.207912 0.978148<102.724 330.831 412.617 620.121>
AnchorPoint: "Anchor-2" 438 0 basechar 0
AnchorPoint: "Anchor-1" 380 668 basechar 0
AnchorPoint: "Anchor-0" 230 0 basechar 0
LayerCount: 2
Fore
SplineSet
14 0 m 1
 156 668 l 1
 611 668 l 1
 594 587 l 1
 235 587 l 1
 192 384 l 1
 457 384 l 1
 439 304 l 1
 175 304 l 1
 127 81 l 1
 486 81 l 1
 469 0 l 1
 14 0 l 1
EndSplineSet
EndChar

StartChar: F
Encoding: 70 70 20
Width: 546
GlyphClass: 1
Flags: W
HStem: 0 21G<14 114.276> 304 80<192 514> 587 81<235 574>
VStem: 14 96<0 96>
DStem2: 14 0 110 0 0.207912 0.978148<19.9595 330.831 412.617 620.121>
AnchorPoint: "Anchor-1" 374 668 basechar 0
LayerCount: 2
Fore
SplineSet
14 0 m 1
 156 668 l 1
 592 668 l 1
 574 587 l 1
 235 587 l 1
 192 384 l 1
 531 384 l 1
 514 304 l 1
 175 304 l 1
 110 0 l 1
 14 0 l 1
EndSplineSet
EndChar

StartChar: G
Encoding: 71 71 21
Width: 712
GlyphClass: 2
Flags: W
HStem: -12 78.4244<242.27 416.384> 0 21G<523.537 585.302> 264 80<368 547> 498 21G<559.45 625.333> 600 80<318.83 501.296>
VStem: 54 96<166.825 402.855> 525 56<0 32.5405>
DStem2: 487.798 -12 579.33 -12 0.207912 0.978148<158.284 282.278>
AnchorPoint: "Anchor-1" 445 668 basechar 0
AnchorPoint: "Anchor-0" 303 0 basechar 0
LayerCount: 2
Fore
SplineSet
411.339547715 600 m 0xbe
 243.297081443 600 150 428.036716022 150 281.197015962 c 0
 150 229.659588666 161.492818575 71.7379403745 323.555584719 66.4244070584 c 0xbe
 383.26905404 64.4665883921 504.092648309 81.8937553134 542 243 c 2
 547 264 l 1
 351 264 l 1
 368 344 l 1
 655 344 l 1
 581 0 l 1
 525 0 l 1x7e
 519 82 l 1
 463 19.3333333333 390.906017517 -12 304.456309969 -12 c 0
 136.441613308 -12 54 106.351587153 54 266.863542492 c 0
 54 470.381798146 186.537402419 680 422.05831075 680 c 0
 498.219680608 680 617.345248544 658.080050485 655 528 c 1
 566 498 l 1
 552.899333726 547.78253184 503.939142668 600 411.339547715 600 c 0xbe
EndSplineSet
EndChar

StartChar: H
Encoding: 72 72 22
Width: 694
GlyphClass: 1
Flags: W
HStem: 0 21G<14 114.276 460 560.251> 304 80<192 524> 648 20G<151.749 252 597.775 698>
VStem: 14 96<0 96> 156 96<572 668> 460 96<0 96> 602 96<572 668>
DStem2: 14 0 110 0 0.207912 0.978148<19.9595 330.831 412.617 682.926> 460 0 556 0 0.207912 0.978148<19.9595 310.663 392.657 682.926>
AnchorPoint: "Anchor-1" 417 668 basechar 0
LayerCount: 2
Fore
SplineSet
14 0 m 1
 156 668 l 1
 252 668 l 1
 192 384 l 1
 542 384 l 1
 602 668 l 1
 698 668 l 1
 556 0 l 1
 460 0 l 1
 524 304 l 1
 175 304 l 1
 110 0 l 1
 14 0 l 1
EndSplineSet
EndChar

StartChar: I
Encoding: 73 73 23
Width: 414
GlyphClass: 2
Flags: W
HStem: 0 75<20 113 209 285> 593 75<146 223 318 412>
DStem2: 97.0583 0 193.058 0 0.207912 0.978148<96.6351 606.226>
AnchorPoint: "Anchor-2" 196 0 basechar 0
AnchorPoint: "Anchor-1" 287 668 basechar 0
AnchorPoint: "Anchor-0" 150 0 basechar 0
LayerCount: 2
Fore
SplineSet
4 0 m 1
 20 75 l 1
 113 75 l 1
 223 593 l 1
 130 593 l 1
 146 668 l 1
 427 668 l 1
 412 593 l 1
 318 593 l 1
 209 75 l 1
 301 75 l 1
 285 0 l 1
 4 0 l 1
EndSplineSet
EndChar

StartChar: J
Encoding: 74 74 24
Width: 509
GlyphClass: 1
Flags: W
HStem: -12 77<108.135 252.108> 648 20G<412.736 513>
VStem: 417 96<572 668>
DStem2: 272.175 -12 368.387 -12 0.207912 0.978148<119.951 695.251>
AnchorPoint: "Anchor-1" 466 668 basechar 0
LayerCount: 2
Fore
SplineSet
78 162.514677437 m 0
 78 139.136747412 81.7016790654 65 177.452864615 65 c 0
 261.094995145 65 300.190426402 121.571198778 320 213 c 2
 417 668 l 1
 513 668 l 1
 416 212 l 2
 377.213156453 27.1920983953 283.356013395 -12 184.798411115 -12 c 0
 44.1376559721 -12 -20.4253147614 67.8296356716 -7 190 c 1
 83 214 l 1
 80.039943778 194.759634557 78 179.869323944 78 162.514677437 c 0
EndSplineSet
EndChar

StartChar: K
Encoding: 75 75 25
Width: 623
GlyphClass: 2
Flags: W
HStem: 0 21G<14 114.286 435.815 551> 648 20G<151.749 252 517.895 670>
VStem: 14 96<0 96> 156 96<572 668> 540 130<538 668>
DStem2: 14 0 110 0 0.207912 0.978148<19.9595 234.727 372.598 682.926> 183 345 281 324 0.747249 0.664544<0 59.275 152.12 481.416> 351 385 281 324 0.46099 -0.887405<21.8624 385.445>
AnchorPoint: "Anchor-1" 401 668 basechar 0
AnchorPoint: "Anchor-0" 259 0 basechar 0
LayerCount: 2
Fore
SplineSet
14 0 m 1
 156 668 l 1
 252 668 l 1
 183 345 l 1
 540 668 l 1
 670 668 l 1
 351 385 l 1
 551 0 l 1
 446 0 l 1
 281 324 l 1
 155 210 l 1
 110 0 l 1
 14 0 l 1
EndSplineSet
EndChar

StartChar: L
Encoding: 76 76 26
Width: 541
GlyphClass: 2
Flags: W
HStem: 0 81<127 469> 648 20G<151.749 252>
VStem: 156 96<572 668>
DStem2: 14 0 109.783 0 0.207912 0.978148<102.724 682.926>
AnchorPoint: "Anchor-1" 224 668 basechar 0
AnchorPoint: "Anchor-0" 218 0 basechar 0
LayerCount: 2
Fore
SplineSet
14 0 m 1
 156 668 l 1
 252 668 l 1
 127 81 l 1
 486 81 l 1
 469 0 l 1
 14 0 l 1
EndSplineSet
EndChar

StartChar: M
Encoding: 77 77 27
Width: 824
GlyphClass: 1
Flags: W
HStem: 0 21G<14 114.278 302.496 411.055 590 690.251> 648 20G<151.749 314.288 655.225 828>
VStem: 14 96<0 96> 590 96<0 96>
DStem2: 14 0 110 0 0.207912 0.978148<19.9595 607.968> 312 668 233 575 0.124247 -0.992251<82.4638 545.504> 374 126 400 0 0.483781 0.875189<0 541.023> 590 0 686 0 0.207912 0.978148<19.9595 571.526>
AnchorPoint: "Anchor-1" 473 668 basechar 0
LayerCount: 2
Fore
SplineSet
14 0 m 1
 156 668 l 1
 312 668 l 1
 374 126 l 1
 666 668 l 1
 828 668 l 1
 686 0 l 1
 590 0 l 1
 709 559 l 1
 400 0 l 1
 305 0 l 1
 233 575 l 1
 110 0 l 1
 14 0 l 1
EndSplineSet
EndChar

StartChar: N
Encoding: 78 78 28
Width: 693
GlyphClass: 2
Flags: W
HStem: 0 21G<14 114.271 411.576 559.251> 648 20G<151.749 299.481 596.749 697>
VStem: 14 96<0 96> 601 96<572 668>
DStem2: 14 0 110 0 0.207912 0.978148<19.9595 608.946> 293 668 233 576 0.305795 -0.952097<69.2452 603.382> 459.02 0 555 0 0.207912 0.978148<96.1 682.922>
AnchorPoint: "Anchor-1" 436 668 basechar 0
AnchorPoint: "Anchor-0" 264 0 basechar 0
LayerCount: 2
Fore
SplineSet
14 0 m 1
 156 668 l 1
 293 668 l 1
 479 94 l 1
 601 668 l 1
 697 668 l 1
 555 0 l 1
 418 0 l 1
 233 576 l 1
 110 0 l 1
 14 0 l 1
EndSplineSet
EndChar

StartChar: O
Encoding: 79 79 29
Width: 728
GlyphClass: 2
Flags: W
HStem: -12 79<237.706 425.273> 600 80<322.849 507.371>
VStem: 55 95<166.613 404.286> 596 95<264.676 500.451>
AnchorPoint: "Anchor-2" 604 10 basechar 0
AnchorPoint: "Anchor-1" 438 668 basechar 0
AnchorPoint: "Anchor-0" 311 0 basechar 0
LayerCount: 2
Fore
SplineSet
150 281.700474948 m 0
 150 225.328066731 162.660922115 67 326.261391907 67 c 0
 491.687654855 67 596 228.881691562 596 387.314872193 c 0
 596 441.290087682 583.893121136 600 419.186644233 600 c 0
 256.533687749 600 150 445.222930433 150 281.700474948 c 0
691 392.954783588 m 0
 691 176.659936988 536.682511285 -12 318.620378453 -12 c 0
 144.301031358 -12 55 108.561975384 55 275.552924644 c 0
 55 488.278909019 199.914449626 680 423.432154002 680 c 0
 602.9376442 680 691 556.347896992 691 392.954783588 c 0
EndSplineSet
Substitution2: "Single Substitution lookup 12 subtable" ordmasculine
Substitution2: "'aalt' Access All Alternates lookup 0 subtable" ordmasculine
EndChar

StartChar: P
Encoding: 80 80 30
Width: 597
GlyphClass: 1
Flags: W
HStem: 0 21G<14 114.226> 265 81<184 432.538> 588 80<235 461.461>
VStem: 14 96<0 96> 503 98<407.567 550.567>
DStem2: 14 0 110 0 0.207912 0.978148<19.9595 290.812 373.784 621.099>
AnchorPoint: "Anchor-1" 349 668 basechar 0
LayerCount: 2
Fore
SplineSet
503 480.257030435 m 0
 503 567.118801844 444.468830058 588 351 588 c 2
 235 588 l 1
 184 346 l 1
 311 346 l 2
 407.614437428 346 503 369.371110949 503 480.257030435 c 0
601 491.589650462 m 0
 601 355.00222603 515.682469872 265 287 265 c 2
 166 265 l 1
 110 0 l 1
 14 0 l 1
 156 668 l 1
 342 668 l 2
 560.958034489 668 601 585.162374407 601 491.589650462 c 0
EndSplineSet
EndChar

StartChar: Q
Encoding: 81 81 31
Width: 748
GlyphClass: 1
Flags: W
HStem: 5 79<244.666 430.849> 617 79<325.625 508.818>
VStem: 58 95<184.394 420.657> 599 95<283.864 520.411>
DStem2: 399 344 328 284 0.648755 -0.760997<0 202.829 288.2 443.298>
LayerCount: 2
Fore
SplineSet
153 297.764456977 m 0
 153 242.033216726 165.654537722 84 331.988386668 84 c 0
 380.302700432 84 424 97.3333333333 464 124 c 1
 328 284 l 1
 399 344 l 1
 531 190 l 1
 541.962768415 205.613639864 599 292.72955267 599 406.146667245 c 0
 599 453.947960511 588.868341505 617 421.809634097 617 c 0
 256.331793635 617 153 457.019263801 153 297.764456977 c 0
694 416.13899396 m 0
 694 320.834981952 659.050672754 204.815926202 588 123 c 1
 687 7 l 1
 617 -55 l 1
 517 62 l 1
 478.930873994 36.3033399457 413.402524719 5 323.267985329 5 c 0
 143.626811857 5 58 129.34260361 58 293.165501263 c 0
 58 508.243616559 205.588667535 696 426.636718363 696 c 0
 615.438814725 696 694 559.027003661 694 416.13899396 c 0
EndSplineSet
EndChar

StartChar: R
Encoding: 82 82 32
Width: 610
GlyphClass: 2
Flags: W
HStem: 0 21G<14 114.27 402.822 518> 281 79<187 270> 588 80<235 462.94>
VStem: 14 96<0 96> 503 98<414.224 552.046>
DStem2: 14 0 110 0 0.207912 0.978148<19.9595 307.294 388.102 621.099> 371 288 270 281 0.454621 -0.890685<0 275.611>
AnchorPoint: "Anchor-1" 374 668 basechar 0
AnchorPoint: "Anchor-0" 252 0 basechar 0
LayerCount: 2
Fore
SplineSet
503 485.941194933 m 0
 503 569.289663923 446.717578931 588 352 588 c 2
 235 588 l 1
 187 360 l 1
 311 360 l 2
 428.85317654 360 503 390.275216794 503 485.941194933 c 0
601 508.140574455 m 0
 601 441.09268174 577.339013828 307.284019984 371 288 c 1
 518 0 l 1
 413 0 l 1
 270 281 l 1
 170 281 l 1
 110 0 l 1
 14 0 l 1
 156 668 l 1
 360 668 l 2
 577.320690735 668 601 575.214423126 601 508.140574455 c 0
EndSplineSet
EndChar

StartChar: S
Encoding: 83 83 33
Width: 609
GlyphClass: 2
Flags: W
HStem: -12 79<199.836 382.961> 601 79<229.175 415.284>
VStem: 87 95<448.946 560.24> 446 98<121.834 238.057>
AnchorPoint: "Anchor-1" 356 668 basechar 0
AnchorPoint: "Anchor-0" 277 0 basechar 0
LayerCount: 2
Fore
SplineSet
544 197.307186978 m 0
 544 59.2990283239 408.218556062 -12 284.853550469 -12 c 0
 193.927727514 -12 78.3163866149 26.7323748841 36 147 c 1
 127 172 l 1
 132.819850781 155.459371465 169.678662019 67 289.111978705 67 c 0
 368.522745711 67 446 106.106742787 446 183.432915594 c 0
 446 349.884000154 87 259.455420068 87 489.749676621 c 0
 87 630.655680827 221.396275533 680 317.02485151 680 c 0
 343.709804562 680 506.19057789 676.157669927 561 555 c 1
 469 529 l 1
 444.885463482 575.889376563 381.445835256 601 324.668390002 601 c 0
 303.759686691 601 182 597.594663753 182 503.31664836 c 0
 182 340.756923289 544 422.64746993 544 197.307186978 c 0
EndSplineSet
EndChar

StartChar: T
Encoding: 84 84 34
Width: 558
GlyphClass: 2
Flags: W
HStem: 0 21G<169 270.191> 587 81<90 293 389 611>
VStem: 169 97<0 97>
DStem2: 169 0 266 0 0.207912 0.978148<20.1674 599.954>
AnchorPoint: "Anchor-1" 356 668 basechar 0
AnchorPoint: "Anchor-0" 218 0 basechar 0
LayerCount: 2
Fore
SplineSet
169 0 m 1
 293 587 l 1
 73 587 l 1
 90 668 l 1
 628 668 l 1
 611 587 l 1
 389 587 l 1
 266 0 l 1
 169 0 l 1
EndSplineSet
EndChar

StartChar: U
Encoding: 85 85 35
Width: 693
GlyphClass: 2
Flags: W
HStem: -12 81<199.224 400.84> 648 20G<152.722 253 596.707 697>
VStem: 61 98<107.24 318.938> 157 96<572 668> 601 96<572 668>
DStem2: 11.9335 -12 108.634 -12 0.207912 0.978148<225.606 695.301> 455.634 -12 551.933 -12 0.207912 0.978148<162.973 695.364>
AnchorPoint: "Anchor-2" 352 0 basechar 0
AnchorPoint: "Anchor-1" 415 668 basechar 0
AnchorPoint: "Anchor-0" 294 0 basechar 0
LayerCount: 2
Fore
SplineSet
159 185.912443598 m 0xe8
 159 101.302116677 201.198941445 69 295.143699132 69 c 0
 425.592346459 69 485.330770146 131.282357138 516 272 c 2
 601 668 l 1
 697 668 l 1
 614 280 l 2
 562.919591233 36.7599582509 441.137907342 -12 295.431653093 -12 c 0
 143.039838878 -12 61 41.3372003984 61 173.175154665 c 0xe8
 61 205.866239766 66.0443191962 241.547542782 74 280 c 2
 157 668 l 1
 253 668 l 1xd8
 169 272 l 2
 164.806844838 251.034224192 159 217.298930338 159 185.912443598 c 0xe8
EndSplineSet
EndChar

StartChar: V
Encoding: 86 86 36
Width: 592
GlyphClass: 1
Flags: W
HStem: 0 21G<175.365 301.138> 648 20G<90 191.222 540.247 662>
VStem: 90 99<569 668>
DStem2: 189 668 90 668 0.130608 -0.991434<0 561.318> 251 110 290 0 0.486531 0.873663<0 633.463>
LayerCount: 2
Fore
SplineSet
178 0 m 1
 90 668 l 1
 189 668 l 1
 251 110 l 1
 551 668 l 1
 662 668 l 1
 290 0 l 1
 178 0 l 1
EndSplineSet
EndChar

StartChar: W
Encoding: 87 87 37
Width: 844
GlyphClass: 1
Flags: W
HStem: 0 21G<115.222 235.893 482.601 613.281> 648 20G<90 190.444 427.333 549.181 794.926 914>
VStem: 90 100<488.154 668> 116 86<128 179.846> 472 77<200.364 551> 483 71<117 350.636>
DStem2: 202 128 227 0 0.406292 0.913743<0 496.212> 554 117 604 0 0.420952 0.907083<0 605.041>
AnchorPoint: "Anchor-1" 488 668 basechar 0
LayerCount: 2
Fore
SplineSet
116 0 m 1xd8
 90 668 l 1
 190 668 l 1xe0
 202 128 l 1
 436 668 l 1
 549 668 l 1xd8
 554 117 l 1
 804 668 l 1
 914 668 l 1
 604 0 l 1
 483 0 l 1xc4
 472 551 l 1
 227 0 l 1
 116 0 l 1xd8
EndSplineSet
EndChar

StartChar: X
Encoding: 88 88 38
Width: 624
GlyphClass: 1
Flags: W
HStem: 0 21G<-52 91.4848 439 552> 648 20G<116 227.878 547.469 691>
VStem: -52 125<0 125> 566 125<543 668>
DStem2: -52 0 73 0 0.679101 0.734045<84.8876 444.376 576.029 910.026> 218 668 116 668 0.447214 -0.894427<0 273.248 405.623 700.784>
LayerCount: 2
Fore
SplineSet
-52 0 m 1
 274 351 l 1
 116 668 l 1
 218 668 l 1
 339 423 l 1
 566 668 l 1
 691 668 l 1
 383 336 l 1
 552 0 l 1
 449 0 l 1
 317 264 l 1
 73 0 l 1
 -52 0 l 1
EndSplineSet
EndChar

StartChar: Y
Encoding: 89 89 39
Width: 598
GlyphClass: 2
Flags: W
HStem: 0 21G<177 278.25> 648 20G<90 192.172 538.332 668>
VStem: 90 96<572 668> 177 97<0 97> 554 114<554 668>
DStem2: 186 668 90 668 0.308885 -0.951099<0 352.645> 177 0 274 0 0.207912 0.978148<20.1674 245.567> 290 331 325 240 0.625362 0.780335<0 428.068>
AnchorPoint: "Anchor-1" 362 668 basechar 0
AnchorPoint: "Anchor-0" 246 0 basechar 0
LayerCount: 2
Fore
SplineSet
177 0 m 1xd8
 229 240 l 1
 90 668 l 1
 186 668 l 1xe8
 290 331 l 1
 554 668 l 1
 668 668 l 1
 325 240 l 1
 274 0 l 1
 177 0 l 1xd8
EndSplineSet
EndChar

StartChar: Z
Encoding: 90 90 40
Width: 613
GlyphClass: 2
Flags: W
HStem: 0 81<123 506> 587 81<145 500>
DStem2: -1 81 123 81 0.703587 0.710609<87.2448 712.065>
AnchorPoint: "Anchor-1" 388 668 basechar 0
AnchorPoint: "Anchor-0" 254 0 basechar 0
LayerCount: 2
Fore
SplineSet
-18 0 m 1
 -1 81 l 1
 500 587 l 1
 128 587 l 1
 145 668 l 1
 640 668 l 1
 623 587 l 1
 123 81 l 1
 524 81 l 1
 506 0 l 1
 -18 0 l 1
EndSplineSet
EndChar

StartChar: a
Encoding: 97 97 41
Width: 521
GlyphClass: 2
Flags: W
HStem: -12 69<117.651 258.401> 0 21G<327.73 410.339> 436 68<206.545 356.079>
VStem: 5 94<77.411 182.447> 329 79<0 63> 377 85<308.713 415.54>
AnchorPoint: "Anchor-2" 408 0 basechar 0
AnchorPoint: "Anchor-1" 311 496 basechar 0
AnchorPoint: "Anchor-0" 208 0 basechar 0
LayerCount: 2
Fore
SplineSet
99 129.537638318 m 0xb0
 99 102.60463684 109.138442638 57 182.729919233 57 c 0
 270.518595024 57 341.535175286 121.897947826 359 224 c 2
 362 241 l 1
 175.496408379 223.023750205 99 203.518545618 99 129.537638318 c 0xb0
325 63 m 1
 280.882635319 13.5350759641 229.923437357 -12 165.866260399 -12 c 0
 132.796902816 -12 5 -5.19460903092 5 115.086156923 c 0
 5 266.645582841 207.90551986 290.372927645 305.091793692 300.711892946 c 0
 328.819581897 303.236125734 347.333333333 305.333333333 370 308 c 1
 374.366809812 328.378445787 377 343.094682932 377 358.370568394 c 0
 377 410.24206476 346.638236404 436 284.829009412 436 c 0
 260.433467372 436 192.466274413 431.987404639 158 359 c 1
 83 382 l 1
 114.165618692 449.125947951 174.461756848 504 293.243467168 504 c 0
 329.103332268 504 462 498.998673756 462 367.286293091 c 0xb4
 462 287.04694831 412.678572285 163.750029973 408 0 c 1
 329 0 l 1x78
 325 63 l 1
EndSplineSet
Substitution2: "Single Substitution lookup 12 subtable" ordfeminine
Substitution2: "'aalt' Access All Alternates lookup 0 subtable" ordfeminine
EndChar

StartChar: b
Encoding: 98 98 42
Width: 555
GlyphClass: 1
Flags: W
HStem: -12 72<190.031 326.14> 0 21G<7 81> 432 72<242.386 374.732> 648 20G<144.749 235>
VStem: 149 86<582 668> 419 90<177.642 385.101>
DStem2: 4.46154 -12 90.05 -12 0.207912 0.978148<469.669 695.192>
AnchorPoint: "Anchor-1" 333 496 basechar 0
AnchorPoint: "Anchor-0" 266 -12 basechar 0
LayerCount: 2
Fore
SplineSet
138 216.777858514 m 0xbc
 138 195.576116389 141.405834237 60 256.087715344 60 c 0
 373.66190566 60 419 202.500886645 419 291.857716269 c 0
 419 340.449613412 405.592880847 432 308.972084494 432 c 0
 194.254887498 432 138 302.94465058 138 216.777858514 c 0xbc
509 292.937264538 m 0
 509 159.674784371 432.194702983 -12 267.377320127 -12 c 0xbc
 192.290610909 -12 143.220688713 23.6308863191 112 82 c 1
 71 0 l 1
 7 0 l 1x7c
 149 668 l 1
 235 668 l 1
 184 430 l 1
 237.692236989 499.484071397 298.115714726 504 326.885246916 504 c 0
 389.23760859 504 460.70327222 482.787723371 493.640165309 388.820704855 c 0
 503.873104782 359.626730474 509 327.367462994 509 292.937264538 c 0
EndSplineSet
EndChar

StartChar: c
Encoding: 99 99 43
Width: 495
GlyphClass: 2
Flags: W
HStem: -12 74<163.821 318.892> 430 74<215.683 365.733>
VStem: 26 92<110.205 310.394>
AnchorPoint: "Anchor-1" 301 496 basechar 0
AnchorPoint: "Anchor-0" 195 0 basechar 0
LayerCount: 2
Fore
SplineSet
436 99 m 1
 413.522760112 62.6397590054 351.640442094 -12 227.906351406 -12 c 0
 163.70444714 -12 26 8.09496738881 26 193.606788712 c 0
 26 350.598394361 124.618331369 504 299.885641766 504 c 0
 388.051755858 504 449.582337261 465.182151515 483 393 c 1
 400 364 l 1
 395.884029461 376.347911617 373.302557485 430 294.173409521 430 c 0
 171.631358019 430 118 301.328031274 118 199.441042366 c 0
 118 140.282270847 136.080882865 62 238.220564132 62 c 0
 295.529015547 62 335.40562351 86.6440320597 365 127 c 1
 436 99 l 1
EndSplineSet
EndChar

StartChar: d
Encoding: 100 100 44
Width: 555
GlyphClass: 2
Flags: W
HStem: -12 72<163.322 295.727> 0 21G<359.361 442.333> 432 72<209.126 349.705> 648 20G<476.778 567>
VStem: 27 90<111.222 314.165> 481 86<582 668>
DStem2: 336.852 -12 424.417 -12 0.207912 0.978148<419.16 695.11>
AnchorPoint: "Anchor-1" 271 496 basechar 0
AnchorPoint: "Anchor-0" 225 0 basechar 0
LayerCount: 2
Fore
SplineSet
117 204.67526671 m 0xbc
 117 161.903705712 127.100285734 60 226.713479687 60 c 0
 324.439243466 60 398 158.078630578 398 278.621986854 c 0
 398 326.039226767 386.617643863 432 283.243237942 432 c 0
 168.354492031 432 117 301.119771952 117 204.67526671 c 0xbc
356 61 m 1
 321.919925129 17.3775041651 275.618437654 -12 207.188904062 -12 c 0xbc
 85.482861071 -12 27 80.929162183 27 199.892634013 c 0
 27 342.163104887 110.643247905 504 263.501628681 504 c 0
 292.32817202 504 392.812826783 498.244485339 424 398 c 1
 481 668 l 1
 567 668 l 1
 565.906793547 662.732732546 465.650878193 195.575650762 452.836865053 121.706633838 c 0
 447.427243099 90.5217543337 442.666666667 43.3333333333 442 0 c 1
 361 0 l 1x7c
 356 61 l 1
EndSplineSet
EndChar

StartChar: e
Encoding: 101 101 45
Width: 542
GlyphClass: 2
Flags: W
HStem: -12 74<169.197 334.661> 225 68<128 422> 432 72<219.378 374.428>
VStem: 27 88<116.696 270.841> 422 87<293.413 385.391>
AnchorPoint: "Anchor-2" 337 10 basechar 0
AnchorPoint: "Anchor-1" 321 496 basechar 0
AnchorPoint: "Anchor-0" 218 0 basechar 0
LayerCount: 2
Fore
SplineSet
422 306.032420442 m 0
 422 330.802226565 414.896662 432 306.268856575 432 c 0
 287.256230566 432 158.199981817 428.899918177 128 293 c 1
 421 293 l 1
 421.666666667 296.333333333 422 300.666666667 422 306.032420442 c 0
449 87 m 1
 417.691446444 46.4830483388 352.988511561 -12 243.263221366 -12 c 0
 179.84084424 -12 27 7.53896507959 27 202.738059646 c 0
 27 361.773410587 128.454466937 504 305.481861029 504 c 0
 467.562735058 504 509 384.776083882 509 299.107494955 c 0
 509 276.056657947 506 251 500 225 c 1
 116 225 l 1
 115.333333333 220.333333333 115 213.333333333 115 205.316438731 c 0
 115 131.884172084 142.966638259 62 251.806179745 62 c 0
 270.168350373 62 326.125945264 63.989085515 371 111 c 1
 449 87 l 1
EndSplineSet
EndChar

StartChar: f
Encoding: 102 102 46
Width: 320
GlyphClass: 1
Flags: W
HStem: 0 21G<37 127.252> 428 68<59 128 228 315> 635 71<266.983 359>
VStem: 37 86<0 86>
DStem2: 37 0 123 0 0.207912 0.978148<17.8804 437.567 524.872 659.276>
AnchorPoint: "Anchor-1" 170 668 basechar 0
LayerCount: 2
Fore
SplineSet
37 0 m 1
 128 428 l 1
 44 428 l 1
 59 496 l 1
 142 496 l 1
 154 549 l 1
 186.523149933 687.223387213 216.685477244 703.40696286 323 706 c 1
 374 706 l 1
 359 635 l 1
 335 635 l 2
 278.075912653 635 257.156342537 623.164455783 243 563 c 2
 228 496 l 1
 330 496 l 1
 315 428 l 1
 214 428 l 1
 123 0 l 1
 37 0 l 1
EndSplineSet
EndChar

StartChar: g
Encoding: 103 103 47
Width: 555
GlyphClass: 2
Flags: W
HStem: -190 73<114.595 272.521> 16 73<169.699 303.902> 432 74<201.914 347.371> 476 20G<455.744 528>
VStem: 32 89<143.275 335.641>
AnchorPoint: "Anchor-1" 314 496 basechar 0
AnchorPoint: "Anchor-0" 172 -251 basechar 0
LayerCount: 2
Fore
SplineSet
121 235.43796708 m 0xe8
 121 205.689158969 127.212804615 89 238.171390053 89 c 0
 352.108155827 89 400 212.03720631 400 295.145241635 c 0
 400 384.247669352 344.950344737 432 275.116823933 432 c 0
 166.070561723 432 121 315.563735566 121 235.43796708 c 0xe8
259.846524248 506 m 0
 284.230556201 506 387.066198075 502.015046259 426 418 c 1
 466 496 l 1
 528 496 l 1xd8
 526.95953577 491.144500258 433.539739463 49.5331319057 412.244723234 -44.7733685337 c 0
 412.244322674 -44.7751424452 379.451612904 -190 192.97421161 -190 c 0
 91.9060023987 -190 20.0024153854 -147.340311113 -4 -78 c 1
 86 -53 l 1
 90.5214819102 -74.7031131691 112.585329745 -117 192.844504024 -117 c 0
 290.2784085 -117 324.077548749 -54.6639554207 342 23 c 2
 355 80 l 1
 320.875925446 36.3211845705 269.637644371 16 220.990874545 16 c 0
 149.847696339 16 32 59.4617820379 32 225.702938069 c 0
 32 365.087453744 114.84628864 506 259.846524248 506 c 0
EndSplineSet
EndChar

StartChar: h
Encoding: 104 104 48
Width: 548
GlyphClass: 1
Flags: W
HStem: 0 21G<7 97.2023 333 422.306> 430 74<251.105 384.247> 648 20G<144.749 235>
VStem: 7 86<0 86> 149 86<582 668> 333 85<0 85> 401 88<230.688 412.732>
DStem2: 7 0 93 0 0.207912 0.978148<17.8804 398.28 454.469 682.926> 333 0 418 0 0.207912 0.978148<17.6725 358.205>
AnchorPoint: "Anchor-1" 190 668 basechar 0
LayerCount: 2
Fore
SplineSet
401 352.655881696 m 0xfa
 401 403.073543883 380.213966155 430 320.019521217 430 c 0
 248.365237079 430 176.043552934 391.845067195 147 257 c 2
 93 0 l 1
 7 0 l 1
 149 668 l 1
 235 668 l 1
 184 427 l 1
 204.806329097 453.632101244 252.274484798 504 350.053271227 504 c 0
 425.181431538 504 489 474.264855292 489 366.909219479 c 0xfa
 489 343.633026635 486 317.333333333 480 288 c 2
 418 0 l 1
 333 0 l 1xfc
 392 280 l 2
 398 309.333333333 401 333.501968437 401 352.655881696 c 0xfa
EndSplineSet
EndChar

StartChar: i
Encoding: 105 105 49
Width: 270
GlyphClass: 1
Flags: W
HStem: 0 21G<46 136.234> 428 68<71 137> 591 125<182.409 276.712>
VStem: 46 86<0 86> 167 125<606.293 700.591>
DStem2: 46 0 132 0 0.207912 0.978148<17.8804 437.567>
AnchorPoint: "Anchor-2" 132 0 basechar 0
LayerCount: 2
Fore
SplineSet
46 0 m 1
 137 428 l 1
 57 428 l 1
 71 496 l 1
 237 496 l 1
 132 0 l 1
 46 0 l 1
292 653.450182966 m 0
 292 619.15067049 263.859176233 591 229.563271947 591 c 0
 195.462673486 591 167 618.830962625 167 653.382121629 c 0
 167 687.549598069 194.83404068 716 229.510174997 716 c 0
 264.186162313 716 292 687.549839286 292 653.450182966 c 0
EndSplineSet
Substitution2: "Single Substitution lookup 4 subtable" dotlessi
Substitution2: "Single Substitution lookup 3 subtable" dotlessi
EndChar

StartChar: j
Encoding: 106 106 50
Width: 258
GlyphClass: 1
Flags: W
HStem: -161 75<-138 -4.24677> 476 20G<128.735 219> 591 126<163.289 258.711>
VStem: 133 86<410 496> 148 126<606.289 701.711>
DStem2: -6.98484 -161 79.0779 -161 0.207912 0.978148<89.2467 671.747>
LayerCount: 2
Fore
SplineSet
-85.7283337865 -161 m 0xf0
 -105.74137204 -161 -128.618411174 -160.335873096 -154 -159 c 1
 -138 -86 l 1
 -106 -86 l 2
 -4.11642366323 -86 13.6852085519 -70.6133061715 30 13 c 1
 133 496 l 1
 219 496 l 1
 115 8 l 1
 88.0752185139 -123.931429282 63.7886092305 -161 -85.7283337865 -161 c 0xf0
274 653.999473153 m 0xe8
 274 618.983328987 246.013856556 591 210.999473153 591 c 0
 175.983328987 591 148 618.986143444 148 654.000526847 c 0
 148 689.016671013 175.986143444 717 211.000526847 717 c 0
 246.016671013 717 274 689.013856556 274 653.999473153 c 0xe8
EndSplineSet
EndChar

StartChar: k
Encoding: 107 107 51
Width: 487
GlyphClass: 2
Flags: W
HStem: 0 21G<7 97.2169 310.741 415> 476 20G<365.725 500> 648 20G<144.749 235>
VStem: 7 86<0 86> 149 86<582 668> 388 112<384 496>
DStem2: 7 0 93 0 0.207912 0.978148<17.8804 187.53 309.127 682.926> 153 285 202 232 0.748075 0.663615<0 1.48408 87.1869 315.82> 266 289 202 232 0.458251 -0.888823<21.3348 282.074>
AnchorPoint: "Anchor-1" 360 796 basechar 0
AnchorPoint: "Anchor-0" 221 0 basechar 0
LayerCount: 2
Fore
SplineSet
7 0 m 1
 149 668 l 1
 235 668 l 1
 153 285 l 1
 388 496 l 1
 500 496 l 1
 266 289 l 1
 415 0 l 1
 321 0 l 1
 202 232 l 1
 128 166 l 1
 93 0 l 1
 7 0 l 1
EndSplineSet
EndChar

StartChar: l
Encoding: 108 108 52
Width: 259
GlyphClass: 2
Flags: W
HStem: 0 75<118.571 182> 648 20G<144.764 235>
VStem: 27 91<47.1319 191.188> 149 86<582 668>
DStem2: 7.43043 0 93.2421 0 0.207912 0.978148<124.638 682.837>
AnchorPoint: "Anchor-1" 205 668 basechar 0
AnchorPoint: "Anchor-0" 97 0 basechar 0
LayerCount: 2
Fore
SplineSet
118 103.495178852 m 0
 118 84.3349174531 127.760957322 75 161 75 c 2
 198 75 l 1
 182 0 l 1
 126 0 l 2
 44.7852244385 0 27 24.4153961085 27 69.8483173605 c 0
 27 86.3045106437 29.3333333333 104.333333333 34 125 c 2
 149 668 l 1
 235 668 l 1
 123 140 l 2
 120.155955225 124.357753738 118 112.5 118 103.495178852 c 0
EndSplineSet
EndChar

StartChar: m
Encoding: 109 109 53
Width: 846
GlyphClass: 1
Flags: W
HStem: 0 21G<8 98.2222 319 409.222 630 720.2> 431 73<247.982 374.022 554.053 685.617> 476 20G<108.766 178.739>
VStem: 8 86<0 86> 113 64<462.933 496> 319 86<0 86> 630 86<0 86> 700 88<239.195 416.894>
DStem2: 8 0 94 0 0.207912 0.978148<17.8804 400.121> 319 0 405 0 0.207912 0.978148<17.8804 361.965> 630 0 716 0 0.207912 0.978148<17.8804 363.872>
AnchorPoint: "Anchor-1" 469 496 basechar 0
LayerCount: 2
Fore
SplineSet
389 356.059962795 m 0xdd
 389 403.09251098 370.366986698 431 314.28543512 431 c 0xdd
 239.100214135 431 175.037887053 380.841368077 151 270 c 2
 94 0 l 1
 8 0 l 1
 113 496 l 1
 177 496 l 1xbd
 183 427 l 1
 223.662746335 476.075728335 269.487910141 504 340.738364354 504 c 0
 418.371585781 504 456.271207721 470.84860596 475 416 c 1
 497.721080929 446.090080149 548.643586105 504 651.739464977 504 c 0
 706.89372792 504 788 487.425954612 788 374.533856198 c 0xdd
 788 352.822000048 785 328 779 300 c 2
 716 0 l 1
 630 0 l 1xde
 691 289 l 2
 697 316.333333333 700 339.06256386 700 358.01368388 c 0
 700 406.952387091 679.994177796 431 626.676650421 431 c 0
 576.243841515 431 493.200404434 409.484160998 462 270 c 1
 405 0 l 1
 319 0 l 1
 380 289 l 2
 386 315 389 337.187977501 389 356.059962795 c 0xdd
EndSplineSet
EndChar

StartChar: n
Encoding: 110 110 54
Width: 550
GlyphClass: 2
Flags: W
HStem: 0 21G<8 98.2023 334 423.321> 430 74<251.11 384.169> 476 20G<108.766 178.739>
VStem: 8 86<0 86> 113 64<462.933 496> 334 85<0 85> 402 88<229.875 413.005>
DStem2: 8 0 94 0 0.207912 0.978148<17.8804 398.197> 334 0 419 0 0.207912 0.978148<17.6725 357.599>
AnchorPoint: "Anchor-1" 328 496 basechar 0
AnchorPoint: "Anchor-0" 212 0 basechar 0
LayerCount: 2
Fore
SplineSet
402 352.047719501 m 0xda
 402 403.514729747 380.911673025 430 321.117760331 430 c 0xda
 249.193680822 430 177.007741776 391.678801102 148 257 c 2
 94 0 l 1
 8 0 l 1
 113 496 l 1
 177 496 l 1xba
 183 427 l 1
 212.436955315 464.679302804 263.797123319 504 350.259437281 504 c 0
 421.445106307 504 490 477.346598385 490 365.954594547 c 0xda
 490 342.652475694 487 316.333333333 481 287 c 2
 419 0 l 1
 334 0 l 1xdc
 393 279 l 2
 399 308.333333333 402 332.635798978 402 352.047719501 c 0xda
EndSplineSet
EndChar

StartChar: o
Encoding: 111 111 55
Width: 547
GlyphClass: 2
Flags: W
HStem: -12 74<163.878 310.479> 430 74<213.418 368.804>
VStem: 27 88<113.95 314.79> 413 89<185.866 385.296>
AnchorPoint: "Anchor-2" 441 10 basechar 0
AnchorPoint: "Anchor-1" 321 496 basechar 0
AnchorPoint: "Anchor-0" 221 0 basechar 0
LayerCount: 2
Fore
SplineSet
115 202.904979013 m 0
 115 150.931115451 130.926326046 62 234.48407713 62 c 0
 362.993632063 62 413 198.94915523 413 298.509325558 c 0
 413 344.985432343 402.102834873 430 294.492687625 430 c 0
 153.162559471 430 115 283.358665326 115 202.904979013 c 0
502 296.974424098 m 0
 502 150.622250647 407.436107775 -12 232.709975643 -12 c 0
 176.215187042 -12 27 5.00125638629 27 200.92792678 c 0
 27 374.919817821 144.674924429 504 297.061659154 504 c 0
 389.180838583 504 502 456.830055572 502 296.974424098 c 0
EndSplineSet
Substitution2: "Single Substitution lookup 12 subtable" ordmasculine
Substitution2: "'aalt' Access All Alternates lookup 0 subtable" ordmasculine
EndChar

StartChar: p
Encoding: 112 112 56
Width: 556
GlyphClass: 1
Flags: W
HStem: -162 21G<-26 64.2353> -12 71<193.933 325.657> 432 72<239.885 376.178> 476 20G<109.745 178.515>
VStem: -26 86<-162 -76> 114 63<463.1 496> 420 90<178.478 384.409>
DStem2: -26 -162 60 -162 0.207912 0.978148<17.8804 278.535>
AnchorPoint: "Anchor-1" 328 496 basechar 0
LayerCount: 2
Fore
SplineSet
310.091024879 432 m 0xee
 197.561738989 432 139 307.053189555 139 209.230171016 c 0
 139 168.490883099 149.156842369 133.034341742 169.470527108 105.103025226 c 0
 191.823509036 74.3676750753 221.925400616 59 259.042519906 59 c 0
 370.925573663 59 420 198.633063791 420 291.495227772 c 0
 420 335.929821279 408.763784632 432 310.091024879 432 c 0xee
271.529408958 -12 m 0
 224.16470487 -12 145.584422019 1.96254829677 114 93 c 1
 60 -162 l 1
 -26 -162 l 1
 114 496 l 1
 177 496 l 1xde
 182 430 l 1
 202.513081588 459.743968303 247.338099737 504 331.032309571 504 c 0
 459.159414259 504 510 400.279723146 510 292.850873633 c 0
 510 168.414633295 441.787736971 -12 271.529408958 -12 c 0
EndSplineSet
EndChar

StartChar: q
Encoding: 113 113 57
Width: 555
GlyphClass: 1
Flags: W
HStem: -174 82<422.859 533.7> -12 72<163.056 295.922> 433 72<212.179 345.718> 476 20G<457.744 530>
VStem: 28 90<106.958 312.624> 328 90<-85.3852 45.7308>
LayerCount: 2
Fore
SplineSet
118 201.040986865 m 0xec
 118 148.74887304 132.199562374 60 227.080085694 60 c 0
 336.27141073 60 396 177.539807877 396 277.462903117 c 0
 396 309.696570954 389.784587555 433 281.573841318 433 c 0
 169.422727026 433 118 300.55317367 118 201.040986865 c 0xec
352 59 m 1
 329.169633406 20.0540805168 274.851919317 -12 206.116885067 -12 c 0
 101.48694231 -12 28 62.2743726236 28 198.906952608 c 0
 28 337.616008599 103.73755335 505 269.83168232 505 c 0xec
 310.729457089 505 387.551877262 494.851433203 428 418 c 1
 468 496 l 1
 530 496 l 1xdc
 528.945107447 491.105298553 429.954932641 19.7870872693 424.800988927 -4.26315458125 c 0
 420.999999615 -22.0000017979 418 -41.1051175908 418 -52.1950686757 c 0
 418 -60.3601575345 419.626236741 -92 469.342983389 -92 c 0
 489.754952826 -92 517 -86.6666666667 551 -76 c 1
 534 -154 l 1
 520.11633127 -163.718568111 483.225873805 -174 446.654548068 -174 c 0
 408.346276542 -174 328 -162.718747791 328 -72.2240716622 c 0
 328 -51.7342559173 332.119038024 -30.7641102603 338.042847649 -5.45328731672 c 0
 342.131942551 12.0182999906 346.666666667 33 352 59 c 1
EndSplineSet
EndChar

StartChar: r
Encoding: 114 114 58
Width: 353
GlyphClass: 2
Flags: W
HStem: 0 21G<8 98.1951> 415 89<272.845 364> 476 20G<108.766 177.72>
VStem: 8 86<0 86> 113 63<462.933 496>
DStem2: 8 0 94 0 0.207912 0.978148<17.8804 359.493>
AnchorPoint: "Anchor-1" 240 496 basechar 0
AnchorPoint: "Anchor-0" 51 0 basechar 0
LayerCount: 2
Fore
SplineSet
184 403 m 1xb8
 225.816576776 462.352560585 276.106340343 504 372 504 c 2
 383 504 l 1
 364 415 l 1xd8
 251.85126468 419.005311976 171.241893858 364.795504672 137 205 c 2
 94 0 l 1
 8 0 l 1
 113 496 l 1
 176 496 l 1
 184 403 l 1xb8
EndSplineSet
EndChar

StartChar: s
Encoding: 115 115 59
Width: 479
GlyphClass: 2
Flags: W
HStem: -12 68<141.295 291.041> 435 69<156.516 316.89>
VStem: 49 85<327.742 413.405> 325 88<87.1822 177.473>
AnchorPoint: "Anchor-1" 260 496 basechar 0
AnchorPoint: "Anchor-0" 207 0 basechar 0
LayerCount: 2
Fore
SplineSet
413 143.119055036 m 0
 413 42.3291380933 326.367669877 -12 208.96395155 -12 c 0
 112.944144324 -12 44.4051832378 24.3404893487 10 113 c 1
 96 142 l 1
 106.758925888 82.8259076187 163.4079177 56 216.566011 56 c 0
 272.365610529 56 325 85.558187424 325 135.478818217 c 0
 325 249.792920615 49 185.229819197 49 358.696884063 c 0
 49 471.064568529 164.813152883 504 233.63494021 504 c 0
 247.946112277 504 395.502648277 502.575829881 431 402 c 1
 351 374 l 1
 337.466380345 414.600858965 282.683967868 435 236.906418798 435 c 0
 221.249494405 435 134 432.613729262 134 370.48035092 c 0
 134 259.372279314 413 323.994324502 413 143.119055036 c 0
EndSplineSet
EndChar

StartChar: t
Encoding: 116 116 60
Width: 324
GlyphClass: 2
Flags: W
HStem: 0 75<153.125 222> 428 68<63 132 232 313>
VStem: 59 92<43.1506 189.18> 173 86<534 620>
DStem2: 40.3049 0 126.204 0 0.207912 0.978148<124.105 437.712 525.017 634.04>
AnchorPoint: "Anchor-1" 213 620 basechar 0
AnchorPoint: "Anchor-0" 109 0 basechar 0
LayerCount: 2
Fore
SplineSet
151 102.853386813 m 0
 151 83.2005132259 160.709054636 75 194 75 c 2
 238 75 l 1
 222 0 l 1
 160 0 l 2
 85.1554913254 0 59 20.90796667 59 65.3932671246 c 0
 59 81.274143299 62.3333333333 104.333333333 69 135 c 2
 132 428 l 1
 49 428 l 1
 63 496 l 1
 146 496 l 1
 173 620 l 1
 259 620 l 1
 232 496 l 1
 327 496 l 1
 313 428 l 1
 218 428 l 1
 160 159 l 2
 153.747061062 130.861774778 151 113.307128024 151 102.853386813 c 0
EndSplineSet
EndChar

StartChar: u
Encoding: 117 117 61
Width: 540
GlyphClass: 2
Flags: W
HStem: -11 73<142.291 270.512> 0 21G<341.286 412.234> 476 20G<106.768 197 423.692 513>
VStem: 40 86<79.0911 263.312> 111 86<410 496> 343 65<0 33.0667> 428 85<411 496>
DStem2: 3.5129 -11 89.0878 -11 0.207912 0.978148<171.308 518.269> 319.499 -11 405.662 -11 0.207912 0.978148<135.154 518.48>
AnchorPoint: "Anchor-2" 408 0 basechar 0
AnchorPoint: "Anchor-1" 308 496 basechar 0
AnchorPoint: "Anchor-0" 217 0 basechar 0
LayerCount: 2
Fore
SplineSet
337 70 m 1x76
 294.445457395 14.1471628311 247.442659862 -11 179.730540268 -11 c 0
 82.7209516812 -11 40 40.6161374222 40 128.870862533 c 0xb6
 40 152.258057413 43 177 49 203 c 2
 111 496 l 1
 197 496 l 1xae
 135 205 l 2
 131.307679107 188.384555982 126 160.558720754 126 136.990891292 c 0
 126 90.0656723912 147.041567949 62 204.783387588 62 c 0xb6
 248.276990353 62 338.005107026 77.9237476702 372 236 c 2
 428 496 l 1
 513 496 l 1
 408 0 l 1
 343 0 l 1
 337 70 l 1x76
EndSplineSet
EndChar

StartChar: v
Encoding: 118 118 62
Width: 444
GlyphClass: 1
Flags: W
HStem: 0 21G<112.097 215.411> 476 20G<43 132.435 378.016 487>
VStem: 43 87<409 496>
DStem2: 130 496 43 496 0.143656 -0.989628<0 388.748> 177 110 204 0 0.495573 0.868566<0 440.328>
LayerCount: 2
Fore
SplineSet
115 0 m 1
 43 496 l 1
 130 496 l 1
 177 110 l 1
 389 496 l 1
 487 496 l 1
 204 0 l 1
 115 0 l 1
EndSplineSet
EndChar

StartChar: w
Encoding: 119 119 63
Width: 658
GlyphClass: 1
Flags: W
HStem: 0 21G<78.5081 163.65 368.85 462.04> 476 20G<43 130.95 309.391 410.093 595.383 701>
VStem: 43 87<402.162 496>
DStem2: 147 138 154 0 0.43456 0.900643<0 322.88> 409 496 347 400 0.0574052 -0.998351<92.2826 366.545> 429 130 452 0 0.448654 0.893705<0 406.059>
AnchorPoint: "Anchor-1" 360 496 basechar 0
LayerCount: 2
Fore
SplineSet
80 0 m 1
 43 496 l 1
 130 496 l 1
 147 138 l 1
 319 496 l 1
 409 496 l 1
 429 130 l 1
 605 496 l 1
 701 496 l 1
 452 0 l 1
 370 0 l 1
 347 400 l 1
 154 0 l 1
 80 0 l 1
EndSplineSet
EndChar

StartChar: x
Encoding: 120 120 64
Width: 462
GlyphClass: 1
Flags: W
HStem: 0 21G<-63 64.4865 299.054 399> 476 20G<61 161.058 377.404 505>
VStem: -63 109<0 109> 396 109<387 496>
DStem2: -63 0 46 0 0.679201 0.733952<74.033 325.958 442.295 675.794> 151 496 61 496 0.447214 -0.894427<0 191.407 307.683 514.296>
LayerCount: 2
Fore
SplineSet
-63 0 m 1
 179 262 l 1
 61 496 l 1
 151 496 l 1
 237 325 l 1
 396 496 l 1
 505 496 l 1
 275 248 l 1
 399 0 l 1
 309 0 l 1
 217 185 l 1
 46 0 l 1
 -63 0 l 1
EndSplineSet
EndChar

StartChar: y
Encoding: 121 121 65
Width: 435
GlyphClass: 2
Flags: W
HStem: -161 75<-46 75.8167> 476 20G<43 134.073 367.326 478>
VStem: 43 89<407 496>
DStem2: 172 110 191 -21 0.485356 0.874317<0 437.47>
AnchorPoint: "Anchor-1" 266 496 basechar 0
AnchorPoint: "Anchor-0" 165 0 basechar 0
LayerCount: 2
Fore
SplineSet
-62 -161 m 1
 -46 -86 l 1
 -12 -86 l 2
 67.3202420678 -86 79.6595759649 -74.6997605166 116 0 c 1
 43 496 l 1
 132 496 l 1
 172 110 l 1
 378 496 l 1
 478 496 l 1
 191 -21 l 1
 123.739903592 -144.75857739 100.517379261 -161 -19 -161 c 2
 -62 -161 l 1
EndSplineSet
EndChar

StartChar: z
Encoding: 122 122 66
Width: 467
GlyphClass: 2
Flags: W
HStem: 0 73<101 375> 424 73<99 355>
DStem2: -6 73 101 73 0.716967 0.697107<76.7155 503.51>
AnchorPoint: "Anchor-1" 289 496 basechar 0
AnchorPoint: "Anchor-0" 181 0 basechar 0
LayerCount: 2
Fore
SplineSet
-21 0 m 1
 -6 73 l 1
 355 424 l 1
 83 424 l 1
 99 497 l 1
 476 497 l 1
 460 424 l 1
 101 73 l 1
 390 73 l 1
 375 0 l 1
 -21 0 l 1
EndSplineSet
EndChar

StartChar: circumflex
Encoding: 258 710 67
Width: 429
GlyphClass: 1
Flags: W
HStem: 575 120<345 347.422>
VStem: 114 96<575 671>
DStem2: 114 575 210 575 0.796393 0.60478<76.4537 177.057>
LayerCount: 2
Fore
SplineSet
114 575 m 1
 247 676 l 2
 263 688.666666667 280.666666667 695 300 695 c 0
 319.333333333 695 334.666666667 688.666666667 346 676 c 2
 437 575 l 1
 345 575 l 1
 290 636 l 1
 210 575 l 1
 114 575 l 1
EndSplineSet
EndChar

StartChar: caron
Encoding: 259 711 68
Width: 429
GlyphClass: 1
Flags: W
HStem: 562 120<225.578 227>
VStem: 362 97<585 682>
DStem2: 281 621 326 581 0.796393 0.60478<0 101.399>
LayerCount: 2
Fore
SplineSet
272 562 m 0
 252.666666667 562 237.666666667 568.333333333 227 581 c 2
 136 682 l 1
 227 682 l 1
 281 621 l 1
 362 682 l 1
 459 682 l 1
 326 581 l 2
 309.333333333 568.333333333 291.333333333 562 272 562 c 0
EndSplineSet
EndChar

StartChar: breve
Encoding: 260 728 69
Width: 400
GlyphClass: 1
Flags: W
HStem: 562 67<219.77 332.436>
VStem: 136 69<645.431 682>
LayerCount: 2
Fore
SplineSet
430 682 m 1
 418.791829507 654.913587976 372.582925133 562 266.478055041 562 c 0
 173.232460307 562 136 633.757159993 136 682 c 1
 205 682 l 1
 208.197094637 666.813800474 221.417394818 629 271.308816152 629 c 0
 289.866892349 629 329.950774527 634.231960811 361 682 c 1
 430 682 l 1
EndSplineSet
EndChar

StartChar: dotaccent
Encoding: 261 729 70
Width: 216
GlyphClass: 1
Flags: W
HStem: 583 108<138.87 225.585>
VStem: 128 108<593.762 680.478>
LayerCount: 2
Fore
SplineSet
236 637.438180574 m 0
 236 607.192111466 212.761367938 583 182.548717182 583 c 0
 152.535879007 583 128 606.8731786 128 637.368374261 c 0
 128 667.462489785 151.894719712 691 182.514990611 691 c 0
 213.160830537 691 236 667.423164039 236 637.438180574 c 0
EndSplineSet
EndChar

StartChar: ring
Encoding: 262 730 71
Width: 329
GlyphClass: 1
Flags: W
HStem: 552 58<200.511 285.428> 712 58<200.591 285.424>
VStem: 134 57<619.64 702.565> 295 57<620.332 702.753>
LayerCount: 2
Fore
SplineSet
191 660.968501885 m 0
 191 632.700616942 213.402428243 610 242.995826045 610 c 0
 272.64273894 610 295 632.782792302 295 661.025537713 c 0
 295 689.258122524 272.658822526 712 243.030740776 712 c 0
 213.378794635 712 191 689.221472185 191 660.968501885 c 0
352 660.832908815 m 0
 352 601.55468387 306.729517474 552 244.716219523 552 c 0
 181.324569051 552 134 603.782041902 134 661.188247349 c 0
 134 718.870822929 181.781334331 770 244.649916236 770 c 0
 306.766235114 770 352 720.087089417 352 660.832908815 c 0
EndSplineSet
EndChar

StartChar: ogonek
Encoding: 263 731 72
Width: 270
GlyphClass: 1
Flags: W
HStem: -173 57<49.1228 121.098> -20 20G<43.6376 155>
VStem: -30 77<-112.977 -51.1456>
LayerCount: 2
Fore
SplineSet
47 -86.0298336383 m 0
 47 -105.695685203 63.8147078725 -116 88.1654442475 -116 c 0
 101.304470106 -116 116 -113 132 -107 c 1
 121 -161 l 1
 95 -169 71.8890204749 -173 52.4859960668 -173 c 0
 0.157814743826 -173 -30 -143.906738314 -30 -105.579963686 c 0
 -30 -60.7418402183 11.2752944613 -18.8780391155 76 0 c 1
 155 0 l 1
 129.231687632 -9.32045340961 47 -42.5400051215 47 -86.0298336383 c 0
EndSplineSet
EndChar

StartChar: quoteleft
Encoding: 264 8216 73
Width: 238
GlyphClass: 1
Flags: W
HStem: 418 250
VStem: 95 129<434.952 531.046> 196 61<607 668>
DStem2: 105 517 181 543 0.516163 0.85649<61.4971 176.301>
LayerCount: 2
Fore
SplineSet
224 483.744757533 m 0xc0
 224 444.121765029 196.412642392 418 160.479855433 418 c 0
 120.731514003 418 95 449.963824451 95 482.910102945 c 0xc0
 95 494.768147224 98.3333333333 506.333333333 105 517 c 2
 196 668 l 1
 257 668 l 1xa0
 181 543 l 1
 209.666666667 532.333333333 224 512.305258467 224 483.744757533 c 0xc0
EndSplineSet
EndChar

StartChar: quoteright
Encoding: 265 8217 74
Width: 238
GlyphClass: 1
Flags: W
HStem: 429 251
VStem: 91 61<429 490> 123 130<567.531 663.123>
DStem2: 91 429 152 429 0.510955 0.859607<31.1683 146.632>
LayerCount: 2
Fore
SplineSet
189.496103896 680 m 0xa0
 228.728100683 680 253 647.571908086 253 618.701294803 c 0xa0
 253 605.168001556 247.666666667 589.333333333 237 572 c 2
 152 429 l 1
 91 429 l 1xc0
 166 555 l 1
 157.287571524 558.20984207 123 573.52310708 123 613.833632518 c 0
 123 651.266118649 152.56631183 680 189.496103896 680 c 0xa0
EndSplineSet
EndChar

StartChar: quotesinglbase
Encoding: 266 8218 75
Width: 239
GlyphClass: 1
Flags: W
HStem: -133 251
VStem: -28 61<-133 -72> 4 130<7.10938 101.944>
DStem2: -28 -133 33 -133 0.513637 0.858008<31.3319 145.961>
LayerCount: 2
Fore
SplineSet
68.5054089885 118 m 0xa0
 106.599496441 118 134 87.6956267374 134 55.1436832739 c 0xa0
 134 46.5275070994 132.0802979 31.7284766407 121 14 c 2
 33 -133 l 1
 -28 -133 l 1xc0
 47 -8 l 1
 35.1423695273 -2.72994201215 4 14.7477827391 4 52.0832145274 c 0
 4 85.6207605236 29.128806349 118 68.5054089885 118 c 0xa0
EndSplineSet
EndChar

StartChar: quotedblleft
Encoding: 267 8220 76
Width: 395
GlyphClass: 1
Flags: W
HStem: 418 250
VStem: 95 129<434.952 531.046> 196 61<607 668> 252 129<434.952 531.046> 353 61<607 668>
DStem2: 105 517 181 543 0.516163 0.85649<61.4971 176.301> 262 517 338 543 0.516163 0.85649<61.4971 176.301>
LayerCount: 2
Fore
SplineSet
381 483.744757533 m 0x90
 381 444.121765029 353.412642392 418 317.479855433 418 c 0
 277.731514003 418 252 449.963824451 252 482.910102945 c 0x90
 252 494.768147224 255.333333333 506.333333333 262 517 c 2
 353 668 l 1
 414 668 l 1x88
 338 543 l 1
 366.666666667 532.333333333 381 512.305258467 381 483.744757533 c 0x90
224 483.744757533 m 0xc0
 224 444.121765029 196.412642392 418 160.479855433 418 c 0
 120.731514003 418 95 449.963824451 95 482.910102945 c 0xc0
 95 494.768147224 98.3333333333 506.333333333 105 517 c 2
 196 668 l 1
 257 668 l 1xa0
 181 543 l 1
 209.666666667 532.333333333 224 512.305258467 224 483.744757533 c 0xc0
EndSplineSet
EndChar

StartChar: quotedblright
Encoding: 268 8221 77
Width: 394
GlyphClass: 1
Flags: W
HStem: 429 250
VStem: 89 61<429 490> 122 129<565.925 662.197> 246 61<429 490> 279 129<565.925 662.197>
DStem2: 89 429 150 429 0.516163 0.85649<31.4859 146.29> 246 429 307 429 0.516163 0.85649<31.4859 146.29>
LayerCount: 2
Fore
SplineSet
185.909626735 679 m 0xa0
 225.216238916 679 251 647.047557784 251 614.082298837 c 0xa0
 251 602.229450429 247.666666667 590.666666667 241 580 c 2
 150 429 l 1
 89 429 l 1xc0
 165 554 l 1
 136.333333333 564.666666667 122 584.617021313 122 612.708899569 c 0
 122 651.651977199 149.545216258 679 185.909626735 679 c 0xa0
342.909626735 679 m 0
 382.216238916 679 408 647.047557784 408 614.082298837 c 0x88
 408 602.229450429 404.666666667 590.666666667 398 580 c 2
 307 429 l 1
 246 429 l 1x90
 322 554 l 1
 293.333333333 564.666666667 279 584.617021313 279 612.708899569 c 0x88
 279 651.651977199 306.545216258 679 342.909626735 679 c 0
EndSplineSet
EndChar

StartChar: dagger
Encoding: 270 8224 79
Width: 541
GlyphClass: 1
Flags: W
HStem: 0 21G<168 254.221> 417 79<84 257 355 527> 648 20G<306.698 391>
VStem: 168 82<0 82> 311 80<588 668>
DStem2: 168 0 250 0 0.207912 0.978148<17.0488 426.392 524.041 683.134>
LayerCount: 2
Fore
SplineSet
168 0 m 1
 257 417 l 1
 67 417 l 1
 84 496 l 1
 274 496 l 1
 311 668 l 1
 391 668 l 1
 355 496 l 1
 544 496 l 1
 527 417 l 1
 338 417 l 1
 250 0 l 1
 168 0 l 1
EndSplineSet
EndChar

StartChar: daggerdbl
Encoding: 271 8225 80
Width: 541
GlyphClass: 1
Flags: W
HStem: 0 21G<168 254.162> 173 79<32 205 303 475> 417 79<84 257 354 527> 648 20G<306.698 391>
VStem: 168 82<0 82> 311 80<588 668>
DStem2: 168 0 250 0 0.207912 0.978148<17.0488 176.912 274.561 426.392 523.833 683.134>
LayerCount: 2
Fore
SplineSet
168 0 m 1
 205 173 l 1
 15 173 l 1
 32 252 l 1
 222 252 l 1
 257 417 l 1
 67 417 l 1
 84 496 l 1
 274 496 l 1
 311 668 l 1
 391 668 l 1
 354 496 l 1
 544 496 l 1
 527 417 l 1
 337 417 l 1
 303 252 l 1
 492 252 l 1
 475 173 l 1
 286 173 l 1
 250 0 l 1
 168 0 l 1
EndSplineSet
EndChar

StartChar: bullet
Encoding: 272 8226 81
Width: 446
GlyphClass: 1
Flags: W
HStem: 88 332<134.938 295.387>
VStem: 49 332<173.018 333.57>
LayerCount: 2
Fore
SplineSet
381 254.805152921 m 0
 381 165.474002727 309.510253539 88 215.021909242 88 c 0
 121.190410728 88 49 164.400609092 49 254.085677802 c 0
 49 343.923384186 121.436345828 420 214.558952056 420 c 0
 306.344035745 420 381 346.093070868 381 254.805152921 c 0
EndSplineSet
EndChar

StartChar: ellipsis
Encoding: 273 8230 82
Width: 699
GlyphClass: 1
Flags: W
HStem: -12 129<20.8518 116.276 251.397 347.281 481.852 577.276>
VStem: 4 129<4.72814 100.146> 235 129<4.72382 100.14> 465 129<4.7282 100.155>
LayerCount: 2
Fore
SplineSet
364 52.4288020223 m 0
 364 16.8068777972 335.352537845 -12 299.07839252 -12 c 0
 262.976741441 -12 235 16.5335588242 235 52.4787530447 c 0
 235 88.1915545146 262.616160562 117 299.039716035 117 c 0
 335.681193122 117 364 87.8458022456 364 52.4288020223 c 0
133 52.4498288896 m 0
 133 16.8130399843 104.195108473 -12 68.5629705558 -12 c 0
 33.132894687 -12 4 16.4871816716 4 52.3818431794 c 0
 4 87.8768561699 32.4877791192 117 68.510018339 117 c 0
 104.53166343 117 133 87.8778168401 133 52.4498288896 c 0
594 52.4457898043 m 0
 594 16.8143934274 565.19524446 -12 529.562621115 -12 c 0
 494.132894687 -12 465 16.4871816716 465 52.5119529293 c 0
 465 88.5284950493 494.119586555 117 529.6135829 117 c 0
 565.507257556 117 594 87.8836811097 594 52.4457898043 c 0
EndSplineSet
EndChar

StartChar: perthousand
Encoding: 274 8240 83
Width: 1406
GlyphClass: 1
Flags: W
HStem: -12 74<690.584 819.035 1091.58 1220.04> 0 21G<234 336.012> 277 74<692.161 818.776 1093.16 1219.78> 316 75<204.414 331.565> 605 75<204.104 331.247> 648 20G<687.988 790>
VStem: 86 74<434.422 561.187> 234 88<0 88> 375 74<435.08 561.36> 574 74<105.197 233.199> 702 88<580 668> 863 74<105.907 233.49> 975 74<105.197 233.199> 1264 74<105.907 233.49>
DStem2: 234 0 322 0 0.573791 0.819001<50.4936 815.627>
LayerCount: 2
Fore
SplineSet
1049 169.449392344 m 0xa3fc
 1049 109.586911327 1096.57800151 62 1156.43726104 62 c 0
 1216.08551116 62 1264 109.252006166 1264 169.382000121 c 0
 1264 229.095219395 1216.74742173 277 1156.48928524 277 c 0
 1096.22911489 277 1049 229.091985529 1049 169.449392344 c 0xa3fc
648 169.449392347 m 0
 648 109.586911335 695.578001508 62 755.437261041 62 c 0
 815.085511166 62 863 109.252006165 863 169.382000122 c 0
 863 229.095219398 815.747421729 277 755.489285242 277 c 0
 695.229114891 277 648 229.091985529 648 169.449392347 c 0
1338 169.926314319 m 0
 1338 68.6023735884 1256.86829622 -12 1156.95037149 -12 c 0
 1058.89796207 -12 975 65.6207009843 975 169.123398182 c 0
 975 271.65645784 1057.3333737 351 1156.51252898 351 c 0
 1255.35846983 351 1338 272.188706785 1338 169.926314319 c 0
937 169.926314314 m 0
 937 68.6023735815 855.868296221 -12 755.950371487 -12 c 0
 657.897962064 -12 574 65.6207009821 574 169.12339818 c 0
 574 271.656457841 656.333373706 351 755.512528978 351 c 0
 854.358469821 351 937 272.188706783 937 169.926314314 c 0
160 498.019861059 m 0
 160 438.765984179 208.692395691 391 267.989032918 391 c 0
 327.266101858 391 375 438.734463192 375 498.000107136 c 0
 375 557.266101858 327.265536808 605 267.987035257 605 c 0x1bfc
 208.725953959 605 160 557.294152984 160 498.019861059 c 0
234 0 m 1x47fc
 702 668 l 1
 790 668 l 1
 322 0 l 1
 234 0 l 1x47fc
449 498.331179109 m 0
 449 399.164029625 370.093682244 316 267.900301376 316 c 0
 167.306269632 316 86 396.58132785 86 497.703328344 c 0
 86 598.087025738 166.123351322 680 267.56286301 680 c 0x1bfc
 368.906742318 680 449 598.241400299 449 498.331179109 c 0
EndSplineSet
EndChar

StartChar: guilsinglleft
Encoding: 275 8249 84
Width: 355
GlyphClass: 1
Flags: W
VStem: 217 104<357 461>
DStem2: 45 250 140 240 0.633619 0.773645<52.4573 272.222> 140 240 45 250 0.44036 -0.897821<0 183.087>
LayerCount: 2
Fore
SplineSet
148 40 m 1
 45 250 l 1
 217 461 l 1
 321 461 l 1
 140 240 l 1
 237 40 l 1
 148 40 l 1
EndSplineSet
EndChar

StartChar: guilsinglright
Encoding: 276 8250 85
Width: 347
GlyphClass: 1
Flags: W
VStem: 9 104<40 144>
DStem2: 9 40 113 40 0.633619 0.773645<65.8964 285.661> 182 461 93 461 0.44036 -0.897821<0 183.087>
LayerCount: 2
Fore
SplineSet
9 40 m 1
 190 261 l 1
 93 461 l 1
 182 461 l 1
 285 251 l 1
 113 40 l 1
 9 40 l 1
EndSplineSet
EndChar

StartChar: fraction
Encoding: 277 8260 86
Width: 444
GlyphClass: 1
Flags: W
HStem: 0 21G<-47 55.012> 648 20G<406.988 509>
VStem: -47 88<0 88> 421 88<580 668>
DStem2: -47 0 41 0 0.573791 0.819001<50.4936 815.627>
LayerCount: 2
Fore
SplineSet
-47 0 m 1
 421 668 l 1
 509 668 l 1
 41 0 l 1
 -47 0 l 1
EndSplineSet
EndChar

StartChar: ordfeminine
Encoding: 170 170 87
Width: 363
GlyphClass: 1
Flags: W
HStem: 396 51<146.976 231.215> 643 48<175.274 270.028>
VStem: 72 73<449.202 508.525> 255 59<403 441> 275 67<538.43 637.771>
LayerCount: 2
Fore
SplineSet
184.209005392 447 m 0xe0
 229.721713346 447 248.028335933 478.227717758 259 518 c 2
 262 529 l 1
 239 526 l 1
 167.286497372 518.176708804 145 503.968914854 145 477.536489774 c 0
 145 456.959244091 158.506483255 447 184.209005392 447 c 0xe0
252 441 m 1
 236.395699166 416.216698675 208.332359482 396 162.159877445 396 c 0
 110.371194278 396 72 421.433933576 72 470.576309234 c 0
 72 540.36716061 149.39092085 562.85279856 272 577 c 1
 274 585 275 592.316346531 275 599.216205475 c 0
 275 620.655333201 265.345410821 643 225.590836409 643 c 0
 196.745485452 643 176.953942152 631.236100098 165 606 c 1
 108 624 l 1
 130 668.666666667 171.216435466 691 230.570636529 691 c 0
 271.153361448 691 342 680.559217963 342 612.367418996 c 0xe8
 342 569.497610962 314 497.534912311 314 403 c 1
 255 403 l 1xf0
 252 441 l 1
EndSplineSet
EndChar

StartChar: guillemotleft
Encoding: 171 171 88
Width: 563
GlyphClass: 1
Flags: W
VStem: 217 104<357 461> 425 104<357 461>
DStem2: 45 250 140 240 0.633619 0.773645<52.4573 272.222> 140 240 45 250 0.44036 -0.897821<0 183.087> 253 250 348 240 0.633619 0.773645<52.4573 272.222> 348 240 253 250 0.44036 -0.897821<0 183.087>
LayerCount: 2
Fore
SplineSet
148 40 m 1
 45 250 l 1
 217 461 l 1
 321 461 l 1
 140 240 l 1
 237 40 l 1
 148 40 l 1
356 40 m 1
 253 250 l 1
 425 461 l 1
 529 461 l 1
 348 240 l 1
 445 40 l 1
 356 40 l 1
EndSplineSet
EndChar

StartChar: logicalnot
Encoding: 172 172 89
Width: 667
GlyphClass: 1
Flags: W
HStem: 317 79<75 490>
VStem: 490 81<90 317>
LayerCount: 2
Fore
SplineSet
490 90 m 1
 490 317 l 1
 75 317 l 1
 75 396 l 1
 571 396 l 1
 571 90 l 1
 490 90 l 1
EndSplineSet
EndChar

StartChar: registered
Encoding: 174 174 90
Width: 814
GlyphClass: 1
Flags: W
HStem: -12 61<311.386 520.663> 301 58<357 399> 469 61<357 477.223> 619 61<311.948 519.758>
VStem: 70 62<227.891 440.857> 281 76<162 301 359 469> 491 76<371.392 454.636> 501 86<162 248> 700 62<224.001 437.061>
DStem2: 479 311 399 301 0.586879 -0.809675<0 133.553>
LayerCount: 2
Fore
SplineSet
491 413.30509822 m 0xfe80
 491 456.546972482 456.784002832 469 405 469 c 2
 357 469 l 1
 357 359 l 1
 410 359 l 2
 475.656385276 359 491 384.348085866 491 413.30509822 c 0xfe80
567 418.272122579 m 0
 567 364.009823324 542.004671666 329.23819443 479 311 c 1
 587 162 l 1
 501 162 l 1xfd80
 399 301 l 1
 357 301 l 1
 357 162 l 1
 281 162 l 1
 281 530 l 1
 393 530 l 2
 491.995557607 530 567 512.268748068 567 418.272122579 c 0
132 334.261567225 m 0
 132 181.241925261 253.811765627 49 415.859443631 49 c 0
 576.752053843 49 700 179.363416431 700 333.106747803 c 0
 700 487.96518007 574.957734724 619 416.67734246 619 c 0
 260.50177834 619 132 491.427035667 132 334.261567225 c 0
762 334.614572123 m 0
 762 144.999656047 608.873639884 -12 416.17243491 -12 c 0
 224.824471445 -12 70 142.802342771 70 333.212885791 c 0
 70 521.236677 220.967420141 680 415.115503187 680 c 0
 606.530917889 680 762 525.674467582 762 334.614572123 c 0
EndSplineSet
EndChar

StartChar: macron
Encoding: 175 175 91
Width: 382
GlyphClass: 1
Flags: W
HStem: 601 67<133 395>
VStem: 119 290
LayerCount: 2
Fore
SplineSet
119 601 m 1
 133 668 l 1
 409 668 l 1
 395 601 l 1
 119 601 l 1
EndSplineSet
EndChar

StartChar: degree
Encoding: 176 176 92
Width: 358
GlyphClass: 1
Flags: W
HStem: 408 63<172.459 274.418> 617 63<170.865 275.853>
VStem: 87 63<493.23 595.096> 296 63<492.353 595.433>
LayerCount: 2
Fore
SplineSet
150 544.45047693 m 0
 150 503.459814557 182.432652179 471 223.428088055 471 c 0
 264.211567359 471 296 503.125031671 296 544.517420252 c 0
 296 585.926157352 264.186451802 617 223.373847715 617 c 0
 182.111669687 617 150 585.23779483 150 544.45047693 c 0
359 544.79494352 m 0
 359 471.426891748 299.98487238 408 223.420543974 408 c 0
 148.511186383 408 87 468.714527521 87 544.102152063 c 0
 87 619.736658172 148.914723276 680 223.049286661 680 c 0
 297.039059696 680 359 619.971825929 359 544.79494352 c 0
EndSplineSet
EndChar

StartChar: plusminus
Encoding: 177 177 93
Width: 653
GlyphClass: 1
Flags: W
HStem: 0 79<65 538> 270 79<65 262 341 538> 476 20G<262 341>
VStem: 262 79<124 270 349 496>
LayerCount: 2
Fore
SplineSet
65 0 m 1
 65 79 l 1
 538 79 l 1
 538 0 l 1
 65 0 l 1
262 124 m 1
 262 270 l 1
 65 270 l 1
 65 349 l 1
 262 349 l 1
 262 496 l 1
 341 496 l 1
 341 349 l 1
 538 349 l 1
 538 270 l 1
 341 270 l 1
 341 124 l 1
 262 124 l 1
EndSplineSet
EndChar

StartChar: uni00B2
Encoding: 178 178 94
Width: 384
GlyphClass: 1
Flags: W
HStem: 403 58<168 335> 676 21G<119 188.434> 736 50<203.124 302.016>
VStem: 312 70<618.064 727.676>
LayerCount: 2
Fore
SplineSet
382 691.647175006 m 0
 382 647.658578116 357.570036338 554.864775274 168 461 c 1
 347 461 l 1
 335 403 l 1
 59 403 l 1
 71 457 l 1
 222.736340999 540.939252467 312 607.250370551 312 678.507905855 c 0
 312 689.763903405 309.772687925 736 258.910712413 736 c 0
 242.002344638 736 197.868529777 730.890268443 179 676 c 1
 119 695 l 1
 126.20144765 712.791811841 157.616183407 786 255.567124554 786 c 0
 281.470365209 786 382 780.880227858 382 691.647175006 c 0
EndSplineSet
EndChar

StartChar: uni00B3
Encoding: 179 179 95
Width: 394
GlyphClass: 1
Flags: W
HStem: 396 51<170.039 280.514> 483 20G<87 154.669> 572 54<205 286.412> 736 50<200.147 307.331>
VStem: 87 64<468.183 487.859> 298 69<464.911 558.002> 317 68<642.634 725.59>
LayerCount: 2
Fore
SplineSet
367 517.898999179 m 0xfc
 367 438.996263432 297.259916321 396 223.29077666 396 c 0
 190.606197726 396 114.201701018 404.394896945 87 486 c 1
 151 503 l 1
 158.338603531 477.839073607 176.991152103 447 224.368588468 447 c 0
 264.194628784 447 298 468.791768052 298 519.671208395 c 0xfc
 298 528.007132704 297.092579507 572 217 572 c 2
 194 572 l 1
 205 626 l 1
 221 626 l 1
 300.727745749 630.429319208 317 651.638483261 317 681.992221653 c 0
 317 700.217711951 311.133463343 736 256.153681112 736 c 0
 221.149016765 736 196.583854712 721.495127618 178 683 c 1
 120 701 l 1
 128.394513291 718.588504038 162.125989454 786 259.0510893 786 c 0
 288.861876661 786 385 779.623118535 385 692.785629363 c 0
 385 659.762101614 371.096374707 622.683907976 317 602 c 1xfa
 335.792696747 593.274819367 367 570.680161526 367 517.898999179 c 0xfc
EndSplineSet
EndChar

StartChar: acute
Encoding: 180 180 96
Width: 271
GlyphClass: 1
Flags: W
HStem: 572 135
VStem: 113 184
LayerCount: 2
Fore
SplineSet
259.35052479 707 m 0
 281.828299669 707 297 690.338708769 297 648.855456155 c 0
 297 648.855456155 297 645.333333333 187 572 c 1
 113 572 l 1
 114.177661344 573.291628571 211.664061556 679.220051298 232.859427179 696.882855983 c 0
 241.390026915 703.991689096 249.799271805 707 259.35052479 707 c 0
EndSplineSet
EndChar

StartChar: uni03BC
Encoding: 278 956 97
Width: 543
GlyphClass: 1
Flags: W
HStem: -162 21G<-26 66.1748> -12 69<152.652 281.481> 0 21G<344.529 415.283> 475 20G<109.738 202 426.769 517>
VStem: -26 88<-162 -74> 114 88<407 495> 346 65<0 32.6887> 431 86<409 495>
DStem2: -26 -162 62 -162 0.207912 0.978148<18.2962 228.735 289.043 671.751> 291.615 -162 376.566 -162 0.207912 0.978148<277.701 671.623>
LayerCount: 2
Fore
SplineSet
203.286595651 -12 m 0xdf
 156.193329075 -12 122.318001602 6.69968885749 105 44 c 1
 62 -162 l 1
 -26 -162 l 1
 114 495 l 1
 202 495 l 1
 138 196 l 2
 124.253954928 127.269774639 125.974185588 57 220.030394742 57 c 0xdf
 273.942467784 57 342.804336404 80.0869032185 376 235 c 2
 431 495 l 1
 517 495 l 1
 411 0 l 1
 346 0 l 1xbf
 341 68 l 1
 312.679811722 29.1908531005 273.180937381 -12 203.286595651 -12 c 0xdf
EndSplineSet
EndChar

StartChar: paragraph
Encoding: 182 182 98
Width: 522
GlyphClass: 1
Flags: W
HStem: -162 21G<91 178.252 268 355.226> 600 68<336 429 512 553>
VStem: 91 83<-162 -79> 268 83<-162 -79>
DStem2: 91 -162 174 -162 0.207912 0.978148<17.2567 467.709> 268 -162 351 -162 0.207912 0.978148<17.2567 778.822>
LayerCount: 2
Fore
SplineSet
74 439.708615925 m 0
 74 555.983908157 186.365265675 668 308 668 c 2
 568 668 l 1
 553 600 l 1
 512 600 l 1
 351 -162 l 1
 268 -162 l 1
 429 600 l 1
 336 600 l 1
 174 -162 l 1
 91 -162 l 1
 188 294 l 1
 118.770756635 309.975979238 74 366.313254192 74 439.708615925 c 0
EndSplineSet
EndChar

StartChar: periodcentered
Encoding: 183 183 99
Width: 235
GlyphClass: 1
Flags: W
HStem: 183 129<69.6108 165.146>
VStem: 53 129<199.839 295.149>
LayerCount: 2
Fore
SplineSet
182 247.554290333 m 0
 182 211.793943632 153.195499089 183 117.439079454 183 c 0
 81.4812567796 183 53 212.119229004 53 247.486255376 c 0
 53 282.855022365 81.4840603069 312 117.383702351 312 c 0
 152.876258142 312 182 283.512257359 182 247.554290333 c 0
EndSplineSet
EndChar

StartChar: cedilla
Encoding: 184 184 100
Width: 294
GlyphClass: 1
Flags: W
HStem: -181 41<-11.0968 105.556> -82 39<59.5199 112.722>
VStem: 113 63<-131.492 -83.3846>
DStem2: 30 -57 87 -45 0.638336 0.769758<45.6222 106.527>
LayerCount: 2
Fore
SplineSet
176 -96.331959022 m 0
 176 -135.18198519 136.334230088 -181 65.4470583011 -181 c 0
 39.794827394 -181 9.33333333333 -175 -24 -163 c 1
 -1 -126 l 1
 25.7367640953 -137.009255804 42.6256638797 -140 56.3251327451 -140 c 0
 91.827617387 -140 113 -119.91419206 113 -102.648183522 c 0
 113 -86.7311483299 95.0067263903 -82 75.6340104269 -82 c 0
 55.7184637994 -82 54.7573378151 -87 42.8557056601 -87 c 0
 30.9399600836 -87 25 -81.9881345772 25 -71.9644037317 c 0
 25 -66.6548012439 26.6666666667 -61.6666666667 30 -57 c 2
 98 25 l 1
 128 4 l 1
 87 -45 l 1
 96.3244844212 -43.667930797 103.091977068 -43 110.40204584 -43 c 0
 155.45758256 -43 176 -68.3737629302 176 -96.331959022 c 0
EndSplineSet
EndChar

StartChar: uni00B9
Encoding: 185 185 101
Width: 257
GlyphClass: 1
Flags: W
HStem: 682 48<126 198.008>
VStem: 139 69<403 472>
DStem2: 139 403 208 403 0.207912 0.978148<14.3459 285.378>
LayerCount: 2
Fore
SplineSet
126 730 m 1
 179.695930582 730 212.630546907 742.261093813 231 779 c 1
 288 779 l 1
 208 403 l 1
 139 403 l 1
 199 682 l 1
 116 682 l 1
 126 730 l 1
EndSplineSet
EndChar

StartChar: ordmasculine
Encoding: 186 186 102
Width: 383
GlyphClass: 1
Flags: W
HStem: 399 53<171.921 264.516> 639 53<186.467 279.24>
VStem: 87 69<466.873 607.03> 295 69<483.738 623.596>
LayerCount: 2
Fore
SplineSet
156 533.434389719 m 0
 156 507.443657036 161.966937846 452 214.727664339 452 c 0
 262.457618629 452 295 497.374554222 295 557.328040522 c 0
 295 581.213813201 289.834658554 639 236.423351787 639 c 0
 190.135063893 639 156 595.598987141 156 533.434389719 c 0
364 562.990205549 m 0
 364 453.179336733 286.089002762 399 211.190439527 399 c 0
 178.47466432 399 87 409.337157691 87 527.639181848 c 0
 87 635.396665464 162.894683742 692 240.018035754 692 c 0
 274.56644782 692 364 680.641358198 364 562.990205549 c 0
EndSplineSet
EndChar

StartChar: guillemotright
Encoding: 187 187 103
Width: 555
GlyphClass: 1
Flags: W
VStem: 9 104<40 144> 217 104<40 144>
DStem2: 9 40 113 40 0.633619 0.773645<65.8964 285.661> 182 461 93 461 0.44036 -0.897821<0 183.087> 217 40 321 40 0.633619 0.773645<65.8964 285.661> 390 461 301 461 0.44036 -0.897821<0 183.087>
LayerCount: 2
Fore
SplineSet
9 40 m 1
 190 261 l 1
 93 461 l 1
 182 461 l 1
 285 251 l 1
 113 40 l 1
 9 40 l 1
217 40 m 1
 398 261 l 1
 301 461 l 1
 390 461 l 1
 493 251 l 1
 321 40 l 1
 217 40 l 1
EndSplineSet
EndChar

StartChar: onequarter
Encoding: 188 188 104
Width: 824
GlyphClass: 1
Flags: W
HStem: 0 21G<100 202.012 574 648.186> 86 57<492 592 674 727> 571 47<122 194.008> 647 21G<217.815 284 553.988 656>
VStem: 100 88<0 88> 136 68<292 360> 568 88<580 668> 574 70<0 70>
DStem2: 73.9335 0 141.933 0 0.207912 0.978148<312.661 583.693 637.619 684.249> 100 0 188 0 0.573791 0.819001<50.4936 815.627> 411 140 492 143 0.708606 0.705604<59.5139 264.571> 574 0 644 0 0.207912 0.978148<14.5538 87.8631 160.666 295.575>
LayerCount: 2
Fore
SplineSet
492 143 m 1xf0
 604 143 l 1
 636 289 l 1
 492 143 l 1xf0
574 0 m 1xf1
 592 86 l 1
 399 86 l 1
 411 140 l 1
 647 375 l 1
 724 375 l 1
 674 143 l 1
 739 143 l 1
 727 86 l 1
 662 86 l 1
 644 0 l 1
 574 0 l 1xf1
122 618 m 1
 175.695930582 618 208.630546907 630.261093813 227 667 c 1
 284 667 l 1
 204 292 l 1
 136 292 l 1xf4
 195 571 l 1
 112 571 l 1
 122 618 l 1
100 0 m 1xfa
 568 668 l 1
 656 668 l 1
 188 0 l 1
 100 0 l 1xfa
EndSplineSet
Ligature2: "'frac' Diagonal Fractions lookup 10 subtable" one slash four
EndChar

StartChar: onehalf
Encoding: 189 189 105
Width: 802
GlyphClass: 1
Flags: W
HStem: 0 58<520 687> 333 49<555.569 653.121> 571 47<122 192.481> 647 21G<217.815 284 546.988 649>
VStem: 93 88<0 88> 135 69<292 361> 561 88<580 668> 664 71<215.469 322.922>
DStem2: 72.9335 0 141.933 0 0.207912 0.978148<312.869 583.693 636.82 684.457> 93 0 181 0 0.573791 0.819001<50.4936 815.627>
LayerCount: 2
Fore
SplineSet
735 286.962429395 m 0xf3
 735 208.175702289 657.978965837 126.989482919 520 58 c 1
 699 58 l 1
 687 0 l 1
 411 0 l 1
 422 54 l 1
 580.9472221 141.928250523 664 206.15295685 664 275.669375463 c 0
 664 314.070107656 638.656978389 333 609.374456677 333 c 0
 595.238177185 333 550.108493943 328.588346016 531 273 c 1
 471 292 l 1
 478.912009167 311.547316766 510.222906156 382 608.112435449 382 c 0
 636.099137978 382 735 376.241246077 735 286.962429395 c 0xf3
122 618 m 1
 175.695930582 618 208.630546907 630.261093813 227 667 c 1
 284 667 l 1
 204 292 l 1
 135 292 l 1xf7
 194 571 l 1
 112 571 l 1
 122 618 l 1
93 0 m 1xfb
 561 668 l 1
 649 668 l 1
 181 0 l 1
 93 0 l 1xfb
EndSplineSet
Ligature2: "'frac' Diagonal Fractions lookup 10 subtable" one slash two
EndChar

StartChar: threequarters
Encoding: 190 190 106
Width: 906
GlyphClass: 1
Flags: W
HStem: 0 21G<193 295.012 656 730.419> 86 57<574 675 756 809> 291 51<165.039 275.514> 467 54<200 281.412> 631 50<195.147 302.331> 648 20G<646.988 749>
VStem: 82 64<363.183 382.859> 193 88<0 88> 293 69<359.911 453.002> 312 68<537.634 620.59> 656 70<0 70> 661 88<580 668>
DStem2: 193 0 281 0 0.573791 0.819001<50.4936 815.627> 493 140 574 143 0.710097 0.704104<59.6301 264.683> 656 0 726 0 0.207912 0.978148<14.5538 88.071 160.666 295.575>
LayerCount: 2
Fore
SplineSet
574 143 m 1xf3
 687 143 l 1
 718 289 l 1
 574 143 l 1xf3
656 0 m 1xf320
 675 86 l 1
 482 86 l 1
 493 140 l 1
 730 375 l 1
 806 375 l 1
 756 143 l 1
 821 143 l 1
 809 86 l 1
 745 86 l 1
 726 0 l 1
 656 0 l 1xf320
193 0 m 1
 661 668 l 1
 749 668 l 1xf710
 281 0 l 1
 193 0 l 1
362 412.898999179 m 0xfb80
 362 333.996263432 292.259916321 291 218.29077666 291 c 0
 185.606197726 291 109.201701018 299.394896945 82 381 c 1
 146 398 l 1
 153.338603531 372.839073607 171.991152103 342 219.368588468 342 c 0
 259.194628784 342 293 363.791768052 293 414.671208395 c 0xfb80
 293 423.007132704 292.092579507 467 212 467 c 2
 189 467 l 1
 200 521 l 1
 216 521 l 1
 295.727745749 525.429319208 312 546.638483261 312 576.992221653 c 0
 312 595.217711951 306.133463343 631 251.153681112 631 c 0
 216.149016765 631 191.583854712 616.495127618 173 578 c 1
 115 596 l 1
 123.394513291 613.588504038 157.125989454 681 254.0510893 681 c 0
 283.861876661 681 380 674.623118535 380 587.785629363 c 0
 380 554.762101614 366.096374707 517.683907976 312 497 c 1xfb40
 330.792696747 488.274819367 362 465.680161526 362 412.898999179 c 0xfb80
EndSplineSet
Ligature2: "'frac' Diagonal Fractions lookup 10 subtable" three slash four
EndChar

StartChar: less
Encoding: 60 60 107
Width: 613
GlyphClass: 1
Flags: W
HStem: 0 21G<466.587 511> 476 20G<466.587 511>
VStem: 38 105<160.5 335.5>
DStem2: 143 248 38 213 0.911813 -0.410605<0 400.423>
LayerCount: 2
Fore
SplineSet
511 0 m 1
 38 213 l 1
 38 283 l 1
 511 496 l 1
 511 406 l 1
 143 248 l 1
 511 90 l 1
 511 0 l 1
EndSplineSet
EndChar

StartChar: equal
Encoding: 61 61 108
Width: 658
GlyphClass: 1
Flags: W
HStem: 121 79<63 559> 307 79<63 559>
LayerCount: 2
Fore
SplineSet
63 121 m 1
 63 200 l 1
 559 200 l 1
 559 121 l 1
 63 121 l 1
63 307 m 1
 63 386 l 1
 559 386 l 1
 559 307 l 1
 63 307 l 1
EndSplineSet
EndChar

StartChar: greater
Encoding: 62 62 109
Width: 613
GlyphClass: 1
Flags: W
HStem: 0 21G<83 127.413> 476 20G<83 127.413>
VStem: 451 105<160.5 335.5>
DStem2: 83 90 83 0 0.911813 0.410605<0 400.423>
LayerCount: 2
Fore
SplineSet
83 0 m 1
 83 90 l 1
 451 248 l 1
 83 406 l 1
 83 496 l 1
 556 283 l 1
 556 213 l 1
 83 0 l 1
EndSplineSet
EndChar

StartChar: question
Encoding: 63 63 110
Width: 527
GlyphClass: 1
Flags: W
HStem: -12 129<139.785 235.715> 500 21G<101.833 178.333> 609 70<232.829 401.119>
VStem: 123 130<5.2752 100.144> 433 91<473.015 577.434>
LayerCount: 2
Fore
SplineSet
253 52.4417989699 m 0
 253 16.830340078 223.592713071 -12 186.871882023 -12 c 0
 149.249977797 -12 123 18.2626050188 123 52.8327193466 c 0
 123 90.647034796 154.407964716 117 187.936391656 117 c 0
 222.777162493 117 253 88.5436861198 253 52.4417989699 c 0
322.162808869 679 m 0
 371.154960928 679 524 668.869391481 524 529.668368561 c 0
 524 478.969567612 503.724952971 415.044779165 383.746577918 356.837448693 c 0
 281.246609127 307.109741062 271.413836419 262.862263882 271.412808659 262.85763896 c 0
 257.971315024 202.37091761 256.333333333 195.333333333 255 190 c 1
 170 190 l 1
 193.00782593 293.535216687 205.79661017 351.084745763 332.713973261 416.25852681 c 0
 395.334471184 448.414998716 433 480.167863448 433 525.140804044 c 0
 433 542.558972961 427.350025411 609 320.963533041 609 c 0
 242.291396768 609 190.666666667 572.666666667 166 500 c 1
 89 524 l 1
 107.1246862 573.999134345 164.436118602 679 322.162808869 679 c 0
EndSplineSet
EndChar

StartChar: at
Encoding: 64 64 111
Width: 784
GlyphClass: 1
Flags: W
HStem: -12 60<299.185 516.613> 155 73<305.394 400.762> 155 64<526.075 633.149> 446 73<361.074 474.259> 619 61<306.432 519.168>
VStem: 65 62<215.41 440.433> 213 81<239.294 372.366> 682 62<275.064 460.69>
DStem2: 378.725 -12 461.045 -12 0.207912 0.978148<295.442 464.096>
LayerCount: 2
Fore
SplineSet
294 293.705147271 m 0xdf
 294 274.934567911 298.368729629 228 350.561036274 228 c 0
 430.09302326 228 452.903668036 336.98419172 452.907297927 337.001534532 c 0
 471.110927792 423.974432785 473.666666655 435.999999946 474.999999964 441.999999838 c 1
 467.903697245 443.419260502 452.58914408 446 435.871605935 446 c 0
 334.285213988 446 294 350.704894654 294 293.705147271 c 0xdf
127 328.184183169 m 0
 127 147.503995846 267.746398561 48 408.307586201 48 c 0
 457.793932731 48 504.333333333 60.3333333333 547 85 c 1
 547 16 l 1
 505 -2.66666666667 459.261590049 -12 409.68845931 -12 c 0
 240.035995111 -12 65 97.3111407557 65 321.515193858 c 0
 65 544.14954974 237.593651102 680 406.740071271 680 c 0
 550.221262235 680 744 582.248055239 744 364.710120033 c 0
 744 205.723730974 640.496267861 155 565.494472337 155 c 0xbf
 510.439538209 155 463.33377709 182.331304731 454 225 c 1
 441.708207612 208.453356401 396.544496397 155 327.291975986 155 c 0xdf
 277.906044126 155 213 182.1838095 213 281.642315508 c 0
 213 394.652325337 296.798279783 519 453.184632663 519 c 0
 493.083188337 519 534.604410482 510.906165602 569 499 c 1
 528 303 l 2
 523.446958912 283.270155285 520 268.333333333 520 259.599082507 c 0
 520 237.953457059 541.17020511 219 576.572782945 219 c 0xbf
 645.251092798 219 682 290.327640959 682 366.167066094 c 0
 682 502.977530438 562.410514315 619 413.722564317 619 c 0
 269.665473108 619 127 510.091985544 127 328.184183169 c 0
EndSplineSet
EndChar

StartChar: colon
Encoding: 58 58 112
Width: 208
GlyphClass: 1
Flags: W
HStem: -12 129<5.85181 101.276> 375 129<87.6108 183.146>
VStem: -11 129<4.72814 100.146> 71 129<391.839 487.149>
LayerCount: 2
Fore
SplineSet
118 52.4498288901 m 0xe0
 118 16.8130399851 89.1951084729 -12 53.5629705556 -12 c 0
 18.132894687 -12 -11 16.4871816716 -11 52.3818431794 c 0
 -11 87.8768561699 17.4877791192 117 53.5100183392 117 c 0
 89.5316634307 117 118 87.8778168402 118 52.4498288901 c 0xe0
200 439.554290333 m 0xd0
 200 403.793943632 171.195499089 375 135.439079454 375 c 0
 99.4812567796 375 71 404.119229004 71 439.486255376 c 0
 71 474.855022365 99.4840603069 504 135.383702351 504 c 0
 170.876258142 504 200 475.512257359 200 439.554290333 c 0xd0
EndSplineSet
EndChar

StartChar: bracketleft
Encoding: 91 91 114
Width: 317
GlyphClass: 1
Flags: W
HStem: -161 74<79 188> 593 75<224 348>
DStem2: -20 -161 63.2708 -161 0.207912 0.978148<92.9662 788.254>
LayerCount: 2
Fore
SplineSet
-20 -161 m 1
 156 668 l 1
 363 668 l 1
 348 593 l 1
 224 593 l 1
 79 -87 l 1
 204 -87 l 1
 188 -161 l 1
 -20 -161 l 1
EndSplineSet
EndChar

StartChar: backslash
Encoding: 92 92 115
Width: 519
GlyphClass: 1
Flags: W
HStem: 0 21G<347.216 442> 648 20G<95 189.784>
DStem2: 182 668 95 668 0.362716 -0.9319<0 685.259>
LayerCount: 2
Fore
SplineSet
355 0 m 1
 95 668 l 1
 182 668 l 1
 442 0 l 1
 355 0 l 1
EndSplineSet
EndChar

StartChar: bracketright
Encoding: 93 93 116
Width: 317
GlyphClass: 1
Flags: W
HStem: -161 74<-47 78> 593 75<113 223>
DStem2: 62.2708 -161 145 -161 0.207912 0.978148<75.6532 770.941>
LayerCount: 2
Fore
SplineSet
-63 -161 m 1
 -47 -87 l 1
 78 -87 l 1
 223 593 l 1
 98 593 l 1
 113 668 l 1
 320 668 l 1
 145 -161 l 1
 -63 -161 l 1
EndSplineSet
EndChar

StartChar: asciicircum
Encoding: 94 94 117
Width: 552
GlyphClass: 1
Flags: W
HStem: 569 99<182.5 357.5>
DStem2: 47 311 136 311 0.460099 0.887867<40.9488 331.672> 308 668 270 569 0.460099 -0.887867<70.4151 361.138>
LayerCount: 2
Fore
SplineSet
47 311 m 1
 232 668 l 1
 308 668 l 1
 493 311 l 1
 404 311 l 1
 270 569 l 1
 136 311 l 1
 47 311 l 1
EndSplineSet
EndChar

StartChar: underscore
Encoding: 95 95 118
Width: 413
GlyphClass: 1
Flags: W
HStem: -79 79<-32 344>
LayerCount: 2
Fore
SplineSet
-32 -79 m 1
 -32 0 l 1
 344 0 l 1
 344 -79 l 1
 -32 -79 l 1
EndSplineSet
EndChar

StartChar: grave
Encoding: 96 96 119
Width: 272
GlyphClass: 1
Flags: W
HStem: 571 136
LayerCount: 2
Fore
SplineSet
134 665.380901363 m 0
 134 695.517415305 153.747856064 707 194.645161288 707 c 0
 194.645161288 707 194.645161288 707 194.726584744 706.867151169 c 0
 277.999998784 570.999966627 255.333332523 570.999965966 210 571 c 1
 137.497992956 646.091364438 134 652.697302384 134 665.380901363 c 0
EndSplineSet
EndChar

StartChar: exclam
Encoding: 33 33 120
Width: 284
GlyphClass: 1
Flags: W
HStem: -12 129<43.5048 139.474> 648 20G<172.723 268>
VStem: 27 129<4.41521 100.049> 177 91<577 668>
LayerCount: 2
Fore
SplineSet
156 52.6330562663 m 0
 156 17.9703239646 128.248619794 -12 91.7409801535 -12 c 0
 56.5570204392 -12 27 15.8364184819 27 52.7320170661 c 0
 27 88.8084273614 55.2590895505 117 91.1644834853 117 c 0
 127.87662967 117 156 87.5273314952 156 52.6330562663 c 0
95 195 m 1
 140 495 l 1
 177 668 l 1
 268 668 l 1
 232 495 l 1
 149 195 l 1
 95 195 l 1
EndSplineSet
EndChar

StartChar: quotedbl
Encoding: 34 34 121
Width: 334
GlyphClass: 1
Flags: W
HStem: 447 221<109 161 250 302>
VStem: 109 52<447 557.5> 250 52<447 557.5>
LayerCount: 2
Fore
SplineSet
109 447 m 1
 95 668 l 1
 175 668 l 1
 161 447 l 1
 109 447 l 1
250 447 m 1
 236 668 l 1
 316 668 l 1
 302 447 l 1
 250 447 l 1
EndSplineSet
EndChar

StartChar: numbersign
Encoding: 35 35 122
Width: 634
GlyphClass: 1
Flags: W
HStem: 0 21G<136 220.791 341 425.791> 172 81<48 161 254 365 459 571> 415 81<82 195 288 399 493 605> 648 20G<227.209 312 432.209 517>
VStem: 136 82<0 82> 230 82<586 668> 341 82<0 82> 435 82<586 668>
DStem2: 136 0 218 0 0.139346 0.990244<11.4263 173.806 266.974 419.173 512.341 674.581> 341 0 423 0 0.139346 0.990244<11.4263 173.666 266.974 419.033 512.341 674.581>
LayerCount: 2
Fore
SplineSet
254 253 m 1
 377 253 l 1
 399 415 l 1
 276 415 l 1
 254 253 l 1
136 0 m 1
 161 172 l 1
 37 172 l 1
 48 253 l 1
 172 253 l 1
 195 415 l 1
 71 415 l 1
 82 496 l 1
 206 496 l 1
 230 668 l 1
 312 668 l 1
 288 496 l 1
 411 496 l 1
 435 668 l 1
 517 668 l 1
 493 496 l 1
 616 496 l 1
 605 415 l 1
 481 415 l 1
 459 253 l 1
 582 253 l 1
 571 172 l 1
 447 172 l 1
 423 0 l 1
 341 0 l 1
 365 172 l 1
 242 172 l 1
 218 0 l 1
 136 0 l 1
EndSplineSet
EndChar

StartChar: dollar
Encoding: 36 36 123
Width: 610
GlyphClass: 1
Flags: W
HStem: -5 79<275 386.71> 599 80<403 433.038> 608 80<230.449 336>
VStem: 88 95<452.442 564.473> 190 52<-80 -28> 366 52<698 750> 448 98<128.823 249.963>
DStem2: 190 -80 242 -80 0.207912 0.978148<10.8114 87.2167 169.649 403.469 493.86 703.321 785.728 848.455>
LayerCount: 2
Fore
SplineSet
291.489410951 74 m 0x9e
 382.974564738 74 448 119.589173864 448 191.566682103 c 0
 448 249.708641038 405.570396613 277.609577567 324 304 c 1
 275 75 l 1
 278.333333333 74.3333333333 283.666666667 74 291.489410951 74 c 0x9e
336 608 m 1xbe
 271.627742972 613.219372191 183 586.802974868 183 508.167553575 c 0
 183 450.872980384 230.050065337 423.527152607 293 403 c 1
 336 608 l 1xbe
546 206.449506826 m 0
 546 80.7430932857 432.83833591 -5 280.184694439 -5 c 0
 270.666666667 -5 263.333333333 -4.66666666667 258 -4 c 1
 242 -80 l 1
 190 -80 l 1
 208 4 l 1
 159.969757687 15.5935067652 72.3089413666 50.435932221 37 153 c 1
 128 179 l 1
 136.280395335 154.158813996 159.957447357 108.358377471 225 86 c 1
 275 319 l 1
 155.881328508 355.253508715 88 395.107240996 88 496.512634473 c 0
 88 630.696633744 206.858347366 688 332.113550053 688 c 0xbe
 341.666666667 688 348.333333333 687.666666667 353 687 c 1
 366 750 l 1
 418 750 l 1
 403 679 l 1
 445.474677467 669.383091894 527.310311567 641.177412758 563 563 c 1
 471 537 l 1
 459.949102074 558.180887692 436.331258242 585.115514968 386 599 c 1xde
 341 388 l 1
 469.281960649 349.862119807 546 309.953360759 546 206.449506826 c 0
EndSplineSet
EndChar

StartChar: percent
Encoding: 37 37 124
Width: 1000
GlyphClass: 1
Flags: W
HStem: -12 74<679.388 807.653> 0 21G<231 333.012> 277 74<697.825 825.707> 317 74<191.388 319.653> 606 74<209.825 337.707> 648 20G<684.988 787>
VStem: 82 74<426.159 553.364> 231 88<0 88> 373 75<444.511 572.394> 570 74<97.1587 224.364> 699 88<580 668> 861 75<115.511 243.394>
DStem2: 231 0 319 0 0.573791 0.819001<50.4936 815.627>
LayerCount: 2
Fore
SplineSet
644 159.114261336 m 0xa3f0
 644 103.952037889 685.568721012 62 742.066584656 62 c 0
 807.791618788 62 861 118.774151274 861 181.922644587 c 0
 861 237.612488328 819.618516195 277 764.629812364 277 c 0
 700.496453394 277 644 223.422856844 644 159.114261336 c 0xa3f0
936 189.269054374 m 0
 936 82.2629243719 842.54963518 -12 733.772750911 -12 c 0
 640.254741399 -12 570 57.6719856273 570 151.334255205 c 0
 570 260.407707936 665.276195553 351 771.650520586 351 c 0
 863.424582702 351 936 283.569322555 936 189.269054374 c 0
156 488.114261335 m 0
 156 432.952037889 197.568721012 391 254.066584656 391 c 0
 319.791618788 391 373 447.774151274 373 510.922644587 c 0
 373 566.612488328 331.618516195 606 276.629812364 606 c 0x1bf0
 212.496453394 606 156 552.422856844 156 488.114261335 c 0
231 0 m 1x47f0
 699 668 l 1
 787 668 l 1
 319 0 l 1
 231 0 l 1x47f0
448 518.269054374 m 0
 448 411.262924372 354.54963518 317 245.772750911 317 c 0
 152.254741399 317 82 386.671985627 82 480.334255205 c 0
 82 589.407707936 177.276195553 680 283.650520586 680 c 0x1bf0
 375.424582702 680 448 612.569322555 448 518.269054374 c 0
EndSplineSet
EndChar

StartChar: ampersand
Encoding: 38 38 125
Width: 691
GlyphClass: 1
Flags: W
HStem: -12 78<137.096 309.531> 0 21G<492.116 619> 609 70<300.529 435.472>
VStem: 15 86<99.8886 238.328> 182 88<448.332 578.3> 454 83<487.174 590.654>
DStem2: 351 362 263 333 0.595015 -0.803714<0 174.997 276.567 383.767>
LayerCount: 2
Fore
SplineSet
101 167.167169372 m 0xbc
 101 132.087521835 113.676840933 66 213.723845671 66 c 0
 280.308961692 66 338.177106965 95.2728903848 400 145 c 1
 263 333 l 1
 234.39146175 324.008745121 101 280.959689716 101 167.167169372 c 0xbc
375.180127428 609 m 0
 356.787411391 609 270 605.468130727 270 521.196069883 c 0
 270 493.119324787 279.633476093 463.952177009 302.347671023 431.50332711 c 0
 306.722357387 425.253775162 310 420 312 416 c 1
 367.953602812 434.651200937 454 474.039040353 454 540.788244404 c 0
 454 573.1393674 433.787537375 609 375.180127428 609 c 0
443 86 m 1
 372.884939601 25.3235054239 297.735558323 -12 206.233373997 -12 c 0xbc
 55.5536370786 -12 15 89.2113480351 15 161.505647153 c 0
 15 277.454591141 119.31705123 356.573805652 222 389 c 1
 187.113188144 445.206530212 182 488.641997031 182 514.070725268 c 0
 182 612.801133919 259.080471336 679 365.931968746 679 c 0
 398.511575346 679 537 672.845666924 537 549.880776479 c 0
 537 471.639769468 480.931352045 413.431160184 351 362 c 1
 456 222 l 1
 485.178134268 256.483249589 512.853500038 306.17833346 529 360 c 1
 616 360 l 1
 604.46850026 321.801907111 574.892115036 246.865143795 503 157 c 1
 619 0 l 1
 507 0 l 1x7c
 443 86 l 1
EndSplineSet
EndChar

StartChar: quotesingle
Encoding: 39 39 126
Width: 193
GlyphClass: 1
Flags: W
HStem: 447 221<109 161>
VStem: 109 52<447 557.5>
LayerCount: 2
Fore
SplineSet
109 447 m 1
 95 668 l 1
 175 668 l 1
 161 447 l 1
 109 447 l 1
EndSplineSet
EndChar

StartChar: parenleft
Encoding: 40 40 127
Width: 301
GlyphClass: 1
Flags: W
HStem: -162 21G<71.5549 170> 648 20G<166.445 337>
VStem: 29 80<-37.3454 291.146> 258 79<589 668>
LayerCount: 2
Fore
SplineSet
109 128.115759385 m 0
 109 39.1816505796 126.414974998 -55.1463903185 170 -162 c 1
 93 -162 l 1
 50.1097915647 -62.8163929935 29 35.0212729792 29 131.435591118 c 0
 29 273.590238125 74.8905221635 465.094902938 258 668 c 1
 337 668 l 1
 140.688167132 427.737756788 109 248.081016671 109 128.115759385 c 0
EndSplineSet
EndChar

StartChar: parenright
Encoding: 41 41 128
Width: 302
GlyphClass: 1
Flags: W
HStem: -162 21G<-53 119.958> 648 20G<115 213.333>
VStem: -53 81<-162 -81> 176 80<215.713 545.542>
LayerCount: 2
Fore
SplineSet
256 375.987036005 m 0
 256 236.738545271 211.915192132 43.6506239294 28 -162 c 1
 -53 -162 l 1
 148.579731557 84.709522204 176 267.467119835 176 380.417014712 c 0
 176 470.807018832 158.43933927 564.831569235 115 668 c 1
 192 668 l 1
 234.666666667 570.666666667 256 472.853931271 256 375.987036005 c 0
EndSplineSet
EndChar

StartChar: asterisk
Encoding: 42 42 129
Width: 439
GlyphClass: 1
Flags: W
HStem: 373 294
VStem: 106 289
DStem2: 135 615 106 566 0.866499 -0.499179<0 105.506> 119 442 157 399 0.743762 0.668444<0 105.737> 186.827 373 245.377 373 0.207912 0.978148<193.222 300.407> 289 493 236 470 0.413095 -0.910688<0 105.565> 283 550 289 493 0.993653 0.112489<0 105.571>
LayerCount: 2
Fore
SplineSet
280 373 m 1
 236 470 l 1
 157 399 l 1
 119 442 l 1
 198 513 l 1
 106 566 l 1
 135 615 l 1
 227 562 l 1
 249 667 l 1
 305 655 l 1
 283 550 l 1
 388 561 l 1
 395 505 l 1
 289 493 l 1
 332 396 l 1
 280 373 l 1
EndSplineSet
EndChar

StartChar: plus
Encoding: 43 43 130
Width: 619
GlyphClass: 1
Flags: W
HStem: 0 21G<250 330> 208 80<42 250 330 538> 476 20G<250 330>
VStem: 250 80<0 208 288 496>
LayerCount: 2
Fore
SplineSet
250 0 m 1
 250 208 l 1
 42 208 l 1
 42 288 l 1
 250 288 l 1
 250 496 l 1
 330 496 l 1
 330 288 l 1
 538 288 l 1
 538 208 l 1
 330 208 l 1
 330 0 l 1
 250 0 l 1
EndSplineSet
EndChar

StartChar: comma
Encoding: 44 44 131
Width: 209
GlyphClass: 1
Flags: W
HStem: -134 250
VStem: -44 61<-134 -73> -11 129<2.92476 99.3767>
DStem2: -44 -134 17 -134 0.516281 0.856419<31.4931 146.29>
LayerCount: 2
Fore
SplineSet
52.8949670606 116 m 0xa0
 91.7940252726 116 118 84.6814799787 118 50.7196855667 c 0xa0
 118 35.5259662118 112.754978642 24.4768402926 102 7 c 2
 17 -134 l 1
 -44 -134 l 1xc0
 32 -9 l 1
 3.33333333333 1.66666666667 -11 21.6170213128 -11 49.7088995692 c 0
 -11 88.6519772 16.5452162582 116 52.8949670606 116 c 0xa0
EndSplineSet
EndChar

StartChar: hyphen
Encoding: 45 45 132
Width: 372
GlyphClass: 1
Flags: W
HStem: 208 81<49 323>
VStem: 31 310
LayerCount: 2
Fore
SplineSet
31 208 m 1
 49 289 l 1
 341 289 l 1
 323 208 l 1
 31 208 l 1
EndSplineSet
EndChar

StartChar: period
Encoding: 46 46 133
Width: 208
GlyphClass: 1
Flags: W
HStem: -12 129<15.8518 111.276>
VStem: -1 129<4.72814 100.146>
LayerCount: 2
Fore
SplineSet
128 52.4498288896 m 0
 128 16.8130399843 99.1951084728 -12 63.5629705558 -12 c 0
 28.132894687 -12 -1 16.4871816716 -1 52.3818431794 c 0
 -1 87.8768561699 27.4877791192 117 63.510018339 117 c 0
 99.5316634302 117 128 87.8778168401 128 52.4498288896 c 0
EndSplineSet
EndChar

StartChar: slash
Encoding: 47 47 134
Width: 371
GlyphClass: 1
Flags: W
HStem: 0 21G<-50 49.0359> 648 20G<339.964 439>
VStem: -50 87<0 87> 352 87<581 668>
DStem2: -50 0 37 0 0.515627 0.856813<44.8596 779.633>
LayerCount: 2
Fore
SplineSet
-50 0 m 1
 352 668 l 1
 439 668 l 1
 37 0 l 1
 -50 0 l 1
EndSplineSet
EndChar

StartChar: braceleft
Encoding: 123 123 135
Width: 322
GlyphClass: 1
Flags: W
HStem: -162 71<125.28 192> 220 67<37 73.0738> 596 72<260.869 353>
DStem2: 11.8798 -162 191.908 -162 0.207912 0.978148<44.226 822.418> 11.8798 -162 99.0923 -162 0.207912 0.978148<102.017 370.891 478.939 792.205>
LayerCount: 2
Fore
SplineSet
149 -162 m 2
 41.1260751553 -162 19.7642551205 -121.888086013 41 -25 c 2
 73 125 l 2
 85.1892264558 183.237415289 83.2434347805 220 23 220 c 1
 37 287 l 1
 97.5406047935 287 115.859823713 323.996935518 128 382 c 2
 163 545 l 2
 183.695927965 642.270861434 217.719107564 668 325 668 c 2
 368 668 l 1
 353 596 l 1
 311 596 l 2
 268.164782195 596 257.563985072 583.178929092 247 533 c 2
 214 380 l 2
 197.036704394 297.793259754 157.075672036 267.440966325 106 254 c 1
 106 253 l 1
 152.577666324 239.692095336 177.128164729 208.688170245 160 127 c 2
 128 -26 l 2
 116.175177385 -82.4963747179 127.228490152 -91 165 -91 c 2
 207 -91 l 1
 192 -162 l 1
 149 -162 l 2
EndSplineSet
EndChar

StartChar: bar
Encoding: 124 124 136
Width: 289
GlyphClass: 1
Flags: W
HStem: -161 21G<96 177> 648 20G<96 177>
VStem: 96 81<-161 668>
LayerCount: 2
Fore
SplineSet
96 -161 m 1
 96 668 l 1
 177 668 l 1
 177 -161 l 1
 96 -161 l 1
EndSplineSet
EndChar

StartChar: braceright
Encoding: 125 125 137
Width: 322
GlyphClass: 1
Flags: W
HStem: -163 72<-47 45.131> 218 67<233.393 269> 596 71<114 180.713>
DStem2: 30.3049 -163 116.856 -163 0.207912 0.978148<74.5079 387.477 496.733 765.075>
LayerCount: 2
Fore
SplineSet
-62 -163 m 1
 -47 -91 l 1
 -5 -91 l 2
 37.8352178046 -91 48.4360149278 -78.1789290931 59 -28 c 2
 92 125 l 2
 110.315652338 207.420435521 149.092201143 237.603210827 200 251 c 1
 200 252 l 1
 153.447332219 266.630838446 128.90817716 296.485152608 146 378 c 2
 181 542 l 2
 190.212618357 585.430915109 179.206677662 596 141 596 c 2
 99 596 l 1
 114 667 l 1
 157 667 l 2
 264.842650682 667 286.218580337 628.135934058 265 530 c 2
 233 380 l 2
 220.804386914 321.732070809 223.875058435 285 283 285 c 1
 269 218 l 1
 209.58912467 218 190.147205885 181.036650339 178 123 c 2
 143 -40 l 2
 122.304072035 -137.270861434 88.2808924358 -163 -19 -163 c 2
 -62 -163 l 1
EndSplineSet
EndChar

StartChar: asciitilde
Encoding: 126 126 138
Width: 539
GlyphClass: 1
Flags: W
HStem: 195 73<289.779 411.091> 249 74<113.175 245.835>
LayerCount: 2
Fore
SplineSet
500 297 m 1x80
 485.261566426 235.366550507 434.79551374 195 369.6991428 195 c 0x80
 294.408182169 195 221.736752881 249 164.086811414 249 c 0
 147.450342028 249 109.1006094 244.503046998 100 199 c 1
 25 221 l 1
 31.8174524106 249.509346444 59.6111046186 323 159.037199617 323 c 0x40
 245.050511976 323 311.074652088 268 363.667017749 268 c 0
 393.474572288 268 419.333458273 285.667291366 426 319 c 1
 500 297 l 1x80
EndSplineSet
EndChar

StartChar: exclamdown
Encoding: 161 161 139
Width: 283
GlyphClass: 1
Flags: W
HStem: -161 21G<0 95.2775> 390 129<128.838 224.149>
VStem: 0 91<-161 -70> 112 129<406.852 502.387>
LayerCount: 2
Fore
SplineSet
0 -161 m 1
 37 12 l 1
 119 311 l 1
 174 311 l 1
 128 12 l 1
 91 -161 l 1
 0 -161 l 1
241 454.550068889 m 0
 241 418.795306479 212.19563452 390 176.438723084 390 c 0
 140.48125678 390 112 419.119229004 112 454.616163935 c 0
 112 490.506650211 141.116295983 519 176.488257066 519 c 0
 211.854428681 519 241 490.515976686 241 454.550068889 c 0
EndSplineSet
EndChar

StartChar: cent
Encoding: 162 162 140
Width: 492
GlyphClass: 1
Flags: W
HStem: -12 73<240 315.496> 428 75<213.185 267 332 365.978>
VStem: 25 91<109.75 309.537> 157 51<-87 -36> 297 50<521 571>
DStem2: 157 -87 208 -87 0.207912 0.978148<10.6035 80.8082 162.023 526.616 611.535 672.729>
LayerCount: 2
Fore
SplineSet
267 428 m 1
 145.519881668 409.103092704 116 267.847625859 116 195.258703061 c 0
 116 135.353424251 136.105000887 86.8632496896 190 68 c 1
 267 428 l 1
240 61 m 1
 293.123332743 62.3280833186 332.601577206 86.9112416441 362 127 c 1
 433 98 l 1
 410.084408149 59.8073469154 350.915472166 -10.0474542744 224 -12 c 1
 208 -87 l 1
 157 -87 l 1
 174 -8 l 1
 127.968822871 0.428243699677 25 36.628742589 25 191.900993518 c 0
 25 327.424872195 103.442187361 495.193138581 283 503 c 1
 297 571 l 1
 347 571 l 1
 332 501 l 1
 401.333333333 491 450.666666667 454.666666667 480 392 c 1
 397 364 l 1
 392.334605159 378.579358877 374.783776887 417.20969364 318 427 c 1
 240 61 l 1
EndSplineSet
EndChar

StartChar: sterling
Encoding: 163 163 141
Width: 585
GlyphClass: 1
Flags: W
HStem: -12 78<278.92 475.698> 25 77<111.963 284.156> 317 51<86 172 276 457> 608 71<296.56 467.79>
VStem: 153 90<369.936 558.265> 192 90<190.6 316.368>
LayerCount: 2
Fore
SplineSet
176.234343492 25 m 0x74
 140.576642265 25 96.4071195735 15.4372236392 35 -12 c 1
 22 55 l 1
 24.5456003866 55.8984471953 192 116.015438618 192 265.383178361 c 0xb4
 192 284.232377128 189.333333333 301.666666667 184 317 c 1
 75 317 l 1
 86 368 l 1
 172 368 l 1
 161.265555485 405.570555804 153 442.718954992 153 481.558849125 c 0
 153 639.399519339 289.506648258 679 385.453275334 679 c 0
 442.511907947 679 562.001255156 664.994979377 591 549 c 1
 508 526 l 1
 487.78515537 583.077208367 456.097051351 608 387.517440887 608 c 0
 324.522444337 608 243 586.970992707 243 483.228792034 c 0xb8
 243 447.75 252.534631868 413.186959478 265 368 c 1
 468 368 l 1
 457 317 l 1
 276 317 l 1
 280.323316786 305.471155237 282 288.605670836 282 274.733209669 c 0
 282 228.589918667 263.449265392 149.935460962 150 90 c 1
 171.583277056 98.3934966328 191.924997675 102 210.29695676 102 c 0x74
 268.341787474 102 306.075472559 66 373.53749019 66 c 0
 402.325024746 66 439.570780046 72.5553033512 487 91 c 1
 497 18 l 1
 436.687580605 -6.41216975503 396.817477617 -12 369.661863301 -12 c 0xb4
 299.784116638 -12 246.37376896 25 176.234343492 25 c 0x74
EndSplineSet
EndChar

StartChar: currency
Encoding: 164 164 142
Width: 666
GlyphClass: 1
Flags: W
HStem: 103 75<264.974 414.039> 463 76<263.982 414.163>
VStem: 121 76<245.952 396.394> 481 76<245.036 395.405>
DStem2: 138 558 102 522 0.7063 -0.707913<0.0580521 96.7054 523.204 619.483> 102 119 138 84 0.7063 0.707913<0.649861 96.5133 524.064 620.075>
LayerCount: 2
Fore
SplineSet
197 321.178022401 m 0
 197 242.206241366 260.201853764 178 339.392139219 178 c 0
 419.164041383 178 481 243.152836213 481 320.633759443 c 0
 481 398.392190894 418.720300743 463 339.860035664 463 c 0
 263.255154998 463 197 402.034880461 197 321.178022401 c 0
338.772790857 103 m 0
 314.889168253 103 259.273130376 106.623933378 204 149 c 1
 138 84 l 1
 102 119 l 1
 168 185 l 1
 136.666666667 225.666666667 121 270.579962445 121 319.125447499 c 0
 121 351.924596994 128.151614203 405.756383125 168 456 c 1
 102 522 l 1
 138 558 l 1
 204 492 l 1
 219.924878779 504.739903024 266.341478167 539 340.73779224 539 c 0
 357.986278247 539 419.433561083 537.158432207 474 492 c 1
 540 558 l 1
 576 522 l 1
 510 456 l 1
 528.309304823 433.876256673 557 388.509527962 557 320.664972633 c 0
 557 297.370884426 553.617774948 239.522218685 510 185 c 1
 576 119 l 1
 540 84 l 1
 474 149 l 1
 452.076659796 131.612523287 405.882935846 103 338.772790857 103 c 0
EndSplineSet
EndChar

StartChar: yen
Encoding: 165 165 143
Width: 598
GlyphClass: 1
Flags: W
HStem: 0 21G<178 279.186> 86 51<58 196 304 439> 223 51<87 218 352 468> 648 20G<90 192.195 538.484 668>
VStem: 90 96<572 668> 554 114<554 668>
DStem2: 186 668 90 668 0.308977 -0.95107<0 354.855> 178 0 275 0 0.207912 0.978148<20.1674 87.8631 160.203 227.899> 291 329 352 274 0.62566 0.780096<0 429.001>
LayerCount: 2
Fore
SplineSet
178 0 m 1
 196 86 l 1
 47 86 l 1
 58 137 l 1
 207 137 l 1
 225 223 l 1
 76 223 l 1
 87 274 l 1
 218 274 l 1
 90 668 l 1
 186 668 l 1
 291 329 l 1
 554 668 l 1
 668 668 l 1
 352 274 l 1
 479 274 l 1
 468 223 l 1
 322 223 l 1
 304 137 l 1
 450 137 l 1
 439 86 l 1
 293 86 l 1
 275 0 l 1
 178 0 l 1
EndSplineSet
EndChar

StartChar: brokenbar
Encoding: 166 166 144
Width: 289
GlyphClass: 1
Flags: W
HStem: -161 21G<96 177> 648 20G<96 177>
VStem: 96 81<-161 149 358 668>
LayerCount: 2
Fore
SplineSet
96 -161 m 1
 96 149 l 1
 177 149 l 1
 177 -161 l 1
 96 -161 l 1
96 358 m 1
 96 668 l 1
 177 668 l 1
 177 358 l 1
 96 358 l 1
EndSplineSet
EndChar

StartChar: section
Encoding: 167 167 145
Width: 526
GlyphClass: 1
Flags: W
HStem: -174 72<69.9799 216.731> 612 68<291.92 437.586>
VStem: 39 86<226.299 328.1> 178 87<490.733 587.21> 251 89<-69.7349 33.443> 397 90<196.125 294.791>
LayerCount: 2
Fore
SplineSet
260 391 m 1xe4
 191.905112469 377.759327425 125 330.773604953 125 276.241959124 c 0
 125 245.841075308 145.793831171 223.654626622 162.58789741 211.059076943 c 0
 176.353026659 200.735230005 265.053382668 129.781988231 265.999999363 129.000000526 c 1
 293.232449477 137.379215643 397 170.628439707 397 258.260587964 c 0
 397 269.546808037 395.278798653 289.540901011 260 391 c 1xe4
340 3.89863179396 m 0xec
 340 -77.06589292 273.774084924 -174 135.336302159 -174 c 0
 40.3916989553 -174 -25.6494962915 -128.405977228 -43 -55 c 1
 43 -32 l 1
 49.6367630477 -81.1120465527 93.066387579 -102 140.635219601 -102 c 0
 198.667521119 -102 251 -70.9121631517 251 -20.3297674243 c 0xec
 251 24.1758821097 210.486216367 57.6424736087 153.564682972 101.124200508 c 0
 72.0606812747 163.384201804 39 193.802545897 39 252.726353306 c 0
 39 281.11730441 46.6752066874 400.349001393 213 435 c 1
 199.793467048 448.206532952 178 476.826951786 178 520.880226323 c 0
 178 593.952869379 237.962477326 680 359.628778729 680 c 0
 386.378580295 680 509.988076353 675.840540401 537 584 c 1
 454 561 l 1
 448.629280603 595.909676082 407.901750348 612 370.908955224 612 c 0
 366.318962727 612 265 611.75228378 265 542.177671041 c 0xf4
 265 508.307193893 289.012189892 485.366111537 309.680227697 470.295667304 c 0
 323.470795865 460.240044681 445.207902973 369.05493195 471.193907685 330.469652225 c 0
 481.192996855 315.622519821 487 293.737245012 487 267.551467797 c 0
 487 202.77718902 451.467456521 128.15581884 313 82 c 1
 331 60 340 33.7457249842 340 3.89863179396 c 0xec
EndSplineSet
EndChar

StartChar: dieresis
Encoding: 168 168 146
Width: 427
GlyphClass: 1
Flags: W
HStem: 590 107<139.76 226.581 351.403 437.582>
VStem: 129 108<600.786 686.473> 341 107<600.796 686.468>
LayerCount: 2
Fore
SplineSet
448 643.972120981 m 0
 448 614.333158485 424.762623381 590 394.500804054 590 c 0
 364.184920244 590 341 614.420181329 341 643.952426348 c 0
 341 673.273215673 363.85409326 697 394.429836759 697 c 0
 424.8043907 697 448 673.584434668 448 643.972120981 c 0
237 643.975504481 m 0
 237 614.332220196 213.762505061 590 183.486702861 590 c 0
 153.176481254 590 129 614.387576393 129 643.935207646 c 0
 129 673.294757994 152.869677477 697 183.436884507 697 c 0
 213.817048491 697 237 673.583978725 237 643.975504481 c 0
EndSplineSet
EndChar

StartChar: copyright
Encoding: 169 169 147
Width: 814
GlyphClass: 1
Flags: W
HStem: -12 62<312.375 519.749> 150 59<357.877 482.281> 473 58<357.478 476.82> 618 62<308.902 523.536>
VStem: 70 62<230.156 441.549> 244 76<252.884 431.463> 700 62<226.388 441.084>
LayerCount: 2
Fore
SplineSet
567 230 m 1
 559.038751927 215.75355608 521.177878524 150 420.772570736 150 c 0
 371.285583524 150 244 165.973052933 244 332.79978785 c 0
 244 384.828539212 256.38040137 531 426.780148078 531 c 0
 439.164065539 531 522.129688709 530.227958235 565 449 c 1
 498 424 l 1
 480.666666667 456.666666667 454.117726184 473 418.042278883 473 c 0
 362.75936352 473 320 434.644005182 320 345.064864061 c 0
 320 306.191874823 328.052177132 209 418.853684819 209 c 0
 442.553280871 209 481.042936964 215.621032624 501 254 c 1
 567 230 l 1
132 334.539733286 m 0
 132 177.21204995 257.6708311 50 415.863923225 50 c 0
 572.954780864 50 700 175.44548716 700 333.457681726 c 0
 700 489.992357152 575.319587308 618 416.628165615 618 c 0
 260.019877608 618 132 493.330998068 132 334.539733286 c 0
762 334.772868517 m 0
 762 144.046369488 608.123127018 -12 416.198537635 -12 c 0
 225.823198018 -12 70 141.537268825 70 333.217216791 c 0
 70 522.819687503 222.463797346 680 415.097187201 680 c 0
 604.818026748 680 762 527.536779516 762 334.772868517 c 0
EndSplineSet
EndChar

StartChar: questiondown
Encoding: 191 191 148
Width: 527
GlyphClass: 1
Flags: W
HStem: -175 70<109.839 275.731> 388 129<274.951 370.283>
VStem: -14 91<-73.4388 33.9604> 255 85<238.788 316> 259 128<404.724 500.141>
LayerCount: 2
Fore
SplineSet
188.660000003 -175 m 0xf0
 128.634748388 -175 -14 -159.512261583 -14 -21.5122486336 c 0
 -14 10.6878129794 -6.23430210454 83.7760767642 172.394348323 169.782464008 c 0
 172.394813444 169.782687955 242.504347826 203.539130435 255 316 c 1
 340 316 l 1
 339.842375196 314.581376764 329.460267658 234.993312577 292.127245978 179.771551343 c 0
 224.027558793 79.0407640506 77 75.2848609255 77 -19.3138359882 c 0
 77 -36.9861498502 82.131156612 -105 189.432868668 -105 c 0
 267.858963993 -105 319.333333333 -68.6666666667 344 4 c 1
 421 -20 l 1
 405.846325899 -62.7550090714 350.253345134 -175 188.660000003 -175 c 0xf0
387 452.425820897 m 0xe8
 387 416.807805805 358.352641401 388 322.093200111 388 c 0
 285.993697549 388 259 416.554226491 259 452.49718769 c 0
 259 488.185117297 285.611991532 517 322.032833629 517 c 0
 358.665662924 517 387 487.848707547 387 452.425820897 c 0xe8
EndSplineSet
EndChar

StartChar: germandbls
Encoding: 223 223 149
Width: 605
GlyphClass: 1
Flags: W
HStem: -13 77<239 379.253> 0 21G<14 104.248> 329 77<305 405.208> 610 70<276.859 449.868>
VStem: 14 86<0 86> 483 87<461.034 579.883>
DStem2: 11.2368 -13 97.2368 -13 0.207912 0.978148<31.1708 606.095>
LayerCount: 2
Fore
SplineSet
570 535.851300151 m 0x7c
 570 466.925119519 530.587630293 390.733833469 439 372 c 1
 511.459124507 344.981343404 553.552015299 300.906284949 548.544173853 207.635238012 c 0
 544.354392674 129.60056356 505.577632941 -13 262.104765964 -13 c 0
 250.333333333 -13 243.666666667 -12.6666666667 239 -12 c 1
 233 67 l 1
 249 65 264.252067502 64 278.968135346 64 c 0xbc
 390.565520051 64 454 121.507497769 454 212.56696343 c 0
 454 295.625646418 401.222930774 326.308960801 303 329 c 1
 289 329 l 1
 305 406 l 1
 320 406 l 1
 349.54904018 407.231210007 483 418.546399048 483 521.845785496 c 0
 483 559.442855996 465.321955158 610 365.971020204 610 c 0
 273.615450186 610 219.925711893 566.3117346 196 452 c 2
 100 0 l 1
 14 0 l 1
 110 452 l 2
 131.64470335 549.401165074 171.69171991 680 366.027152796 680 c 0
 426.964608759 680 570 667.158848883 570 535.851300151 c 0x7c
EndSplineSet
EndChar

StartChar: AE
Encoding: 198 198 150
Width: 987
GlyphClass: 1
Flags: W
HStem: 0 81<549 891> 145 81<267 466> 303 80<613 862> 586 81<656 1015>
VStem: -52 112<0 112>
DStem2: -52 0 60 0 0.686079 0.727527<76.8408 274.267 383.28 383.28> 435.179 0 531.783 0 0.207912 0.978148<102.895 148.239 231.004 329.815 411.602 540.897>
AnchorPoint: "Anchor-1" 738 667 basechar 0
LayerCount: 2
Fore
SplineSet
267 226 m 1
 483 226 l 1
 548 529 l 1
 267 226 l 1
-52 0 m 1
 577 667 l 1
 1032 667 l 1
 1015 586 l 1
 656 586 l 1
 613 383 l 1
 879 383 l 1
 862 303 l 1
 596 303 l 1
 549 81 l 1
 908 81 l 1
 891 0 l 1
 435 0 l 1
 466 145 l 1
 194 145 l 1
 60 0 l 1
 -52 0 l 1
EndSplineSet
EndChar

StartChar: florin
Encoding: 279 402 151
Width: 330
GlyphClass: 1
Flags: W
HStem: -173 78<-58.1055 21.5449> 428 68<69 138 237 325> 635 71<273.895 368>
DStem2: 10.3291 -173 96.3049 -173 0.207912 0.978148<83.5633 614.411 701.508 839.455>
LayerCount: 2
Fore
SplineSet
-56 -90 m 1
 -41.3649878167 -92.9270024367 -30.7763272088 -95 -20.4444799164 -95 c 0
 11.7892379406 -95 31.3004899196 -74.8226728821 42 -24 c 2
 138 428 l 1
 54 428 l 1
 69 496 l 1
 153 496 l 1
 165 555 l 1
 190.773597348 675.937649094 217.53365302 706 335 706 c 2
 384 706 l 1
 368 635 l 1
 328 635 l 2
 290.479766159 635 263.511020914 619.927349341 253 570 c 2
 237 496 l 1
 339 496 l 1
 325 428 l 1
 224 428 l 1
 125 -38 l 2
 106.257243236 -130.37501548 70.4658606198 -173 -6.43878163519 -173 c 0
 -26.575565822 -173 -47.881390212 -170.077602061 -72 -165 c 1
 -56 -90 l 1
EndSplineSet
EndChar

StartChar: integral
Encoding: 280 8747 152
Width: 306
GlyphClass: 1
Flags: W
HStem: -173 112<-14.8965 60.161> 569 112<229.717 305.43>
VStem: -30 99<-126.539 -70.0022> 104 84<-102.242 610.643> 221 100<578.074 633.879>
LayerCount: 2
Fore
SplineSet
187 495.143941665 m 0
 187 441.757944337 188 134.540334402 188 95.0422500537 c 0
 188 -73.2790916549 169.83956267 -105.430491997 149.032522624 -128.838412049 c 0
 118.428908622 -163.267477801 87.2388333562 -173 55.8241656027 -173 c 0
 37.064673836 -173 -30 -169.529415701 -30 -114.580328279 c 0
 -30 -83.5116715426 -8.56034453431 -61 19.752390825 -61 c 0
 45.3267144681 -61 69 -79.367599371 69 -114.732057649 c 0
 69 -120.666666667 68.3333333333 -124.333333333 67 -127 c 1
 100.416494553 -120.924273718 104 -88.9477096556 104 12.0740539139 c 0
 104 65.4395942852 103 373.273057456 103 441.734930823 c 0
 103 538.219001056 104.986157454 681 234.147948406 681 c 0
 256.858143193 681 321 676.585881195 321 621.976831043 c 0
 321 590.202847831 299.285211382 569 271.388314606 569 c 0
 241.484199882 569 221 593.363759618 221 619.260226115 c 0
 221 624.982004165 222 630.333333333 224 635 c 1
 190.613574218 628.929740767 187 596.627538159 187 495.143941665 c 0
EndSplineSet
EndChar

StartChar: approxequal
Encoding: 281 8776 153
Width: 605
GlyphClass: 1
Flags: W
HStem: 97 73<321.779 443.091> 151 74<145.175 277.835> 283 73<322.524 444.718> 337 74<144.557 279.017>
VStem: 57 75<120.947 137.366 306.947 323.729> 458 74<184.953 201.081 370.953 387.081>
LayerCount: 2
Fore
SplineSet
532 199 m 1x8c
 517.261566426 137.366550507 466.79551374 97 401.6991428 97 c 0x8c
 326.408182169 97 253.736752881 151 196.086811414 151 c 0
 179.450342028 151 141.1006094 146.503046998 132 101 c 1
 57 123 l 1
 63.8174524108 151.509346445 91.6111046188 225 191.037199616 225 c 0x4c
 277.050511976 225 343.074652088 170 395.667017749 170 c 0
 425.474572288 170 451.333458273 187.667291366 458 221 c 1
 532 199 l 1x8c
532 385 m 1
 517.261566426 323.366550507 466.79551374 283 401.6991428 283 c 0x2c
 326.408182169 283 253.736752881 337 196.086811414 337 c 0
 179.450342028 337 141.1006094 332.503046998 132 287 c 1
 57 309 l 1
 71.553581134 364.78872768 115.699880832 411 194.248115185 411 c 0x1c
 279.94081167 411 344.1438802 356 395.172405619 356 c 0x2c
 406.404547591 356 448.332956565 358.664782826 458 407 c 1
 532 385 l 1
EndSplineSet
EndChar

StartChar: notequal
Encoding: 282 8800 154
Width: 658
GlyphClass: 1
Flags: W
HStem: 0 21G<97 211.05> 121 79<73 182 337 569> 307 80<73 312 468 569> 476 20G<430.872 544>
VStem: 97 100<0 100> 445 99<397 496>
DStem2: 97 0 197 0 0.574348 0.818611<57.4348 147.872 301.566 374.798 529.886 605.904>
LayerCount: 2
Fore
SplineSet
97 0 m 1
 182 121 l 1
 73 121 l 1
 73 200 l 1
 238 200 l 1
 312 307 l 1
 73 307 l 1
 73 387 l 1
 368 387 l 1
 445 496 l 1
 544 496 l 1
 468 387 l 1
 569 387 l 1
 569 307 l 1
 412 307 l 1
 337 200 l 1
 569 200 l 1
 569 121 l 1
 282 121 l 1
 197 0 l 1
 97 0 l 1
EndSplineSet
EndChar

StartChar: lessequal
Encoding: 283 8804 155
Width: 651
GlyphClass: 1
Flags: W
HStem: 0 80<63 536> 100 90<446 536> 414 91<445 536>
VStem: 63 105<214.5 389.5>
LayerCount: 2
Fore
SplineSet
63 0 m 1
 63 80 l 1
 536 80 l 1
 536 0 l 1
 63 0 l 1
536 100 m 1
 63 267 l 1
 63 337 l 1
 536 505 l 1
 536 414 l 1
 168 302 l 1
 536 190 l 1
 536 100 l 1
EndSplineSet
EndChar

StartChar: greaterequal
Encoding: 284 8805 156
Width: 686
GlyphClass: 1
Flags: W
HStem: 0 80<98 571> 100 90<98 188> 414 91<98 189>
VStem: 466 105<214.5 389.5>
LayerCount: 2
Fore
SplineSet
98 0 m 1
 98 80 l 1
 571 80 l 1
 571 0 l 1
 98 0 l 1
98 100 m 1
 98 190 l 1
 466 302 l 1
 98 414 l 1
 98 505 l 1
 571 337 l 1
 571 267 l 1
 98 100 l 1
EndSplineSet
EndChar

StartChar: lozenge
Encoding: 285 9674 157
Width: 561
GlyphClass: 1
Flags: W
VStem: 58 87<271.5 358.5> 426 87<271.5 358.5>
DStem2: 58 315 145 315 0.506632 0.862163<44.077 321.569> 145 315 58 315 0.506632 -0.862163<0 277.492> 286 703 286 554 0.504977 -0.863133<128.607 405.592> 286 76 286 -73 0.504977 0.863133<0 276.986>
LayerCount: 2
Fore
SplineSet
286 76 m 1
 426 315 l 1
 286 554 l 1
 145 315 l 1
 286 76 l 1
286 -73 m 1
 58 315 l 1
 286 703 l 1
 513 315 l 1
 286 -73 l 1
EndSplineSet
EndChar

StartChar: summation
Encoding: 286 8721 158
Width: 763
GlyphClass: 1
Flags: W
HStem: -161 81<224 604> 587 81<224 604>
DStem2: 224 587 123 587 0.594187 -0.804327<0 353.998> 123 -80 224 -80 0.593035 0.805177<59.8965 414.816>
LayerCount: 2
Fore
SplineSet
123 -161 m 1
 123 -80 l 1
 369 254 l 1
 123 587 l 1
 123 668 l 1
 604 668 l 1
 604 587 l 1
 224 587 l 1
 469 254 l 1
 224 -80 l 1
 604 -80 l 1
 604 -161 l 1
 123 -161 l 1
EndSplineSet
EndChar

StartChar: minus
Encoding: 287 8722 159
Width: 619
GlyphClass: 1
Flags: W
HStem: 209 79<42 538>
LayerCount: 2
Fore
SplineSet
42 209 m 1
 42 288 l 1
 538 288 l 1
 538 209 l 1
 42 209 l 1
EndSplineSet
EndChar

StartChar: uni2215
Encoding: 288 8725 160
Width: 444
GlyphClass: 1
Flags: W
HStem: 0 21G<-47 55.012> 648 20G<406.988 509>
VStem: -47 88<0 88> 421 88<580 668>
DStem2: -47 0 41 0 0.573791 0.819001<50.4936 815.627>
LayerCount: 2
Fore
SplineSet
-47 0 m 1
 421 668 l 1
 509 668 l 1
 41 0 l 1
 -47 0 l 1
EndSplineSet
EndChar

StartChar: uni2219
Encoding: 289 8729 161
Width: 237
GlyphClass: 1
Flags: W
HStem: 191 129<62.841 158.273>
VStem: 46 129<208.156 303.241>
LayerCount: 2
Fore
SplineSet
175 255.846683649 m 0
 175 220.91911056 146.590775086 191 109.530460796 191 c 0
 71.823607971 191 46 221.972128627 46 255.70298524 c 0
 46 291.521671392 75.1193369919 320 110.504090414 320 c 0
 146.204900502 320 175 291.010662432 175 255.846683649 c 0
EndSplineSet
EndChar

StartChar: radical
Encoding: 290 8730 162
Width: 513
GlyphClass: 1
Flags: W
HStem: -161 21G<257.157 367.639> 145 80<39 145> 649 20G<423.516 515>
VStem: 427 88<581 669>
DStem2: 201 225 145 145 0.365088 -0.930973<54.033 281.519> 304 -37 364 -161 0.17899 0.983851<0 716.615>
LayerCount: 2
Fore
SplineSet
265 -161 m 1
 145 145 l 1
 39 145 l 1
 39 225 l 1
 201 225 l 1
 304 -37 l 1
 427 669 l 1
 515 669 l 1
 364 -161 l 1
 265 -161 l 1
EndSplineSet
EndChar

StartChar: infinity
Encoding: 291 8734 163
Width: 780
GlyphClass: 1
Flags: W
HStem: 104 76<155.671 279.805 486.279 608.628> 198 119<323.5 442.5> 330 76<153.219 280.141 485.619 611.219>
VStem: 49 81<205.067 306.806> 635 81<205.989 306.788>
LayerCount: 2
Fore
SplineSet
431 256 m 1
 477.703520461 199.955775447 510.075464852 180 549.209863342 180 c 0
 599.695749828 180 635 213.211711404 635 256.946443927 c 0
 635 302.072199855 597.414267149 330 550.974239161 330 c 0
 502.445345285 330 467.705925977 299.503319676 431 256 c 1
130 256.776067198 m 0
 130 214.029148559 164.466224746 180 215.753909942 180 c 0
 255.092054145 180 289.682429839 200.019472154 335 256 c 1
 296.611594864 301.49736905 262.799701529 330 214.844958024 330 c 0
 166.057075116 330 130 300.498387763 130 256.776067198 c 0
383 198 m 1
 335.871162637 146.71273581 280.643417165 104 205.041339217 104 c 0
 112.480247823 104 49 168.024597698 49 254.867615201 c 0
 49 345.981128934 118.87702286 406 209.89571493 406 c 0
 284.490350965 406 338.485893176 365.687304339 383 317 c 1
 434.590250672 373.426836672 486.438332068 406 553.857827721 406 c 0
 645.951887609 406 716 345.221192336 716 254.094922716 c 0
 716 165.274375184 649.451825856 104 560.079963389 104 c 0
 485.650309359 104 430.326091775 146.498076598 383 198 c 1
EndSplineSet
EndChar

StartChar: uni03A9
Encoding: 292 937 164
Width: 773
GlyphClass: 1
Flags: W
HStem: 0 173<259.521 311 426 476.871> 0 81<75 226 511 662> 606 74<273.729 461.162>
VStem: 75 73<290.305 478.111> 226 85<81 142.494> 426 85<81 142.736> 589 73<292.257 479.814>
LayerCount: 2
Fore
SplineSet
148 384.853982606 m 0xbe
 148 285.948617006 212.877376255 200.140300185 311 173 c 1
 311 0 l 1xbe
 75 0 l 1
 75 81 l 1
 226 81 l 1
 226 130 l 1
 137.87824451 179.979503114 75 273.18457039 75 385.804909482 c 0
 75 547.688736013 204.919299381 680 368.058259169 680 c 0
 531.298796243 680 662 547.523919427 662 385.337274502 c 0
 662 275.665990616 602.236604671 180.985161434 511 130 c 1
 511 81 l 1
 662 81 l 1
 662 0 l 1x7e
 426 0 l 1
 426 173 l 1
 522.483891678 199.687033868 589 283.962590965 589 384.145017008 c 0
 589 505.911844877 490.734350769 606 369.009025605 606 c 0
 248.550645617 606 148 507.984483272 148 384.853982606 c 0xbe
EndSplineSet
EndChar

StartChar: estimated
Encoding: 293 8494 165
Width: 628
GlyphClass: 1
Flags: W
HStem: -12 32<226.177 390.834> 248 31<156 460> 472 32<226.812 388.25>
VStem: 50 106<142.783 248 279 344.938> 460 106<279 350.134>
LayerCount: 2
Fore
SplineSet
298.722380723 472 m 0
 292.169090383 472 218.99181984 471.792365184 156 413 c 1
 156 279 l 1
 460 279 l 1
 460 413 l 1
 434.168066512 437.109804589 383.671918812 472 298.722380723 472 c 0
511 87 m 1
 491.072664865 61.3791405405 424.029977194 -12 309.165565616 -12 c 0
 168.192265988 -12 50 98.5287774672 50 244.365247655 c 0
 50 386.599365778 162.425373628 504 306.502078388 504 c 0
 445.149497243 504 566 395.280740204 566 248 c 1
 156 248 l 1
 156 78 l 1
 181.794927379 54.784565359 233.00486309 20 305.761679878 20 c 0
 341.082418213 20 417.060932471 28.1978269836 478 97 c 1
 511 87 l 1
EndSplineSet
EndChar

StartChar: partialdiff
Encoding: 294 8706 166
Width: 595
GlyphClass: 1
Flags: W
HStem: -12 73<217.584 358.797> 430 74<216.33 361.975> 598 82<140 303.861>
VStem: 51 89<144.17 345.967> 437 91<145.233 341.202>
LayerCount: 2
Fore
SplineSet
140 247.174027818 m 0
 140 113.821741353 221.689133549 61 287.974151047 61 c 0
 346.082247608 61 437 101.593384543 437 244.589750032 c 0
 437 384.413259614 350.072119651 430 289.329008216 430 c 0
 230.934551896 430 140 387.870363653 140 247.174027818 c 0
528 302.644069745 m 0
 528 176.772411288 497.288895812 -12 297.165241028 -12 c 0
 166.138630176 -12 51 68.9208968365 51 245.998464562 c 0
 51 445.89664899 197.727548519 504 284.438775746 504 c 0
 307.198137264 504 381.002289935 499.997137581 421 450 c 1
 387.61799953 556.822401503 306.854958116 602.980745018 140 598 c 1
 140 680 l 1
 251.979154773 680 528 680 528 302.644069745 c 0
EndSplineSet
EndChar

StartChar: uni0394
Encoding: 295 916 167
Width: 759
GlyphClass: 1
Flags: W
HStem: 0 78<116 518> 660 20G<307.412 326.618>
DStem2: -9 0 116 78 0.4323 0.90173<124.372 589.991> 317 680 317 498 0.433377 -0.901213<164.021 629.639>
LayerCount: 2
Fore
SplineSet
116 78 m 1
 518 78 l 1
 317 498 l 1
 116 78 l 1
-9 0 m 1
 317 680 l 1
 644 0 l 1
 -9 0 l 1
EndSplineSet
EndChar

StartChar: product
Encoding: 296 8719 168
Width: 761
GlyphClass: 1
Flags: W
HStem: -161 21G<133 214 530 612> 587 81<214 530>
VStem: 133 81<-161 587> 530 82<-161 587>
LayerCount: 2
Fore
SplineSet
133 -161 m 1
 133 668 l 1
 612 668 l 1
 612 -161 l 1
 530 -161 l 1
 530 587 l 1
 214 587 l 1
 214 -161 l 1
 133 -161 l 1
EndSplineSet
EndChar

StartChar: pi
Encoding: 297 960 169
Width: 590
GlyphClass: 1
Flags: W
HStem: 0 75<430.156 488> 416 80<63 129 212 406 492 576>
VStem: 41 83<0 83> 338 90<45.4287 166.602>
DStem2: 41 0 124 0 0.207912 0.978148<17.2567 425.206> 318.43 0 405.894 0 0.207912 0.978148<103.329 425.116>
LayerCount: 2
Fore
SplineSet
437 0 m 2
 362.434152575 0 338 22.2385544285 338 68.6187500804 c 0
 338 82.887298852 340.312553224 100.000283859 345 125 c 2
 406 416 l 1
 212 416 l 1
 124 0 l 1
 41 0 l 1
 129 416 l 1
 46 416 l 1
 63 496 l 1
 594 496 l 1
 576 416 l 1
 492 416 l 1
 434 140 l 1
 428 104 428 104 428 104 c 0
 428 83.7175079697 437.423422211 75 472 75 c 2
 504 75 l 1
 488 0 l 1
 437 0 l 2
EndSplineSet
EndChar

StartChar: hungarumlaut
Encoding: 298 733 170
Width: 394
GlyphClass: 1
Flags: W
HStem: 572 136<249 273.909>
VStem: 103 329
LayerCount: 2
Fore
SplineSet
432 660.759825208 m 0
 432 648.564261074 429.520163356 643.680108904 322 572 c 1
 249 572 l 1
 373 708 376.383134895 708 376.383134895 708 c 0
 418.730727054 708 432 688.970529043 432 660.759825208 c 0
287 663.688594129 m 0
 287 648.26364498 282.828117944 642.552078629 177 572 c 1
 103 572 l 1
 133.2273104 603.666706133 202.31605654 677.755915702 215.576501763 691.489948254 c 0
 223.39925588 699.592086447 232.368378984 708 249.523875389 708 c 0
 273.908514812 708 287 691.013091967 287 663.688594129 c 0
EndSplineSet
EndChar

StartChar: tilde
Encoding: 299 732 171
Width: 420
GlyphClass: 1
Flags: W
HStem: 575 63<288.475 388.28> 617 63<167.04 281.101>
LayerCount: 2
Fore
SplineSet
454 652.228093145 m 0x40
 454 627.569383579 413.082843905 575 348.297886723 575 c 0x80
 290.390711648 575 266.840404513 617 215.659627067 617 c 0
 186.822525854 617 167 603.666666667 155 577 c 1
 90 577 l 1
 108.973104184 627.278726089 146.740895563 680 217.52006827 680 c 0x40
 280.693894215 680 305.511311114 638 344.145283118 638 c 0x80
 382.779255122 638 396.273848945 680 424.726060966 680 c 0
 441.11410111 680 454 666.066145987 454 652.228093145 c 0x40
EndSplineSet
EndChar

StartChar: endash
Encoding: 300 8211 172
Width: 497
GlyphClass: 1
Flags: W
HStem: 208 79<40 438>
LayerCount: 2
Fore
SplineSet
40 208 m 1
 40 287 l 1
 438 287 l 1
 438 208 l 1
 40 208 l 1
EndSplineSet
EndChar

StartChar: emdash
Encoding: 301 8212 173
Width: 817
GlyphClass: 1
Flags: W
HStem: 208 79<40 758>
LayerCount: 2
Fore
SplineSet
40 208 m 1
 40 287 l 1
 758 287 l 1
 758 208 l 1
 40 208 l 1
EndSplineSet
EndChar

StartChar: trademark
Encoding: 302 8482 174
Width: 928
GlyphClass: 1
Flags: W
HStem: 292 92<592 756> 608 60<133 251 318 436>
VStem: 251 67<292 608> 473 67<292 571> 808 67<292 571>
DStem2: 581 668 540 571 0.311204 -0.950343<79.4239 298.839> 674 384 710 292 0.311204 0.950343<0 219.415>
LayerCount: 2
Fore
SplineSet
251 292 m 1
 251 608 l 1
 133 608 l 1
 133 668 l 1
 436 668 l 1
 436 608 l 1
 318 608 l 1
 318 292 l 1
 251 292 l 1
473 292 m 1
 473 668 l 1
 581 668 l 1
 674 384 l 1
 767 668 l 1
 875 668 l 1
 875 292 l 1
 808 292 l 1
 808 571 l 1
 710 292 l 1
 638 292 l 1
 540 571 l 1
 540 292 l 1
 473 292 l 1
EndSplineSet
EndChar

StartChar: Euro
Encoding: 303 8364 175
Width: 697
GlyphClass: 1
Flags: W
HStem: -12 79<294.766 472.586> 240 51<43 117.937 208 332> 376 51<72 129 238 435> 499 21G<597.078 661.621> 600 79<366.953 541.614>
VStem: 116 92<160.323 240 291 374.551>
LayerCount: 2
Fore
SplineSet
631 139 m 1
 588.076248397 67.4604139942 507.720522992 -12 364.682305744 -12 c 0
 272.518395163 -12 189.039438209 20.9889455341 143.778043128 121.956673023 c 0
 127.969830878 157.221146502 118.666666667 196.666666667 116 240 c 1
 4 240 l 1
 43 291 l 1
 116 291 l 1
 118 319 122.333333333 347.333333333 129 376 c 1
 33 376 l 1
 72 427 l 1
 144 427 l 1
 168.384808095 497.340792582 252.086492422 679 470.706104142 679 c 0
 510.21827266 679 646.552545533 673.066090636 688 528 c 1
 603 499 l 1
 591.156193802 536.011894369 556.266587297 600 458.178713294 600 c 0
 359.883029741 600 280.959200395 535.740476 238 427 c 1
 474 427 l 1
 435 376 l 1
 221 376 l 1
 212.907418905 344.978439137 209.562624004 320.470176047 207 291 c 1
 370 291 l 1
 332 240 l 1
 208 240 l 1
 212.974831316 191.495394667 239.622400944 67 383.078200958 67 c 0
 455.016733151 67 510.64971598 98.3069102046 556 169 c 1
 631 139 l 1
EndSplineSet
EndChar

StartChar: uni2113
Encoding: 304 8467 176
Width: 451
GlyphClass: 1
Flags: W
HStem: -12 73<180.529 293.384> 609 70<281.179 363.253>
VStem: 367 80<484.832 605.045>
DStem2: 39 227 98 188 0.839193 0.543834<0 28.3028 213.3 333.828> 56.0233 -12 142.353 -12 0.207912 0.978148<114.291 204.357 296.341 305.389 380.919 646.571>
LayerCount: 2
Fore
SplineSet
367 565.008204812 m 0
 367 596.725336151 352.560957114 609 325.228954927 609 c 0
 289.245625576 609 269.678775284 587.725008187 255 517 c 2
 218 343 l 1
 308.14717906 398.805396561 367 500.974542763 367 565.008204812 c 0
345 42 m 1
 328.849514006 28.3342041591 274.492433388 -12 192.883783334 -12 c 0
 75.9645195308 -12 75.1026888784 70.7891166115 87.8874012211 137.908856411 c 0
 89.255601568 145.091908232 92.6666666667 162 98 188 c 1
 20 138 l 1
 39 227 l 1
 117 278 l 1
 166 506 l 2
 188.849467814 611.361434922 227.649369031 679 327.644507216 679 c 0
 385.741754682 679 447 656.1678016 447 561.441975495 c 0
 447 448.377345287 359.726723071 353.012240706 198 251 c 1
 177 151 l 2
 163.172008385 87.3912385713 180.11381047 61 223.528524316 61 c 0
 258.104056299 61 290.390813351 77.7387733462 321 100 c 1
 345 42 l 1
EndSplineSet
EndChar

StartChar: Lslash
Encoding: 305 321 177
Width: 572
GlyphClass: 1
Flags: W
HStem: 0 82<158 500> 484 20G<389.778 422.89> 648 20G<182.745 283>
VStem: 187 96<572 668>
DStem2: 18 287 3 214 0.883367 0.468681<0 64.3605 234.827 415.537> 45 0 140.57 0 0.207912 0.978148<103.702 272.038 346.562 351.225 424.978 682.926>
LayerCount: 2
Fore
SplineSet
45 0 m 1
 102 266 l 1
 3 214 l 1
 18 287 l 1
 117 339 l 1
 187 668 l 1
 283 668 l 1
 226 396 l 1
 427 504 l 1
 412 431 l 1
 210 324 l 1
 158 82 l 1
 517 82 l 1
 500 0 l 1
 45 0 l 1
EndSplineSet
EndChar

StartChar: lslash
Encoding: 306 322 178
Width: 273
GlyphClass: 1
Flags: W
HStem: 0 75<132.821 196> 648 20G<158.767 249>
VStem: 40 91<45.6641 191.539> 163 86<582 668>
DStem2: 18 303 79 272 0.884496 0.466547<0 39.4913 194.123 262.258> 20.4304 0 106.242 0 0.207912 0.978148<125.416 278.233 419.668 683.044>
LayerCount: 2
Fore
SplineSet
131 104.266470203 m 0
 131 84.0596288775 140.761723574 75 174 75 c 2
 212 75 l 1
 196 0 l 1
 140 0 l 2
 61.6669793827 0 40 23.8878483687 40 67.4402913496 c 0
 40 82.9148736415 42.735339255 102.255142693 47 125 c 2
 79 272 l 1
 3 232 l 1
 18 303 l 1
 94 342 l 1
 163 668 l 1
 249 668 l 1
 190 393 l 1
 291 447 l 1
 276 376 l 1
 175 323 l 1
 136 140 l 2
 133.171724599 125.858622997 131 113.797450106 131 104.266470203 c 0
EndSplineSet
EndChar

StartChar: oslash
Encoding: 248 248 179
Width: 548
GlyphClass: 1
Flags: W
HStem: -12 74<163.469 311.339> 430 74<212.946 368.942>
VStem: 27 89<149.664 314.501> 413 90<183.675 347.092>
DStem2: -10 26 25 -11 0.728741 0.68479<0.168716 80.5047 179.694 524.387 618.953 705.326>
AnchorPoint: "Anchor-1" 321 496 basechar 0
LayerCount: 2
Fore
SplineSet
236.007712873 62 m 0
 363.230517627 62 413 200.228928695 413 297.311469907 c 0
 413 316.772891985 411 334 407 348 c 1
 145 102 l 1
 165.666666667 75.3333333333 196.495180649 62 236.007712873 62 c 0
292.993034325 430 m 0
 162.08575315 430 116 299.169068957 116 194.367363749 c 0
 116 177.99414151 117.124859562 163.208848271 121 149 c 1
 384 395 l 1
 366.097700781 415.008452068 337.306102997 430 292.993034325 430 c 0
503 295.711306051 m 0
 503 140.905076923 396.832778473 -12 228.607073471 -12 c 0
 185.755100478 -12 127.078465735 -2.07846573531 82 43 c 1
 25 -11 l 1
 -10 26 l 1
 52 84 l 1
 35.3333333333 115.333333333 27 154.360034469 27 200.243275621 c 0
 27 373.825370748 146.267036695 504 300.330767524 504 c 0
 338.223724867 504 396.203552663 496.125145647 443 451 c 1
 504 509 l 1
 539 472 l 1
 475 411 l 1
 496.153005568 373.575451687 503 335.024940345 503 295.711306051 c 0
EndSplineSet
EndChar

StartChar: Oslash
Encoding: 216 216 180
Width: 725
GlyphClass: 1
Flags: W
HStem: -12 79<237.964 425.012> 600 79<316.242 502.133>
VStem: 53 95<181.79 394.223> 594 95<265.169 497.247>
DStem2: 4 32 39 -4 0.728976 0.684539<0.870751 109.116 217.175 735.241 837.353 945.161>
AnchorPoint: "Anchor-1" 438 668 basechar 0
LayerCount: 2
Fore
SplineSet
187 134 m 1
 215.819185989 94.3736192652 260.539505374 67 329.451574054 67 c 0
 505.340027811 67 594 245.326674174 594 394.062783493 c 0
 594 433.81568152 587.666666667 468.666666667 575 498 c 1
 187 134 l 1
411.22102608 600 m 0
 225.323408594 600 148 399.952118435 148 268.823209714 c 0
 148 236.609084518 152.666666667 207.666666667 162 181 c 1
 547 542 l 1
 514.333333333 580.666666667 469.012026797 600 411.22102608 600 c 0
689 400.635343421 m 0
 689 208.736481149 564.345923577 -12 317.41579824 -12 c 0
 227.929682042 -12 162.855233003 16.9892700874 118 70 c 1
 39 -4 l 1
 4 32 l 1
 89 112 l 1
 65 156 53 207.620423117 53 267.106061685 c 0
 53 451.952053286 168.871616192 679 424.109895959 679 c 0
 510.985136959 679 570.972126412 652.696229563 615 606 c 1
 693 679 l 1
 728 642 l 1
 647 566 l 1
 675 520 689 464.946034289 689 400.635343421 c 0
EndSplineSet
EndChar

StartChar: Thorn
Encoding: 222 222 181
Width: 583
GlyphClass: 1
Flags: W
HStem: 155 81<151 401.422> 438 81<211 433.048>
VStem: 13 86<-8 78> 155 86<573 659> 460 102<286.768 414.735>
DStem2: 13 -8 99 -8 0.207912 0.978148<17.8804 184.595 267.36 473.886 556.65 681.948>
LayerCount: 2
Fore
SplineSet
460 356.417158534 m 0
 460 416.698316052 426.836128811 438 329 438 c 2
 194 438 l 1
 151 236 l 1
 287 236 l 2
 329.926436529 236 460 237.033882495 460 356.417158534 c 0
338 519 m 2
 521.678990438 519 562 450.771334993 562 378.068624947 c 0
 562 348.883830329 555.502542003 235.822904882 453.886756904 186.791512072 c 0
 410.083223703 165.655541507 345.666666667 155 261 155 c 2
 134 155 l 1
 99 -8 l 1
 13 -8 l 1
 155 659 l 1
 241 659 l 1
 211 519 l 1
 338 519 l 2
EndSplineSet
EndChar

StartChar: ae
Encoding: 230 230 182
Width: 870
GlyphClass: 1
Flags: W
HStem: -12 74<493.174 662.923> 225 67<166.635 359 456 749> 432 72<202.505 359.558 545.26 701.11>
VStem: 6 94<73.7648 175.836> 749 88<292.471 382.504>
AnchorPoint: "Anchor-1" 458 496 basechar 0
LayerCount: 2
Fore
SplineSet
100 123.722001132 m 0
 100 35.1895237866 225.546842882 37.6011293316 297.333733154 105.687664435 c 0
 327.013259392 133.837318187 348.333333333 174 359 224 c 1
 238.901394437 224 100 216.844157006 100 123.722001132 c 0
749 306.444056083 m 0
 749 379.98083092 705.592049636 432 632.976615535 432 c 0
 615.255176649 432 486.422631658 428.90184246 456 292 c 1
 748 292 l 1
 748.666666667 295.333333333 749 300 749 306.444056083 c 0
382 100 m 1
 359.224972091 64.5721788075 294.767297301 -12 167.418054919 -12 c 0
 80.6353504139 -12 6 23.5585984119 6 122.878119996 c 0
 6 262.992545089 154.539184994 292 367 292 c 1
 370.672462445 305.955357289 377 332.856124476 377 357.622659252 c 0
 377 400.947731497 357.636545915 435 289.417992119 435 c 0
 251.504280705 435 189.547550537 424.481988709 160 358 c 1
 84 382 l 1
 109.183368703 437.403411146 165.186690261 504 287.031707653 504 c 0
 330.950755099 504 412.463095118 495.347486999 446 432 c 1
 496 480 558.494466308 504 631.466611314 504 c 0
 791.519774897 504 837 388.541598021 837 298.248303104 c 0
 837 275.058085392 834 250.333333333 828 225 c 1
 443 225 l 1
 442.333333333 220.333333333 442 213.333333333 442 205.479390667 c 0
 442 139.520454757 465.509888723 62 575.154359202 62 c 0
 608.371077645 62 659.018572597 69.1146951021 699 111 c 1
 777 87 l 1
 748.089160992 49.5859730487 683.009420608 -12 570.684070633 -12 c 0
 512.541426613 -12 425.068081592 4.5012103829 382 100 c 1
EndSplineSet
EndChar

StartChar: eth
Encoding: 240 240 183
Width: 569
GlyphClass: 1
Flags: W
HStem: -12 71<166.453 321.342> 370 75<191.71 348.139> 603 76<237 350.334>
VStem: 24 83<120.332 285.889>
DStem2: 273 509 301 473 0.771281 0.636494<0 109.342 205.333 265.77>
LayerCount: 2
Fore
SplineSet
107 200.832858225 m 0
 107 124.633892639 154.852656204 59 243.570296865 59 c 0
 340.654485112 59 400 137.596861115 400 229.805386633 c 0
 400 267.713210123 389.969941942 370 272.852245533 370 c 0
 166.6690817 370 107 285.921330869 107 200.832858225 c 0
357 579 m 1
 320.451706353 598.579443025 275.465855943 605.723292797 221 603 c 1
 237 679 l 1
 313.959531954 681.700334455 376.370510725 669.172073545 425 635 c 1
 478 679 l 1
 507 643 l 1
 460 605 l 1
 588.225773491 465.460187672 541.65489286 -12 242.19331266 -12 c 0
 105.780407069 -12 24 87.0754057228 24 204.204022728 c 0
 24 337.021829129 129.156432417 445 265.335422102 445 c 0
 375.285681143 445 424.673310017 374.610437729 437 339 c 1
 439.768653452 361.149227614 441 380.846585742 441 399.386910052 c 0
 441 448.609704097 432.320830538 508.195457595 394 550 c 1
 301 473 l 1
 273 509 l 1
 357 579 l 1
EndSplineSet
EndChar

StartChar: thorn
Encoding: 254 254 184
Width: 557
GlyphClass: 1
Flags: W
HStem: -161 21G<-26 64.3137> -12 72<191.037 322.64> 432 72<240.814 374.085> 648 20G<145.754 236>
VStem: -26 86<-161 -75> 150 86<582 668>
DStem2: -26 -161 60 -161 0.207912 0.978148<17.8804 278.743 630.404 847.477>
LayerCount: 2
Fore
SplineSet
141 216.906264169 m 0
 141 185.69381246 146.923944268 60 253.438679954 60 c 0
 406.0290224 60 461.125518359 317.957765607 384.895738628 401.447524359 c 0
 366.613571181 421.470850612 340.28385064 432 308.335391864 432 c 0
 203.249953301 432 141 318.085621465 141 216.906264169 c 0
268.4801095 -12 m 0
 186.080410813 -12 132.475046024 36.1979246901 115 94 c 1
 60 -161 l 1
 -26 -161 l 1
 150 668 l 1
 236 668 l 1
 188 438 l 1
 204.241502315 458.789122963 246.509845951 504 326.25728823 504 c 0
 376.280829762 504 510 486.210723855 510 288.51943532 c 0
 510 107.993586308 398.494214584 -12 268.4801095 -12 c 0
EndSplineSet
EndChar

StartChar: multiply
Encoding: 215 215 185
Width: 593
GlyphClass: 1
Flags: W
HStem: 193 115<230.5 345.5>
DStem2: 134 462 77 404 0.707107 -0.707107<0.707107 217.789 299.813 516.188> 77 97 134 39 0.707107 0.707107<0 217.082 298.399 515.481>
LayerCount: 2
Fore
SplineSet
134 39 m 1
 77 97 l 1
 231 250 l 1
 77 404 l 1
 134 462 l 1
 288 308 l 1
 442 462 l 1
 499 404 l 1
 346 250 l 1
 499 97 l 1
 442 39 l 1
 288 193 l 1
 134 39 l 1
EndSplineSet
EndChar

StartChar: divide
Encoding: 247 247 186
Width: 619
GlyphClass: 1
Flags: W
HStem: 14 129<251.706 347.596> 208 81<52 548> 354 129<251.733 347.716>
VStem: 235 129<30.8615 126.268 370.277 466.261>
CounterMasks: 1 e0
LayerCount: 2
Fore
SplineSet
364 78.5174463534 m 0
 364 42.7590313567 336.313192304 14 299.929267773 14 c 0
 263.292682507 14 235 43.1598406536 235 78.5652955435 c 0
 235 114.171787973 263.614894983 143 299.90662308 143 c 0
 336.009066381 143 364 114.471719242 364 78.5174463534 c 0
52 208 m 1
 52 289 l 1
 548 289 l 1
 548 208 l 1
 52 208 l 1
364 417.994701718 m 0
 364 381.659397559 336.326685667 354 299.990903348 354 c 0
 263.666439677 354 235 381.642168361 235 417.995662405 c 0
 235 454.3359615 263.645633779 483 299.989263605 483 c 0
 336.343785347 483 364 454.318778127 364 417.994701718 c 0
EndSplineSet
EndChar

StartChar: OE
Encoding: 307 338 187
Width: 1070
GlyphClass: 1
Flags: W
HStem: -12 80<236.943 426.671> 0 82<631 974> 304 80<696 944> 587 81<739 1098> 601 79<316.347 504.443>
VStem: 53 95<165.32 399.186>
LayerCount: 2
Fore
SplineSet
148 276.076724416 m 0xac
 148 232.480584516 157.124044808 68 328.046129556 68 c 0
 510.911489193 68 594 256.270019231 594 390.590476604 c 0
 594 433.682152468 585.448477945 601 413.333484298 601 c 0
 226.585436332 601 148 404.022327956 148 276.076724416 c 0xac
551 80 m 1
 514.545388503 45.323662235 438.668415112 -12 315.499713149 -12 c 0
 106.853261096 -12 53 152.495949125 53 274.720601839 c 0
 53 456.065476175 171.550926679 680 420.304267065 680 c 0xac
 496.767814218 680 595.623650006 658.841148376 652 557 c 1
 676 668 l 1
 1115 668 l 1
 1098 587 l 1
 739 587 l 1
 696 384 l 1
 961 384 l 1
 944 304 l 1
 678 304 l 1
 631 82 l 1
 991 82 l 1
 974 0 l 1
 534 0 l 1x74
 551 80 l 1
EndSplineSet
EndChar

StartChar: oe
Encoding: 308 339 188
Width: 910
GlyphClass: 1
Flags: W
HStem: -12 74<535.128 703.383> 226 67<497 790> 430 74<210.099 367.989 581.831 749.285>
VStem: 26 88<111.978 313.221> 790 87<293.084 386.334>
LayerCount: 2
Fore
SplineSet
291.487215939 430 m 0
 117.235848276 430 114 212.241643533 114 191.835393268 c 0
 114 3.55822374973 389.45905556 5.23819444071 410.906913537 273.336419213 c 0
 411.657752481 282.721906009 412 291.217750169 412 298.900382165 c 0
 412 354.982868492 393.762102692 430 291.487215939 430 c 0
790 307.146292001 m 0
 790 336.639846995 781.418987752 432 674.605567333 432 c 0
 655.181438421 432 525.815915675 428.84645961 497 293 c 1
 789 293 l 1
 789.666666667 296.333333333 790 301.333333333 790 307.146292001 c 0
424 86 m 1
 390.66954765 41.5593968672 329.859192703 -12 227.42061508 -12 c 0
 166.789915174 -12 116.739938447 6.76263205453 79.9758458203 44.5385804415 c 0
 44.0732717802 81.4292987212 26 131.151887338 26 191.962821842 c 0
 26 240.561654679 37.5431703024 429.847723435 218.138866765 490.046288922 c 0
 246.441053287 499.480351096 273.662997277 504 302.52192419 504 c 0
 370.053479743 504 429.066452156 479.250988939 467 406 c 1
 490.732494398 437.869349621 554.519240074 504 672.948629275 504 c 0
 815.298986959 504 877 408.456545316 877 300.845089639 c 0
 877 277.116442056 874 252 868 226 c 1
 484 226 l 1
 483.333333333 221.333333333 483 214.666666667 483 206.605187403 c 0
 483 133.551840629 510.373447469 62 615.827619252 62 c 0
 648.547078407 62 700.716542051 68.8881962563 739 111 c 1
 817 87 l 1
 779.03095629 38.3521627466 713.574807536 -12 606.07211635 -12 c 0
 516.130282682 -12 461.385695574 23.2454395719 424 86 c 1
EndSplineSet
EndChar

StartChar: Aring
Encoding: 197 197 192
Width: 627
GlyphClass: 2
Flags: W
HStem: 0 21G<-52 67.3699 459.123 565> 146 80<184 430> 779 58<361.625 446.427>
VStem: 295 57<686.491 769.474> 456 57<686.817 769.016> 462 103<0 103>
DStem2: -52 0 56 0 0.506117 0.862465<54.6606 222.588 314.361 713.341>
AnchorPoint: "Anchor-2" 513 10 basechar 0
AnchorPoint: "Anchor-1" 427 837 basechar 0
AnchorPoint: "Anchor-0" 261 0 basechar 0
LayerCount: 2
Fore
SplineSet
513 730.015985176 m 0xf8
 513 713.877546941 509.382908738 664.047128498 461.529416443 634.113301064 c 1
 565 0 l 1
 462 0 l 1xf4
 441 146 l 1
 139 146 l 1
 56 0 l 1
 -52 0 l 1
 329.289960047 649.749217631 l 1
 315.929929127 662.530745268 295 688.892047117 295 727.557718658 c 0
 295 786.070538037 342.931243066 837 405.663026636 837 c 0
 467.765598253 837 513 787.087079045 513 730.015985176 c 0xf8
184 226 m 1
 430 226 l 1
 381 573 l 1
 184 226 l 1
352 727.968501885 m 0
 352 699.700616942 374.402428243 677 403.995826045 677 c 0
 433.64273894 677 456 699.782792302 456 728.025537713 c 0xf8
 456 756.258122524 433.658822526 779 404.030740776 779 c 0
 374.378794635 779 352 756.221472185 352 727.968501885 c 0
EndSplineSet
EndChar

StartChar: Ccedilla
Encoding: 199 199 203
Width: 661
GlyphClass: 2
Flags: W
HStem: -181 41<179.903 296.556> -82 39<250.52 303.722> -12 79<305.694 429.037> 498 21G<560.554 625.333> 600 80<318.206 502.667>
VStem: 53 96<166.254 399.546> 304 63<-131.492 -83.3846>
AnchorPoint: "Anchor-1" 420 668 basechar 0
AnchorPoint: "Anchor-0" 257 -181 basechar 0
LayerCount: 2
Fore
SplineSet
367 -96.331959022 m 0
 367 -135.18198519 327.334230088 -181 256.447058301 -181 c 0
 230.794827394 -181 200.333333333 -175 167 -163 c 1
 190 -126 l 1
 216.736764095 -137.009255804 233.625663879 -140 247.325132745 -140 c 0
 282.827617387 -140 304 -119.91419206 304 -102.648183522 c 0
 304 -86.7311483302 286.006726391 -82 266.634010427 -82 c 0
 246.718463799 -82 245.757337815 -87 233.85570566 -87 c 0
 221.939960084 -87 216 -81.9881345772 216 -71.9644037317 c 0
 216 -66.6548012439 217.666666667 -61.6666666667 221 -57 c 2
 261.320635338 -8.37805738663 l 1
 131.458316321 10.3555809395 53 110.586188136 53 264.642390732 c 0
 53 469.388982092 191.584279322 680 432.666053729 680 c 0
 459.535751166 680 608.438828614 677.383758196 655 528 c 1
 566 498 l 1
 555.10776644 532.038229876 519.737513435 600 413.716720314 600 c 0
 241.605336888 600 149 420.897447496 149 275.677032636 c 0
 149 168.920816861 199.045728025 67 333.6865531 67 c 0
 409.103958562 67 467.985394401 98.9780916012 516 171 c 1
 595 140 l 1
 552.720374152 71.6329454381 469.414230959 -12 314.87949699 -12 c 0
 311.825401026 -12 308.764916118 -11.967334408 305.6942422 -11.9020032241 c 1
 278 -45 l 1
 287.324484421 -43.6679307969 294.091977069 -43 301.402045841 -43 c 0
 346.45758256 -43 367 -68.3737629302 367 -96.331959022 c 0
EndSplineSet
EndChar

StartChar: ccedilla
Encoding: 231 231 204
Width: 495
GlyphClass: 2
Flags: W
HStem: -181 41<79.9032 196.556> -82 39<150.52 203.722> -12 74<205.968 315.9> 430 74<215.662 365.732>
VStem: 26 92<110.597 310.646> 204 63<-131.492 -83.3846>
AnchorPoint: "Anchor-1" 301 496 basechar 0
AnchorPoint: "Anchor-0" 195 0 basechar 0
LayerCount: 2
Fore
SplineSet
267 -96.331959022 m 0
 267 -135.18198519 227.334230088 -181 156.447058301 -181 c 0
 130.794827394 -181 100.333333333 -175 67 -163 c 1
 90 -126 l 1
 116.736764095 -137.009255804 133.625663879 -140 147.325132745 -140 c 0
 182.827617387 -140 204 -119.91419206 204 -102.648183522 c 0
 204 -86.7311483298 186.00672639 -82 166.634010427 -82 c 0
 146.718463799 -82 145.757337815 -87 133.85570566 -87 c 0
 121.939960084 -87 116 -81.9881345772 116 -71.9644037317 c 0
 116 -66.6548012439 117.666666667 -61.6666666667 121 -57 c 2
 163.584278968 -5.64836947988 l 1
 114.524072639 5.97394054678 26 47.6211561762 26 194.979384454 c 0
 26 350.423901227 124.506166354 504 299.881671868 504 c 0
 388.051866409 504 449.582250237 465.182339488 483 393 c 1
 400 364 l 1
 395.884029461 376.347911617 373.302557485 430 294.173409521 430 c 0
 171.631358019 430 118 301.328031274 118 199.441042366 c 0
 118 140.282270847 136.080882865 62 238.220564132 62 c 0
 295.529015547 62 335.40562351 86.6440320597 365 127 c 1
 436 99 l 1
 413.311363602 62.2977940622 351.422795594 -12 222.257174225 -12 c 0
 216.616133337 -12 211.205050655 -11.8582899864 205.967965953 -11.5748699592 c 1
 178 -45 l 1
 187.324484421 -43.6679307969 194.091977069 -43 201.402045841 -43 c 0
 246.45758256 -43 267 -68.3737629302 267 -96.331959022 c 0
EndSplineSet
EndChar

StartChar: Eth
Encoding: 208 208 249
Width: 710
GlyphClass: 1
Flags: W
HStem: 0 79<163 389.363> 303 80<39 114 228 351> 588 80<271 485.807>
DStem2: 50 -5.32907e-15 146.208 -5.32907e-15 0.207912 0.978148<100.768 309.685 411.639 621.099>
LayerCount: 2
Fore
SplineSet
163 79 m 1
 249 79 l 2
 525.003048829 79 561.902854146 263.165696459 570.815175521 316.182582583 c 0
 603.173794459 508.67487986 538.192396586 588 356 588 c 2
 271 588 l 1
 228 383 l 1
 368 383 l 1
 351 303 l 1
 211 303 l 1
 163 79 l 1
50 0 m 1
 114 303 l 1
 22 303 l 1
 39 383 l 1
 131 383 l 1
 192 668 l 1
 376 668 l 2
 477.425810579 668 722.299305615 651.795833689 669.601357344 335.608144066 c 0
 641.585914382 167.515486294 557.031871366 80.0122582179 439.631013584 34.8580821478 c 0
 379.101890681 11.5776502618 311 0 235 0 c 2
 50 0 l 1
EndSplineSet
EndChar

StartChar: one.tf
Encoding: 317 -1 251
Width: 639
GlyphClass: 1
Flags: W
HStem: 8 77<53 232 317 459> 513 67<159 302.205> 657 20G<366.462 442>
VStem: 384 58<643.848 677>
DStem2: 215.633 8 300.633 8 0.207912 0.978148<96.3927 516.079>
LayerCount: 2
Fore
SplineSet
159 580 m 1
 275.956241054 580 348.923850741 604.342262249 384 677 c 1
 442 677 l 1
 317 85 l 1
 475 85 l 1
 459 8 l 1
 37 8 l 1
 53 85 l 1
 232 85 l 1
 322 513 l 1
 144 513 l 1
 159 580 l 1
EndSplineSet
Substitution2: "'pnum' Proportional Numbers lookup 13 subtable" one
Substitution2: "'aalt' Access All Alternates lookup 0 subtable" one
EndChar

StartChar: Aogonek
Encoding: 328 260 262
Width: 627
GlyphClass: 2
Flags: W
HStem: -173 57<459.123 531.098> 0 21G<-52 67.3699> 146 80<184 430> 648 20G<328.263 459.263>
VStem: 380 77<-112.977 -51.1456>
DStem2: -52 0 56 0 0.506117 0.862465<54.6606 222.588>
AnchorPoint: "Anchor-2" 513 10 basechar 0
AnchorPoint: "Anchor-1" 387 668 basechar 0
AnchorPoint: "Anchor-0" 261 0 basechar 0
LayerCount: 2
Fore
SplineSet
184 226 m 1
 430 226 l 1
 381 573 l 1
 184 226 l 1
457 -86.0298336381 m 0
 457 -105.695685203 473.814707873 -116 498.165444248 -116 c 0
 511.304470106 -116 526 -113 542 -107 c 1
 531 -161 l 1
 505 -169 481.889020475 -173 462.485996067 -173 c 0
 410.157814744 -173 380 -143.906738314 380 -105.579963686 c 0
 380 -60.7418402179 421.275294461 -18.8780391154 486 0 c 1
 462 0 l 1
 441 146 l 1
 139 146 l 1
 56 0 l 1
 -52 0 l 1
 340 668 l 1
 456 668 l 1
 565 0 l 1
 539.23168763 -9.32045341035 457 -42.5400051217 457 -86.0298336381 c 0
EndSplineSet
EndChar

StartChar: aogonek
Encoding: 329 261 263
Width: 521
GlyphClass: 2
Flags: W
HStem: -173 57<302.123 374.098> -12 69<117.916 258.746> 436 68<206.545 356.079>
VStem: 5 94<77.3214 182.468> 223 77<-112.977 -51.1456> 377 85<308.71 415.537>
AnchorPoint: "Anchor-2" 408 0 basechar 0
AnchorPoint: "Anchor-1" 311 496 basechar 0
AnchorPoint: "Anchor-0" 208 0 basechar 0
LayerCount: 2
Fore
SplineSet
99 129.537638318 m 0
 99 102.60463684 109.138442638 57 182.729919233 57 c 0
 270.518595024 57 341.535175286 121.897947826 359 224 c 2
 362 241 l 1
 175.496408379 223.023750205 99 203.518545618 99 129.537638318 c 0
300 -86.0298336381 m 0
 300 -105.695685203 316.814707873 -116 341.165444248 -116 c 0
 354.304470106 -116 369 -113 385 -107 c 1
 374 -161 l 1
 348 -169 324.889020475 -173 305.485996067 -173 c 0
 253.157814744 -173 223 -143.906738314 223 -105.579963686 c 0
 223 -60.7418402179 264.275294461 -18.8780391154 329 0 c 1
 325 63 l 1
 290.200351601 23.9822124009 242.05603071 -12 165.761943682 -12 c 0
 134.082435014 -12 5 -5.79612588766 5 115.054059294 c 0
 5 266.802570663 208.526698473 290.439010476 304.483176983 300.647146488 c 0
 328.819646138 303.236132568 347.333333333 305.333333333 370 308 c 1
 374.366809812 328.378445787 377 343.094682932 377 358.370568394 c 0
 377 410.24206476 346.638236404 436 284.829009412 436 c 0
 260.433467372 436 192.466274413 431.987404639 158 359 c 1
 83 382 l 1
 114.165618692 449.125947951 174.461756848 504 293.243467168 504 c 0
 329.103332268 504 462 498.998673756 462 367.278141641 c 0
 462 287.034173757 412.678993645 163.764777567 408 0 c 1
 382.23168763 -9.32045341035 300 -42.5400051217 300 -86.0298336381 c 0
EndSplineSet
EndChar

StartChar: Eogonek
Encoding: 334 280 268
Width: 565
GlyphClass: 2
Flags: W
HStem: -173 57<332.123 404.098> 0 81<127 359 390.223 469> 304 80<192 439> 587 81<235 594>
VStem: 253 77<-112.977 -51.1456>
DStem2: -22.7723 -173 73.0106 -173 0.207912 0.978148<279.589 507.696 589.482 796.986>
AnchorPoint: "Anchor-2" 438 0 basechar 0
AnchorPoint: "Anchor-1" 381 668 basechar 0
AnchorPoint: "Anchor-0" 230 0 basechar 0
LayerCount: 2
Fore
SplineSet
330 -86.0298336381 m 0
 330 -105.695685203 346.814707873 -116 371.165444248 -116 c 0
 384.304470106 -116 399 -113 415 -107 c 1
 404 -161 l 1
 378 -169 354.889020475 -173 335.485996067 -173 c 0
 283.157814744 -173 253 -143.906738314 253 -105.579963686 c 0
 253 -60.7418402179 294.275294461 -18.8780391154 359 0 c 1
 14 0 l 1
 156 668 l 1
 611 668 l 1
 594 587 l 1
 235 587 l 1
 192 384 l 1
 457 384 l 1
 439 304 l 1
 175 304 l 1
 127 81 l 1
 486 81 l 1
 469 0 l 1
 438 0 l 1
 412.23168763 -9.32045341035 330 -42.5400051217 330 -86.0298336381 c 0
EndSplineSet
EndChar

StartChar: eogonek
Encoding: 335 281 269
Width: 542
GlyphClass: 2
Flags: W
HStem: -163 57<231.123 303.098> 225 68<128 422> 432 72<219.337 374.425>
VStem: 27 88<117.127 270.93> 152 77<-102.532 -41.2512> 422 87<293.413 385.391>
AnchorPoint: "Anchor-2" 337 10 basechar 0
AnchorPoint: "Anchor-1" 321 496 basechar 0
AnchorPoint: "Anchor-0" 218 0 basechar 0
LayerCount: 2
Fore
SplineSet
422 306.032420442 m 0
 422 330.802226565 414.896662 432 306.268856575 432 c 0
 287.256230566 432 158.199981817 428.899918177 128 293 c 1
 421 293 l 1
 421.666666667 296.333333333 422 300.666666667 422 306.032420442 c 0
229 -76.3091347589 m 0
 229 -95.741372668 245.838429747 -106 270.152718403 -106 c 0
 283.301259525 -106 298 -103 314 -97 c 1
 303 -151 l 1
 277 -159 253.889020475 -163 234.485996067 -163 c 0
 182.157814744 -163 152 -133.906738314 152 -96.5512965722 c 0
 152 -79.9980917281 157.921834898 -42.0086609117 209.629827414 -10.7264341515 c 1
 156.652056736 -5.80927070221 27 24.6654653859 27 203.466318693 c 0
 27 361.46580418 128.239870706 504 305.471237189 504 c 0
 467.563548677 504 509 384.776263449 509 299.107705701 c 0
 509 276.056650779 506 251 500 225 c 1
 116 225 l 1
 115.333333333 220.333333333 115 213.333333333 115 205.316438731 c 0
 115 131.884172084 142.966638259 62 251.806179745 62 c 0
 270.168350373 62 326.125945264 63.989085515 371 111 c 1
 449 87 l 1
 427.809153679 59.5765518204 378.879572795 8.90259905331 297.801210301 -6.63461991197 c 1
 276.983409697 -17.0202103431 229 -43.5058316395 229 -76.3091347589 c 0
EndSplineSet
EndChar

StartChar: Iogonek
Encoding: 342 302 276
Width: 414
GlyphClass: 2
Flags: W
HStem: -173 57<90.1228 162.098> 0 75<20 113 209 285> 593 75<146 223 318 412>
VStem: 11 77<-112.977 -51.1456>
DStem2: 60.286 -173 156.286 -173 0.207912 0.978148<273.5 783.091>
AnchorPoint: "Anchor-2" 196 0 basechar 0
AnchorPoint: "Anchor-1" 287 668 basechar 0
AnchorPoint: "Anchor-0" 150 0 basechar 0
LayerCount: 2
Fore
SplineSet
88 -86.0298336381 m 0
 88 -105.695685203 104.814707873 -116 129.165444248 -116 c 0
 142.304470106 -116 157 -113 173 -107 c 1
 162 -161 l 1
 136 -169 112.889020475 -173 93.4859960668 -173 c 0
 41.1578147438 -173 11 -143.906738314 11 -105.579963686 c 0
 11 -60.7418402182 52.2752944613 -18.8780391155 117 0 c 1
 4 0 l 1
 20 75 l 1
 113 75 l 1
 223 593 l 1
 130 593 l 1
 146 668 l 1
 427 668 l 1
 412 593 l 1
 318 593 l 1
 209 75 l 1
 301 75 l 1
 285 0 l 1
 196 0 l 1
 170.23168763 -9.32045341035 88 -42.5400051217 88 -86.0298336381 c 0
EndSplineSet
EndChar

StartChar: iogonek
Encoding: 343 303 277
Width: 270
GlyphClass: 2
Flags: W
HStem: -173 57<26.1228 98.0985> 428 68<71 137> 591 125<182.409 276.712>
VStem: -53 77<-112.977 -51.1456> 167 125<606.293 700.591>
DStem2: 9.22771 -173 95.2277 -173 0.207912 0.978148<180.647 614.432>
AnchorPoint: "Anchor-2" 132 0 basechar 0
AnchorPoint: "Anchor-1" 203 691 basechar 0
AnchorPoint: "Anchor-0" 71 0 basechar 0
LayerCount: 2
Fore
SplineSet
292 653.450182966 m 0
 292 619.15067049 263.859176233 591 229.563271947 591 c 0
 195.462673486 591 167 618.830962625 167 653.382121629 c 0
 167 687.549598069 194.83404068 716 229.510174997 716 c 0
 264.186162313 716 292 687.549839286 292 653.450182966 c 0
24 -86.0298336383 m 0
 24 -105.695685203 40.8147078725 -116 65.1654442475 -116 c 0
 78.3044701062 -116 93 -113 109 -107 c 1
 98 -161 l 1
 72 -169 48.8890204749 -173 29.4859960668 -173 c 0
 -22.8421852562 -173 -53 -143.906738314 -53 -105.579963686 c 0
 -53 -60.7418402182 -11.7247055387 -18.8780391155 53 0 c 1
 46 0 l 1
 137 428 l 1
 57 428 l 1
 71 496 l 1
 237 496 l 1
 132 0 l 1
 106.231687632 -9.32045340961 24 -42.5400051215 24 -86.0298336383 c 0
EndSplineSet
EndChar

StartChar: uni0326
Encoding: 348 806 282
Width: 0
GlyphClass: 4
Flags: W
HStem: -241 36<-41 -0.723812>
VStem: 37 67<-175.19 -80.761>
AnchorPoint: "Anchor-3" 1 -251 basemark 0
AnchorPoint: "Anchor-3" 73 0 mark 0
AnchorPoint: "Anchor-0" 73 0 mark 0
LayerCount: 2
Fore
SplineSet
65 -46 m 1
 85.0001099599 -59.0000714739 104 -81.1507868503 104 -117.392723986 c 0
 104 -183.531710364 40.7233684984 -241 -41 -241 c 1
 -66 -205 l 1
 -15.3573687773 -209.051410498 37 -175.57244683 37 -124.067158297 c 0
 37 -100.819603516 26.3333333333 -84.3333333333 5 -75 c 1
 65 -46 l 1
EndSplineSet
EndChar

StartChar: Uogonek
Encoding: 357 370 291
Width: 693
GlyphClass: 2
Flags: W
HStem: -173 57<246.123 318.098> 648 20G<152.722 253 596.707 697>
VStem: 61 98<108.424 318.938> 157 96<572 668> 167 77<-113.01 -51.0522> 601 96<572 668>
DStem2: -22.2881 -173 74.4123 -173 0.207912 0.978148<390.203 859.898> 421.412 -173 517.712 -173 0.207912 0.978148<326.66 859.961>
AnchorPoint: "Anchor-2" 352 0 basechar 0
AnchorPoint: "Anchor-1" 415 668 basechar 0
AnchorPoint: "Anchor-0" 294 0 basechar 0
LayerCount: 2
Fore
SplineSet
244 -86.2601647178 m 0xec
 244 -105.720728175 260.825888039 -116 285.157748757 -116 c 0
 298.302572703 -116 313 -113 329 -107 c 1
 318 -161 l 1
 292 -169 268.889020475 -173 249.485996067 -173 c 0
 197.157814744 -173 167 -143.906738314 167 -107.662411205 c 0
 167 -93.4898665356 171.611215887 -42.8569292279 244.647003259 -10.3076047696 c 1
 138.025413337 -1.11658932623 61 45.2159680219 61 173.143698883 c 0xec
 61 205.841802952 66.032106081 241.488512725 74 280 c 2
 157 668 l 1
 253 668 l 1xd4
 169 272 l 2
 164.806844838 251.034224192 159 217.298930338 159 185.912443598 c 0
 159 101.302116677 201.198941445 69 295.143699132 69 c 0
 425.592346459 69 485.330770146 131.282357138 516 272 c 2
 601 668 l 1
 697 668 l 1
 614 280 l 2
 561.836064334 31.6003063522 436.151453852 -2.27089738539 325.819442827 -10.5015965694 c 1
 297.259088152 -23.213031569 244 -51.6372778624 244 -86.2601647178 c 0xec
EndSplineSet
EndChar

StartChar: uogonek
Encoding: 358 371 292
Width: 540
GlyphClass: 2
Flags: W
HStem: -173 57<302.123 374.098> -11 73<142.977 270.59> 476 20G<106.768 197 423.692 513>
VStem: 40 86<78.3031 263.312> 111 86<410 496> 223 77<-113.252 -50.204> 428 85<411 496>
DStem2: -30.9213 -173 54.6536 -173 0.207912 0.978148<336.927 683.888> 285.064 -173 371.228 -173 0.207912 0.978148<300.773 684.099>
AnchorPoint: "Anchor-2" 408 0 basechar 0
AnchorPoint: "Anchor-1" 308 496 basechar 0
AnchorPoint: "Anchor-0" 217 0 basechar 0
LayerCount: 2
Fore
SplineSet
300 -86.0298336381 m 0xf6
 300 -105.695685203 316.814707873 -116 341.165444248 -116 c 0
 354.304470106 -116 369 -113 385 -107 c 1
 374 -161 l 1
 348 -169 324.889020475 -173 305.485996067 -173 c 0
 253.157814744 -173 223 -143.906738314 223 -104.072328046 c 0
 223 -72.82635025 241.555442887 -26.5715205132 342.83260958 1.95288823117 c 1
 337 70 l 1
 297.115625213 17.6517580916 251.655496755 -11 179.41141965 -11 c 0
 108.408431293 -11 40 16.6757905976 40 128.788388457 c 0xf6
 40 152.266341394 43 177 49 203 c 2
 111 496 l 1
 197 496 l 1xee
 135 205 l 2
 131.307679107 188.384555982 126 160.558720754 126 136.990891292 c 0
 126 90.0656723912 147.041567949 62 204.783387588 62 c 0
 248.276990353 62 338.005107026 77.9237476702 372 236 c 2
 428 496 l 1
 513 496 l 1
 408 0 l 1
 382.23168763 -9.32045341035 300 -42.5400051217 300 -86.0298336381 c 0xf6
EndSplineSet
EndChar

StartChar: Hbar
Encoding: 367 294 301
Width: 710
GlyphClass: 1
Flags: W
HStem: 0 21G<23 123.276 469 569.246> 304 80<201 533> 504 79<72 130 243 576 689 745> 648 20G<160.765 261 606.765 707>
VStem: 23 96<0 96> 469 96<0 96>
DStem2: 23 0 119 0 0.207912 0.978148<19.9595 330.831 412.617 515.233 616.001 682.926> 469 0 565 0 0.207912 0.978148<19.9595 310.663 392.657 515.233 616.001 682.926>
LayerCount: 2
Fore
SplineSet
201 384 m 1
 551 384 l 1
 576 504 l 1
 226 504 l 1
 201 384 l 1
23 0 m 1
 130 504 l 1
 55 504 l 1
 72 583 l 1
 147 583 l 1
 165 668 l 1
 261 668 l 1
 243 583 l 1
 593 583 l 1
 611 668 l 1
 707 668 l 1
 689 583 l 1
 762 583 l 1
 745 504 l 1
 672 504 l 1
 565 0 l 1
 469 0 l 1
 533 304 l 1
 184 304 l 1
 119 0 l 1
 23 0 l 1
EndSplineSet
EndChar

StartChar: hbar
Encoding: 368 295 302
Width: 580
GlyphClass: 1
Flags: W
HStem: 0 21G<39 129.202 365 454.306> 430 74<283.105 416.247> 548 67<88 155 256 403> 648 20G<176.849 267>
VStem: 39 86<0 86> 365 85<0 85> 433 88<230.688 412.732>
DStem2: 39 0 125 0 0.207912 0.978148<17.8804 398.28 454.469 560.143 646.678 682.926> 365 0 450 0 0.207912 0.978148<17.6725 358.205>
LayerCount: 2
Fore
SplineSet
433 352.655881696 m 0xfa
 433 403.073543883 412.213966155 430 352.019521217 430 c 0
 280.365237079 430 208.043552934 391.845067195 179 257 c 2
 125 0 l 1
 39 0 l 1
 155 548 l 1
 74 548 l 1
 88 615 l 1
 170 615 l 1
 181 668 l 1
 267 668 l 1
 256 615 l 1
 417 615 l 1
 403 548 l 1
 242 548 l 1
 216 427 l 1
 236.806329097 453.632101244 284.274484798 504 382.053271227 504 c 0
 457.181431538 504 521 474.264855292 521 366.909219479 c 0xfa
 521 343.633026635 518 317.333333333 512 288 c 2
 450 0 l 1
 365 0 l 1xfc
 424 280 l 2
 430 309.333333333 433 333.501968437 433 352.655881696 c 0xfa
EndSplineSet
EndChar

StartChar: dcroat
Encoding: 384 273 318
Width: 602
GlyphClass: 1
Flags: W
HStem: -12 72<163.322 295.727> 0 21G<359.361 442.333> 432 72<209.126 349.705> 548 67<308 456 556 623> 648 20G<476.849 567>
VStem: 27 90<111.222 314.165>
DStem2: 336.852 -12 421.968 -12 0.207912 0.978148<419.16 572.535 658.862 695.11>
LayerCount: 2
Fore
SplineSet
117 204.67526671 m 0xbc
 117 161.903705712 127.100285734 60 226.713479687 60 c 0
 324.439243466 60 398 158.078630578 398 278.621986854 c 0
 398 326.039226767 386.617643863 432 283.243237942 432 c 0
 168.354492031 432 117 301.119771952 117 204.67526671 c 0xbc
356 61 m 1
 321.919925129 17.3775041651 275.618437654 -12 207.188904062 -12 c 0xbc
 85.482861071 -12 27 80.929162183 27 199.892634013 c 0
 27 342.163104887 110.643247905 504 263.501628681 504 c 0
 292.32817202 504 392.812826783 498.244485339 424 398 c 1
 456 548 l 1
 294 548 l 1
 308 615 l 1
 470 615 l 1
 481 668 l 1
 567 668 l 1
 563 648.666666667 559.333333333 631 556 615 c 1
 637 615 l 1
 623 548 l 1
 541 548 l 1
 540.159385731 543.890330239 465.446619242 194.398157986 453.213830337 123.879727824 c 0
 447.181795084 89.106818717 442.666666667 43.3333333333 442 0 c 1
 361 0 l 1x7c
 356 61 l 1
EndSplineSet
EndChar

StartChar: Scedilla
Encoding: 389 350 323
Width: 609
GlyphClass: 2
Flags: W
HStem: -181 41<161.903 278.556> -82 39<232.52 285.722> -11.99 78.99<287.621 382.912> 601 79<229.175 415.284>
VStem: 87 95<448.948 560.24> 286 63<-131.492 -83.3846> 446 98<121.691 238.709>
AnchorPoint: "Anchor-1" 359 668 basechar 0
AnchorPoint: "Anchor-0" 239 -181 basechar 0
LayerCount: 2
Fore
SplineSet
349 -96.331959022 m 0
 349 -135.18198519 309.334230088 -181 238.447058301 -181 c 0
 212.794827394 -181 182.333333333 -175 149 -163 c 1
 172 -126 l 1
 198.736764095 -137.009255804 215.625663879 -140 229.325132745 -140 c 0
 264.827617387 -140 286 -119.91419206 286 -102.648183522 c 0
 286 -86.7311483302 268.006726391 -82 248.634010427 -82 c 0
 228.718463799 -82 227.757337815 -87 215.85570566 -87 c 0
 203.939960084 -87 198 -81.9881345772 198 -71.9644037317 c 0
 198 -66.6548012439 199.666666667 -61.6666666667 203 -57 c 2
 242.622741793 -9.21963489647 l 1
 214.003977615 -5.42030037421 82.8178099713 13.9388558709 36 147 c 1
 127 172 l 1
 132.819850781 155.459371465 169.678662019 67 289.111978705 67 c 0
 368.522745711 67 446 106.106742787 446 183.432915594 c 0
 446 349.884000154 87 259.455420068 87 489.749676621 c 0
 87 630.655680827 221.396275533 680 317.02485151 680 c 0
 343.709804562 680 506.19057789 676.157669927 561 555 c 1
 469 529 l 1
 444.885463482 575.889376563 381.445835256 601 324.668390002 601 c 0
 303.759686691 601 182 597.594663753 182 503.31664836 c 0
 182 340.756923289 544 422.64746993 544 198.888880013 c 0
 544 69.2453882191 422.479212034 -10.9570700858 287.620635416 -11.9899723076 c 1
 260 -45 l 1
 269.324484421 -43.6679307969 276.091977069 -43 283.402045841 -43 c 0
 328.45758256 -43 349 -68.3737629302 349 -96.331959022 c 0
EndSplineSet
Substitution2: "'locl' Localized Forms in Latin lookup 8 subtable" uni0218
Substitution2: "'aalt' Access All Alternates lookup 0 subtable" uni0218
EndChar

StartChar: scedilla
Encoding: 390 351 324
Width: 479
GlyphClass: 2
Flags: W
HStem: -181 41<91.9032 208.556> -82 39<162.52 215.722> -11.9697 67.9697<217.638 289.799> 435 69<156.516 316.89>
VStem: 49 85<327.743 413.405> 216 63<-131.492 -83.3846> 325 88<87.3498 177.506>
AnchorPoint: "Anchor-1" 260 496 basechar 0
AnchorPoint: "Anchor-0" 169 -181 basechar 0
LayerCount: 2
Fore
SplineSet
279 -96.331959022 m 0
 279 -135.18198519 239.334230088 -181 168.447058301 -181 c 0
 142.794827394 -181 112.333333333 -175 79 -163 c 1
 102 -126 l 1
 128.736764095 -137.009255804 145.625663879 -140 159.325132745 -140 c 0
 194.827617387 -140 216 -119.91419206 216 -102.648183522 c 0
 216 -86.7311483298 198.00672639 -82 178.634010427 -82 c 0
 158.718463799 -82 157.757337815 -87 145.85570566 -87 c 0
 133.939960084 -87 128 -81.9881345772 128 -71.9644037317 c 0
 128 -66.6548012439 129.666666667 -61.6666666667 133 -57 c 2
 172.263950366 -9.65229514637 l 1
 105.143977205 -1.52828342675 43.3958959747 26.9413449882 10 113 c 1
 96 142 l 1
 106.758925888 82.8259076187 163.4079177 56 216.566011 56 c 0
 272.365610529 56 325 85.558187424 325 135.478818217 c 0
 325 249.792920615 49 185.229819197 49 358.696884063 c 0
 49 471.064568529 164.813152883 504 233.63494021 504 c 0
 247.946112277 504 395.502648277 502.575829881 431 402 c 1
 351 374 l 1
 337.466380345 414.600858965 282.683967868 435 236.906418798 435 c 0
 221.249494405 435 134 432.613729262 134 370.48035092 c 0
 134 259.372279314 413 323.994324502 413 143.201000022 c 0
 413 42.7152401822 326.811670474 -10.5396068991 217.637556656 -11.9697493629 c 1
 190 -45 l 1
 199.324484421 -43.6679307969 206.091977069 -43 213.402045841 -43 c 0
 258.45758256 -43 279 -68.3737629302 279 -96.331959022 c 0
EndSplineSet
Substitution2: "'locl' Localized Forms in Latin lookup 8 subtable" uni0219
Substitution2: "'aalt' Access All Alternates lookup 0 subtable" uni0219
EndChar

StartChar: uni0162
Encoding: 395 354 329
Width: 558
GlyphClass: 2
Flags: W
HStem: -181 41<102.903 219.556> -82 39<173.52 226.722> 0 21G<238.653 270.191> 587 81<90 293 389 611>
VStem: 227 63<-131.492 -83.3846>
DStem2: 130.527 -181 227.527 -181 0.207912 0.978148<205.211 784.997>
AnchorPoint: "Anchor-1" 356 668 basechar 0
AnchorPoint: "Anchor-0" 146 -251 basechar 0
LayerCount: 2
Fore
SplineSet
290 -96.331959022 m 0
 290 -135.18198519 250.334230088 -181 179.447058301 -181 c 0
 153.794827394 -181 123.333333333 -175 90 -163 c 1
 113 -126 l 1
 139.736764095 -137.009255804 156.625663879 -140 170.325132745 -140 c 0
 205.827617387 -140 227 -119.91419206 227 -102.648183522 c 0
 227 -86.7311483298 209.00672639 -82 189.634010427 -82 c 0
 169.718463799 -82 168.757337815 -87 156.85570566 -87 c 0
 144.939960084 -87 139 -81.9881345772 139 -71.9644037317 c 0
 139 -66.6548012439 140.666666667 -61.6666666667 144 -57 c 2
 191.268292683 -3.5527136788e-15 l 1
 169 0 l 1
 293 587 l 1
 73 587 l 1
 90 668 l 1
 628 668 l 1
 611 587 l 1
 389 587 l 1
 266 0 l 1
 238.653061224 2.22044604925e-16 l 1
 201 -45 l 1
 210.324484421 -43.6679307969 217.091977069 -43 224.402045841 -43 c 0
 269.45758256 -43 290 -68.3737629302 290 -96.331959022 c 0
EndSplineSet
Substitution2: "'locl' Localized Forms in Latin lookup 8 subtable" uni021A
Substitution2: "'aalt' Access All Alternates lookup 0 subtable" uni021A
EndChar

StartChar: acutecomb.case
Encoding: 398 -1 332
Width: 0
GlyphClass: 4
Flags: W
HStem: 744 120
VStem: 135 198
AnchorPoint: "Anchor-4" 251 864 basemark 0
AnchorPoint: "Anchor-4" 185 668 mark 0
AnchorPoint: "Anchor-1" 185 668 mark 0
LayerCount: 2
Fore
SplineSet
297.56744727 864 m 0
 316.19703698 864 333 849.229332873 333 825.859249343 c 0
 333 803.560750568 317.70263626 792.742417064 264.453085156 767.683804779 c 0
 248.553140238 760.201477759 235.027749165 753.513874583 216 744 c 1
 135 744 l 1
 140.118727217 747.839045413 250.094527082 840.72968472 272.182947782 855.455298521 c 0
 280.629976401 861.086650934 289.293752474 864 297.56744727 864 c 0
EndSplineSet
EndChar

StartChar: caron.alt
Encoding: 401 -1 335
Width: 206
GlyphClass: 1
Flags: W
HStem: 495 183
VStem: 96 133
LayerCount: 2
Fore
SplineSet
197.254867183 678 m 0
 218.394272831 678 229 663.120560624 229 651.210463268 c 0
 229 643.896124319 225 633 217 619 c 2
 145 495 l 1
 96 495 l 1
 96.6036909675 496.509227419 150.813762293 641.729244873 154.401246333 649.352648457 c 0
 155.44750172 651.575941155 169.084062511 678 197.254867183 678 c 0
EndSplineSet
EndChar

StartChar: uni2074
Encoding: 411 8308 345
Width: 397
GlyphClass: 1
Flags: W
HStem: 489 57<169 269 351 404>
VStem: 251 70<403 473>
DStem2: 88 543 169 546 0.708606 0.705604<59.5139 264.571> 251 403 321 403 0.207912 0.978148<14.5538 87.8631 160.666 295.575>
LayerCount: 2
Fore
SplineSet
169 546 m 1
 281 546 l 1
 313 692 l 1
 169 546 l 1
251 403 m 1
 269 489 l 1
 76 489 l 1
 88 543 l 1
 324 778 l 1
 401 778 l 1
 351 546 l 1
 416 546 l 1
 404 489 l 1
 339 489 l 1
 321 403 l 1
 251 403 l 1
EndSplineSet
EndChar

StartChar: gravecomb.case
Encoding: 414 -1 348
Width: 0
GlyphClass: 4
Flags: W
HStem: 744 120<218.936 224.648>
VStem: 168 153
AnchorPoint: "Anchor-4" 261 864 basemark 0
AnchorPoint: "Anchor-4" 239 668 mark 0
AnchorPoint: "Anchor-1" 239 668 mark 0
LayerCount: 2
Fore
SplineSet
168 826.936498108 m 0
 168 840.532791282 178.151786305 864 208.353162086 864 c 0
 222.281826355 864 228.10848068 859.008547729 321 744 c 1
 248 744 l 1
 199.930284687 779.345378907 168 802.823529412 168 826.936498108 c 0
EndSplineSet
EndChar

StartChar: uni030B
Encoding: 415 779 349
Width: 4
GlyphClass: 4
Flags: W
HStem: 572 136<217 241.909>
VStem: 71 329
AnchorPoint: "Anchor-4" 254 708 basemark 0
AnchorPoint: "Anchor-4" 189 496 mark 0
AnchorPoint: "Anchor-1" 189 496 mark 0
LayerCount: 2
Fore
SplineSet
400 660.759825208 m 0
 400 648.564261074 397.520163356 643.680108904 290 572 c 1
 217 572 l 1
 341 708 344.383134895 708 344.383134895 708 c 0
 386.730727054 708 400 688.970529043 400 660.759825208 c 0
255 663.688594129 m 0
 255 648.26364498 250.828117944 642.552078629 145 572 c 1
 71 572 l 1
 101.2273104 603.666706133 170.31605654 677.755915702 183.576501763 691.489948254 c 0
 191.39925588 699.592086447 200.368378984 708 217.523875389 708 c 0
 241.908514812 708 255 691.013091967 255 663.688594129 c 0
EndSplineSet
Substitution2: "'case' Case-Sensitive Forms lookup 15 subtable" uni030B.case
Substitution2: "Single Substitution lookup 7 subtable" uni030B.case
Substitution2: "Single Substitution lookup 6 subtable" uni030B.case
Substitution2: "Single Substitution lookup 4 subtable" uni030B.case
Substitution2: "Single Substitution lookup 3 subtable" uni030B.case
Substitution2: "'aalt' Access All Alternates lookup 0 subtable" uni030B.case
EndChar

StartChar: dotlessi
Encoding: 417 305 351
Width: 248
GlyphClass: 2
Flags: W
HStem: 0 21G<46 136.234> 428 68<71 137>
VStem: 46 86<0 86>
DStem2: 46 0 132 0 0.207912 0.978148<17.8804 437.567>
AnchorPoint: "Anchor-2" 132 0 basechar 0
AnchorPoint: "Anchor-1" 167 496 basechar 0
AnchorPoint: "Anchor-0" 71 0 basechar 0
LayerCount: 2
Fore
SplineSet
46 0 m 1
 137 428 l 1
 57 428 l 1
 71 496 l 1
 237 496 l 1
 132 0 l 1
 46 0 l 1
EndSplineSet
EndChar

StartChar: uni00B5
Encoding: 181 181 356
Width: 554
GlyphClass: 2
Flags: W
HStem: -162 21G<-28 62.0404> -11 73<142.274 267.534> 0 75<406.218 478.707> 476 20G<106.775 197 423.692 513>
VStem: -28 86<-162 -76> 111 86<410 496> 428 85<411 496>
DStem2: -28 -162 58 -162 0.207912 0.978148<17.8804 166.722 325.56 672.521> 287.402 -162 372.634 -162 0.207912 0.978148<289.528 672.853>
AnchorPoint: "Anchor-2" 435 10 basechar 0
LayerCount: 2
Fore
SplineSet
173.882303379 -11 m 0xde
 126.804755792 -11 98.4260818228 2.55251467967 81 24 c 1
 81.6666666667 8.66666666667 82 -4 82 -14 c 0
 82 -34 80.6666666667 -50.3333333333 78 -63 c 2
 58 -162 l 1
 -28 -162 l 1
 111 496 l 1
 197 496 l 1
 135 205 l 2
 131.307679107 188.384555982 126 160.558720754 126 136.990891292 c 0
 126 90.0656723912 147.041567949 62 204.783387588 62 c 0xde
 248.276990353 62 338.005107026 77.9237476702 372 236 c 2
 428 496 l 1
 513 496 l 1
 433 122 l 2
 424.987193494 84.6069029706 433.264547522 75 461.498981862 75 c 0
 477.290824519 75 480.03724565 78.0053208071 494 80 c 1
 478 7 l 1
 445.794906999 0.558981399825 433.480565759 0 425.481272826 0 c 0xbe
 386.954399138 0 345.638395877 12.9664680247 342 73 c 1
 304.852589078 24.3240822405 249.886807777 -11 173.882303379 -11 c 0xde
EndSplineSet
EndChar

StartChar: uni0328.case
Encoding: 423 -1 358
Width: 0
GlyphClass: 4
Flags: W
HStem: -173 57<35.1228 107.098> -20 20G<29.6376 141>
VStem: -44 77<-112.977 -51.1456>
AnchorPoint: "Anchor-2" 141 0 mark 0
LayerCount: 2
Fore
SplineSet
33 -86.0298336383 m 0
 33 -105.695685203 49.8147078725 -116 74.1654442475 -116 c 0
 87.3044701062 -116 102 -113 118 -107 c 1
 107 -161 l 1
 81 -169 57.8890204749 -173 38.4859960668 -173 c 0
 -13.8421852562 -173 -44 -143.906738314 -44 -105.579963686 c 0
 -44 -60.7418402182 -2.72470553869 -18.8780391155 62 0 c 1
 141 0 l 1
 115.231687632 -9.32045340961 33 -42.5400051215 33 -86.0298336383 c 0
EndSplineSet
EndChar

StartChar: uni0163
Encoding: 427 355 363
Width: 324
GlyphClass: 2
Flags: W
HStem: -181 41<-6.09676 110.556> -82 39<64.5199 117.722> 0 75<151.675 222> 428 68<63 132 232 313>
VStem: 59 92<49.7847 189.18> 118 63<-131.492 -83.3846> 173 86<534 620>
DStem2: 1.83213 -181 87.7308 -181 0.207912 0.978148<309.149 622.755 710.061 819.084> 90.8979 10.4063 92 -45 0.638336 0.769758<-41.9459 0>
AnchorPoint: "Anchor-1" 215 496 basechar 0
AnchorPoint: "Anchor-0" 37 -251 basechar 0
LayerCount: 2
Fore
SplineSet
181 -96.331959022 m 0xf4
 181 -135.18198519 141.334230088 -181 70.4470583011 -181 c 0
 44.794827394 -181 14.3333333333 -175 -19 -163 c 1
 4 -126 l 1
 30.7367640953 -137.009255804 47.6256638797 -140 61.325132745 -140 c 0
 96.8276173867 -140 118 -119.91419206 118 -102.648183522 c 0xf4
 118 -86.7311483299 100.00672639 -82 80.6340104269 -82 c 0
 60.7184637994 -82 59.7573378151 -87 47.8557056601 -87 c 0
 35.9399600836 -87 30 -81.9881345772 30 -71.9644037317 c 0
 30 -66.6548012439 31.6666666667 -61.6666666667 35 -57 c 2
 90.8978837741 10.4062716099 l 1
 74.601353474 17.7664317857 59 33.3687449333 59 66.2006186824 c 0
 59 81.3764993675 62.3333333333 104.333333333 69 135 c 2
 132 428 l 1
 49 428 l 1
 63 496 l 1
 146 496 l 1
 173 620 l 1
 259 620 l 1
 232 496 l 1
 327 496 l 1
 313 428 l 1
 218 428 l 1
 160 159 l 2
 153.747061062 130.861774778 151 113.307128024 151 102.853386813 c 0xfa
 151 83.2005132259 160.709054636 75 194 75 c 2
 238 75 l 1
 222 0 l 1
 160 0 l 2
 149.305700084 0 139.54208548 0.420720757227 130.709156187 1.26216227168 c 1
 92 -45 l 1
 101.324484421 -43.6679307969 108.091977069 -43 115.402045841 -43 c 0
 160.45758256 -43 181 -68.3737629302 181 -96.331959022 c 0xf4
EndSplineSet
Substitution2: "'locl' Localized Forms in Latin lookup 8 subtable" uni021B
Substitution2: "'aalt' Access All Alternates lookup 0 subtable" uni021B
EndChar

StartChar: tildecomb
Encoding: 429 771 365
Width: 4
GlyphClass: 4
Flags: W
HStem: 575 63<290.475 390.28> 617 63<169.04 283.101>
AnchorPoint: "Anchor-4" 289 680 basemark 0
AnchorPoint: "Anchor-4" 250 496 mark 0
AnchorPoint: "Anchor-1" 250 496 mark 0
LayerCount: 2
Fore
SplineSet
456 652.228093145 m 0x40
 456 627.569383579 415.082843905 575 350.297886723 575 c 0x80
 292.390711648 575 268.840404513 617 217.659627067 617 c 0
 188.822525854 617 169 603.666666667 157 577 c 1
 92 577 l 1
 110.973104184 627.278726089 148.740895563 680 219.52006827 680 c 0x40
 282.693894215 680 307.511311114 638 346.145283118 638 c 0x80
 384.779255122 638 398.273848945 680 426.726060966 680 c 0
 443.11410111 680 456 666.066145987 456 652.228093145 c 0x40
EndSplineSet
Substitution2: "'case' Case-Sensitive Forms lookup 15 subtable" tildecomb.case
Substitution2: "Single Substitution lookup 7 subtable" tildecomb.case
Substitution2: "Single Substitution lookup 6 subtable" tildecomb.case
Substitution2: "Single Substitution lookup 4 subtable" tildecomb.case
Substitution2: "Single Substitution lookup 3 subtable" tildecomb.case
Substitution2: "'aalt' Access All Alternates lookup 0 subtable" tildecomb.case
EndChar

StartChar: zero.alt1
Encoding: 431 -1 367
Width: 648
Flags: W
HStem: -12.0036 75.0036<225.83 379.764> 605 75.0107<284.354 446.747>
VStem: 67.833 90.0244<245.47 411.227>
DStem2: 168 171 207 97 0.58687 0.809681<0 465.638>
LayerCount: 2
Fore
SplineSet
301.480117852 63 m 0
 521.575725512 63 515.452094378 411.665286344 512.059759487 451.694838051 c 0
 511.099810724 463.02223346 507.333333333 485.333333333 502 504 c 1
 207 97 l 1
 229.666666667 74.3333333333 261.798821515 63 301.480117852 63 c 0
168 171 m 1
 460 575 l 1
 437.333333333 595 406.50281309 605 368.809165495 605 c 0
 227.130439552 605 181.673842253 463.722515454 163.680126914 337.760786695 c 0
 159.505155761 308.534661121 157.857421875 287.4747918 157.857421875 245.470022153 c 0
 157.857421875 245.470022153 157.857421875 208.527539063 168 171 c 1
605 418.721942483 m 0
 605 341.503536364 589.212780234 -12 291.990226139 -12 c 0
 291.044270833 -12 290.099576599 -12.0035807292 288.515109438 -12.0036336987 c 0
 75.8804882123 -12.0107421875 67.8330078125 180.312307441 67.8330078125 242.7689672 c 0
 67.8330078125 353.059855341 92.9276892821 680 380.282124827 680.007120728 c 0
 381.92578125 680.007161459 382.841220125 680.010742188 383.707951604 680.010742188 c 0
 473.346883701 680.010742188 605 641.711013114 605 418.721942483 c 0
EndSplineSet
Substitution2: "'zero' Slashed Zero lookup 0-1" zero
Substitution2: "'aalt' Access All Alternates lookup 0 subtable" zero
Substitution2: "'tnum' Tabular Numbers lookup 14 subtable" zero
EndChar

StartChar: copyleft
Encoding: 432 127279 368
Width: 814
Flags: W
HStem: -12 62<312.375 519.749> 150 59<350.253 472.13> 473 58<355.372 473.89> 618 62<308.902 523.536>
VStem: 70 62<230.156 441.549> 512 76<250.234 431.971> 700 62<226.388 441.084>
LayerCount: 2
Fore
SplineSet
588 345.884229983 m 0
 588 289.269674912 573.373283232 150 417.84006609 150 c 0
 376.26734522 150 304.145536137 159.950093228 265 230 c 1
 331 254 l 1
 338.7825153 239.033624423 360.782942424 209 410.479856006 209 c 0
 445.71519308 209 512 224.097525467 512 338.118482366 c 0
 512 379.198242125 503.395999579 473 415.039574145 473 c 0
 378.169835281 473 351.333333333 456.666666667 334 424 c 1
 267 449 l 1
 286.55301729 486.047822233 327.996693133 531 409.21505488 531 c 0
 451.845204152 531 588 518.615570846 588 345.884229983 c 0
132 334.539733286 m 0
 132 177.21204995 257.6708311 50 415.863923225 50 c 0
 572.954780864 50 700 175.44548716 700 333.457681726 c 0
 700 489.992357152 575.319587308 618 416.628165615 618 c 0
 260.019877608 618 132 493.330998068 132 334.539733286 c 0
762 334.772868517 m 0
 762 144.046369488 608.123127018 -12 416.198537635 -12 c 0
 225.823198018 -12 70 141.537268825 70 333.217216791 c 0
 70 522.819687503 222.463797346 680 415.097187201 680 c 0
 604.818026748 680 762 527.536779516 762 334.772868517 c 0
EndSplineSet
EndChar

StartChar: f_i
Encoding: 433 64257 369
Width: 527
Flags: W
HStem: 0 21G<37 127.252 303 393.234> 428 68<59 128 228 394> 591 125<439.409 533.712> 635 71<266.329 359>
VStem: 37 86<0 86> 303 86<0 86> 424 125<606.293 700.591>
DStem2: 37 0 123 0 0.207912 0.978148<17.8804 437.567 524.872 659.814> 303 0 389 0 0.207912 0.978148<17.8804 437.567>
LayerCount: 2
Fore
SplineSet
549 653.450182966 m 0xee
 549 619.15067049 520.859176233 591 486.563271947 591 c 0
 452.462673486 591 424 618.830962625 424 653.382121629 c 0
 424 687.549598069 451.83404068 716 486.510174997 716 c 0
 521.186162313 716 549 687.549839286 549 653.450182966 c 0xee
303 0 m 1
 394 428 l 1
 214 428 l 1
 123 0 l 1
 37 0 l 1
 128 428 l 1
 44 428 l 1
 59 496 l 1
 142 496 l 1
 154 549 l 2
 183.268570318 679.378176871 215.824889772 706 323 706 c 2
 374 706 l 1
 359 635 l 1
 335 635 l 2xde
 280.164501008 635 256.713218506 624.252375995 243 563 c 2
 228 496 l 1
 494 496 l 1
 389 0 l 1
 303 0 l 1
EndSplineSet
LCarets2: 1 302
Ligature2: "'liga' Standard Ligatures lookup 0-1" f i
EndChar

StartChar: f_f
Encoding: 434 64256 370
Width: 586
Flags: W
HStem: 0 21G<37 127.252 303 393.252> 428 68<59 128 228 394 494 581> 635 71<266.329 359 532.329 625>
VStem: 37 86<0 86> 303 86<0 86>
DStem2: 37 0 123 0 0.207912 0.978148<17.8804 437.567 524.872 659.814> 303 0 389 0 0.207912 0.978148<17.8804 437.567 524.872 659.814>
LayerCount: 2
Fore
SplineSet
303 0 m 1
 394 428 l 1
 214 428 l 1
 123 0 l 1
 37 0 l 1
 128 428 l 1
 44 428 l 1
 59 496 l 1
 142 496 l 1
 154 549 l 2
 183.268570318 679.378176871 215.824889772 706 323 706 c 2
 374 706 l 1
 359 635 l 1
 335 635 l 2
 279.408107501 635 256.613730285 623.807995275 243 563 c 2
 228 496 l 1
 408 496 l 1
 420 549 l 2
 449.268570318 679.378176871 481.824889772 706 589 706 c 2
 640 706 l 1
 625 635 l 1
 601 635 l 2
 545.408107501 635 522.613730285 623.807995275 509 563 c 2
 494 496 l 1
 596 496 l 1
 581 428 l 1
 480 428 l 1
 389 0 l 1
 303 0 l 1
EndSplineSet
LCarets2: 1 302
Ligature2: "'liga' Standard Ligatures lookup 0-1" f f
EndChar

StartChar: f_f_i
Encoding: 435 64259 371
Width: 793
Flags: W
HStem: 0 21G<37 127.252 303 393.252 569 659.234> 428 68<59 128 228 394 494 660> 591 125<705.409 799.712> 635 71<266.329 359 532.329 625>
VStem: 37 86<0 86> 303 86<0 86> 569 86<0 86> 690 125<606.293 700.591>
DStem2: 37 0 123 0 0.207912 0.978148<17.8804 437.567 524.872 659.814> 303 0 389 0 0.207912 0.978148<17.8804 437.567 524.872 659.814> 569 0 655 0 0.207912 0.978148<17.8804 437.567>
LayerCount: 2
Fore
SplineSet
815 653.450182966 m 0xef
 815 619.15067049 786.859176233 591 752.563271947 591 c 0
 718.462673486 591 690 618.830962625 690 653.382121629 c 0
 690 687.549598069 717.83404068 716 752.510174997 716 c 0
 787.186162313 716 815 687.549839286 815 653.450182966 c 0xef
569 0 m 1
 660 428 l 1
 480 428 l 1
 389 0 l 1
 303 0 l 1
 394 428 l 1
 214 428 l 1
 123 0 l 1
 37 0 l 1
 128 428 l 1
 44 428 l 1
 59 496 l 1
 142 496 l 1
 154 549 l 2
 183.268570318 679.378176871 215.824889772 706 323 706 c 2
 374 706 l 1
 359 635 l 1
 335 635 l 2
 280.164501008 635 256.713218506 624.252375995 243 563 c 2
 228 496 l 1
 408 496 l 1
 420 549 l 2
 449.268570318 679.378176871 481.824889772 706 589 706 c 2
 640 706 l 1
 625 635 l 1
 601 635 l 2xdf
 545.408107501 635 522.613730285 623.807995275 509 563 c 2
 494 496 l 1
 760 496 l 1
 655 0 l 1
 569 0 l 1
EndSplineSet
LCarets2: 2 304 568
Ligature2: "'liga' Standard Ligatures lookup 0-1" f f i
EndChar

StartChar: f_f_l
Encoding: 437 64260 373
Width: 845
Flags: W
HStem: 0 75<704.768 768> 428 68<59 128 228 394 494 581> 635 71<266.329 359 532.329 625> 648 20G<730.764 821>
VStem: 37 86<0 86> 303 86<0 86> 613 91<46.3002 166.438> 735 86<582 668>
DStem2: 37 0 123 0 0.207912 0.978148<17.8804 437.567 524.872 659.814> 303 0 389 0 0.207912 0.978148<17.8804 437.567 524.872 659.814>
LayerCount: 2
Fore
SplineSet
303 0 m 1xef
 394 428 l 1
 214 428 l 1
 123 0 l 1
 37 0 l 1
 128 428 l 1
 44 428 l 1
 59 496 l 1
 142 496 l 1
 154 549 l 2
 183.268570318 679.378176871 215.824889772 706 323 706 c 2
 374 706 l 1
 359 635 l 1
 335 635 l 2
 280.164501008 635 256.713218506 624.252375995 243 563 c 2
 228 496 l 1
 408 496 l 1
 420 549 l 2
 449.268570318 679.378176871 481.824889772 706 589 706 c 2
 640 706 l 1
 625 635 l 1
 601 635 l 2
 546.164501008 635 522.713218506 624.252375995 509 563 c 2
 494 496 l 1
 596 496 l 1
 581 428 l 1
 480 428 l 1
 389 0 l 1
 303 0 l 1xef
704 105 m 0
 704 84.5826778498 713.76612344 75 747 75 c 2
 784 75 l 1
 768 0 l 1
 712 0 l 2
 631.880966676 0 613 23.8636089523 613 68.7368120517 c 0
 613 84.5115934936 615.333333333 102.965494792 620 125 c 2
 735 668 l 1
 821 668 l 1xdf
 709 140 l 1
 704 105 704 105 704 105 c 0
EndSplineSet
LCarets2: 2 302 592
Ligature2: "'liga' Standard Ligatures lookup 0-1" f f l
EndChar

StartChar: dong
Encoding: 438 8363 374
Width: 602
Flags: W
HStem: -129 67<-13 476> -12 72<163.322 295.727> 0 21G<359.361 442.333> 432 72<209.126 349.705> 548 67<308 456 556 623> 648 20G<476.849 567>
VStem: 27 90<111.222 314.165>
DStem2: 311.983 -129 397.099 -129 0.207912 0.978148<538.773 692.149 778.476 814.724>
LayerCount: 2
Fore
SplineSet
-27 -129 m 1x9e
 -13 -62 l 1
 490 -62 l 1
 476 -129 l 1
 -27 -129 l 1x9e
117 204.67526671 m 0
 117 161.903705712 127.100285734 60 226.713479687 60 c 0xde
 324.439243466 60 398 158.078630578 398 278.621986854 c 0
 398 326.039226767 386.617643863 432 283.243237942 432 c 0
 168.354492031 432 117 301.119771952 117 204.67526671 c 0
356 61 m 1
 321.919925129 17.3775041651 275.618437654 -12 207.188904062 -12 c 0xde
 85.482861071 -12 27 80.929162183 27 199.892634013 c 0
 27 342.163104887 110.643247905 504 263.501628681 504 c 0
 292.32817202 504 392.812826783 498.244485339 424 398 c 1
 456 548 l 1
 294 548 l 1
 308 615 l 1
 470 615 l 1
 481 668 l 1
 567 668 l 1
 563 648.666666667 559.333333333 631 556 615 c 1
 637 615 l 1
 623 548 l 1
 541 548 l 1
 540.159385731 543.890330239 465.446619242 194.398157986 453.213830337 123.879727824 c 0
 447.181795084 89.106818717 442.666666667 43.3333333333 442 0 c 1
 361 0 l 1xbe
 356 61 l 1
EndSplineSet
EndChar

StartChar: uni0237
Encoding: 474 567 410
Width: 258
HStem: -161 75<-138 -4.24677> 476 20G<128.735 219>
VStem: 133 86<410 496>
DStem2: -6.98484 -161 79.0779 -161 0.207912 0.978148<89.2467 671.747>
AnchorPoint: "Anchor-1" 176 496 basechar 0
LayerCount: 2
Fore
SplineSet
-85.7283337865 -161 m 0
 -105.74137204 -161 -128.618411174 -160.335873096 -154 -159 c 1
 -138 -86 l 1
 -106 -86 l 2
 -4.11642366323 -86 13.6852085519 -70.6133061715 30 13 c 1
 133 496 l 1
 219 496 l 1
 115 8 l 1
 88.0752185139 -123.931429282 63.7886092305 -161 -85.7283337865 -161 c 0
EndSplineSet
EndChar

StartChar: uni2010
Encoding: 489 8208 425
Width: 332
Flags: W
HStem: 208 81<49 283>
VStem: 31 270
LayerCount: 2
Fore
SplineSet
31 208 m 1
 49 289 l 1
 301 289 l 1
 283 208 l 1
 31 208 l 1
EndSplineSet
EndChar

StartChar: Ldot
Encoding: 496 319 432
Width: 541
HStem: 0 81<127 469> 250 128<316.492 412.266> 648 20G<151.749 252>
VStem: 156 96<572 668> 300 129<266.041 361.055>
DStem2: 14 0 109.783 0 0.207912 0.978148<102.724 682.926>
LayerCount: 2
Fore
SplineSet
429 313.12606967 m 0
 429 276.72462579 400.221389249 250 364.374830897 250 c 0
 328.160329149 250 300 277.276065913 300 313.006878772 c 0
 300 348.726972722 328.143436013 378 364.184374481 378 c 0
 399.409285983 378 429 350.037546381 429 313.12606967 c 0
14 0 m 1
 156 668 l 1
 252 668 l 1
 127 81 l 1
 486 81 l 1
 469 0 l 1
 14 0 l 1
EndSplineSet
EndChar

StartChar: ldot
Encoding: 497 320 433
Width: 370
Flags: W
HStem: 0 75<118.571 182> 250 129<247.611 343.146> 648 20G<144.764 235>
VStem: 27 91<47.1319 191.188> 149 86<582 668> 231 129<266.839 362.149>
DStem2: 7.43043 0 93.2421 0 0.207912 0.978148<124.638 682.837>
LayerCount: 2
Fore
SplineSet
360 314.554290333 m 0xf4
 360 278.793943632 331.195499089 250 295.439079455 250 c 0
 259.48125678 250 231 279.119229004 231 314.486255376 c 0
 231 349.855022365 259.484060307 379 295.383702351 379 c 0
 330.876258142 379 360 350.512257359 360 314.554290333 c 0xf4
118 103.495178852 m 0
 118 84.3349174531 127.760957322 75 161 75 c 2
 198 75 l 1
 182 0 l 1
 126 0 l 2
 44.7852244385 0 27 24.4153961085 27 69.8483173605 c 0
 27 86.3045106437 29.3333333333 104.333333333 34 125 c 2
 149 668 l 1
 235 668 l 1xf8
 123 140 l 2
 120.155955225 124.357753738 118 112.5 118 103.495178852 c 0
EndSplineSet
EndChar

